<svg height="144" viewBox="0 0 144 144" width="144" xmlns="http://www.w3.org/2000/svg" xmlns:xlink="http://www.w3.org/1999/xlink"><linearGradient id="a" x1="50%" x2="50%" y1="0%" y2="99.768%"><stop offset="0" stop-color="#4985ff"/><stop offset="1" stop-color="#1d5cff"/></linearGradient><g fill="none" fill-rule="evenodd"><path d="m60.2208919 0h23.5582162c19.8216259 0 27.8429669 2.22781467 35.6651889 6.41118489 7.822222 4.18337021 13.961148 10.32229601 18.144518 18.14451821s6.411185 15.8435625 6.411185 35.6651888v23.5582162c0 19.8216259-2.227815 27.8429669-6.411185 35.6651889s-10.322296 13.961148-18.144518 18.144518-15.843563 6.411185-35.6651889 6.411185h-23.5582162c-19.8216263 0-27.8429666-2.227815-35.6651888-6.411185s-13.961148-10.322296-18.14451821-18.144518c-4.18337022-7.822222-6.41118489-15.843563-6.41118489-35.6651889v-23.5582162c0-19.8216263 2.22781467-27.8429666 6.41118489-35.6651888 4.18337021-7.8222222 10.32229601-13.961148 18.14451821-18.14451821 7.8222222-4.18337022 15.8435625-6.41118489 35.6651888-6.41118489z" fill="url(#a)" fill-rule="nonzero"/><path d="m33.5772741.0580582c-.0318467.03188966-.4275491.09426209-.8794735.13843865-.451831.04427036-.9896762.120149-1.1951388.16882763-.2054627.04858484-.6257272.13975176-.9339211.20259316-.9581097.19546487-2.937929.90932437-4.1092528 1.48174382-2.9908823 1.4615783-5.565049 3.6793168-7.582412 6.53231614l-.7294857 1.0317244-.840529.05749519c-1.0276868.07034484-1.5774861.18486625-2.4281949.50573251-.9054365.3415008-1.7282209.8081216-2.4604151 1.3951728-1.1532057.9247064-1.6433275 1.5947645-2.7870073 3.8098768-.41288651.7995864-1.33065077 2.5511731-2.03949688 3.8924148-4.14128629 7.8355716-6.26483607 13.5565772-7.22406642 19.4620739-.31557194 1.9428308-.39943805 3.0960173-.35806535 4.9241392.06686875 2.9612366.45631385 5.376691 1.28684987 7.9830144.2119067.6648057.44594732 1.4095231.52010066 1.654886.2011666.6653684 1.28077938 3.1631732 1.86989681 4.3263955 1.10931147 2.1902572 2.48460367 4.3841722 4.01473999 6.4045699.4768601.6295395.89301534 1.2489493.92486205 1.3764142.06798946.2721876-.01783789.4540525-.47181693.9997409-.42194555.5072333-.7527404 1.0720555-1.00004271 1.7077853-.15820623.4064056-.19434898.7166733-.19985911 1.7154763-.00672423 1.2009272-.00018679 1.2401327.42941692 2.597882.91645676 2.8961442 1.50267903 5.559869 1.95675147 8.8917761.15419037 1.1314265.15157539 3.9096727-.00438943 4.5958632-.06444056.2837242-.16175514.7057933-.21610934.9379313-.0544476.232138-.2888618.9918623-.52094119 1.6882763-.56119318 1.683868-.71463642 2.5619592-.57940464 3.3170877.35078076 1.9597136 1.91341753 3.3999071 4.31452863 3.9764534.911507.2188194 3.4019944.2216332 4.646631.0052525 3.5414288-.6157519 7.0171095-2.0595095 10.6955445-4.4426991 1.0170401-.6588967 3.6520985-2.5528613 4.4798327-3.2199181 2.7404047-2.2082654 4.4158591-3.6621526 8.1733972-7.0918859 3.2029758-2.9235318 4.1782696-3.7683265 5.4048816-4.6813088 1.2444498-.9262071 1.4668164-1.0337878 2.5011341-1.2097437 1.4620534-.2487394 2.8599465-.9887672 4.5602433-2.4142351.8937624-.7493133 2.5675358-2.4843924 3.4088119-3.5336561.5506399-.6868471.7068849-.8134678 1.681058-1.3627203 1.7891126-1.0086513 4.0261338-1.7771922 5.9303989-2.0373744 2.9748189-.4064994 3.0630744-.427978 3.9340492-.9542512 2.0076502-1.2131203 4.1288652-4.4805915 5.7933927-8.9241347 1.235671-3.2985167 2.379164-7.4893812 3.1150005-11.4158429.1111366-.5932415.279149-1.4795866.3731948-1.9696557.206023-1.0728058.3297676-1.8444418.4663068-2.9075869.0563155-.4384829.1403684-1.050483.1866908-1.3600004.2121869-1.4158072.2954927-2.4595371.3106222-3.8924147.0150361-1.4262183.000467-1.5774129-.1862239-1.9276364-.5260777-.9867037-1.6954403-1.9023122-3.5331168-2.7663345l-.9484903-.4458925-.1184212-1.392828c-.1009569-1.1888278-.2570151-2.3396695-.4175561-3.0811042-.0223207-.1031724-.0904036-.4408277-.1512952-.750345-.350594-1.7831949-1.0176938-3.8251651-1.8384237-5.6275876-1.8995955-4.171168-5.361641-8.0436048-9.5289837-10.65818205-1.2578049-.78908158-2.7636593-1.61014662-3.7681848-2.05435087-1.8175972-.8038071-4.8401395-1.85804185-6.0332236-2.10443639-.3866434-.07981796-.4650928-.18749247-.5484919-.75268985-.1855701-1.25814101-.9561484-2.19363366-2.196956-2.66728895-.4956319-.18918074-.6609359-.19330789-7.7987081-.19330789-4.0108175 0-7.3183924.02607474-7.3502391.0580582m.4002786 3.22901599c-2.9289634.21225385-5.7226949 1.19708168-8.1687277 2.87982418-1.8784888 1.2922817-3.3696806 2.83546003-4.6501798 4.81243153-1.0415089 1.6078956-1.6194192 2.9625498-1.9383533 4.5433391-.253186 1.2551396-.4108319 1.5616556-.9431669 1.834406-1.0213361.5232719-2.1953683-.0865711-2.2994071-1.1943617-.045482-.4841601.1537234-1.7039397.3891649-2.383002.2396442-.6912553.2161094-.7452802-.2616847-.6009325-1.0260057.3101738-1.7735161.8572692-2.4619094 1.8020473-.2547736.349567-1.0421625 1.7119122-1.7497011 3.0273608-.707632 1.3154486-1.3655794 2.5312889-1.4621469 2.7018986-.096474.1706097-.1754838.3354042-.1754838.3662622 0 .0608717 1.8066704-.0189462 3.5955962-.1589794 1.3465275-.1054235 9.9990262-.0415503 11.5806216.0854456.6163879.0495227 1.8351549.1365627 2.7083711.1934952 2.0620044.1344055 3.6670412.2699366 4.4828213.3787366.3595596.0478345 1.0215229.1301849 1.4709257.1828966 3.3323238.3905546 3.7821002.4523643 5.953747.8171257 1.052996.1768939 2.1456837.3590401 2.4281948.4048112 4.2735295.6920995 6.8476962 1.3715369 11.3469545 2.9950959 1.0086347.3640111 3.0970691 1.4491038 4.0533109 2.1060309 1.4548623.9995534 2.3932662 2.2345275 2.6087218 3.4333912.0923648.5138926-.0410925 2.5539869-.2546803 3.8924148-.0494044.3095173-.1358855.8582071-.192201 1.2193106-.0563154.3611036-.1387806.8253796-.1834221 1.0317244-.044548.2063449-.1680124.7972416-.274386 1.3131038s-.254867 1.1700693-.3301411 1.4537935c-.1487736.5610705-.5450363 2.0320281-.8085889 3.0013801-.0911507.3353104-.3750627 1.2216555-.6310504 1.9696556-.2558944.7480002-.5366311 1.5710349-.6237659 1.828966-.2711173.8019313-1.826096 4.367477-2.2701754 5.2055186-2.0338934 3.8378272-4.0747911 6.3604871-6.6502653 8.2204048-2.8518215 2.0595095-7.3378181 4.1011045-11.8141018 5.3765973-.5650223.1610428-1.1323794.3294952-1.2607935.3744221-.1284142.0448331-.6327316.1731421-1.1207053.2850373-1.1293908.2589629-2.3135094.5350898-3.0571907.7130154-1.1748728.2810042-4.9561325.8886899-6.6555887 1.069523-.5393394.0574014-1.3159882.147818-1.7257928.2009987-1.0772779.1395642-5.1569255.1384386-6.1658404-.0017821-1.6826456-.23392-2.4792803-.3879284-4.0374343-.7808278l-1.1423723-.2880387-.1888388.2236029c-.4969394.5882705-.9166436 1.3193879-.972492 1.6940914-.0777957.5214898.0236282 1.0334127.5356037 2.7033055.2292776.7480002.4813429 1.6343453.5601659 1.9696557.0787295.3353104.2475825 1.0528279.3751561 1.5944832.2476759 1.0510458.2517851 1.0719616.5398998 2.7200007.1980846 1.1323644.29129 1.8442542.454446 3.4703457.0543542.5416553.1199154 1.0537658.1456917 1.137992.0599577.1959338-.1210362 2.5920668-.2469288 3.2702849-.1949093 1.0496389-.4630381 2.0489109-.8758312 3.2640009-.2330133.6860967-.42372 1.3700362-.42372 1.51973 0 .6108747.4150346 1.0253465 1.387153 1.3855121.5516672.2043752.7662823.2296056 1.9282669.226663 3.3409159-.0093443 6.8400381-1.2296867 10.983846-3.8311329 3.8028333-2.3874102 5.988769-4.1782962 14.2787195-11.6981602 2.5948064-2.3538323 4.7175156-4.0191293 5.8575531-4.5955819.6421642-.3247118 1.1371423-.4789077 1.9873841-.6189408.8657448-.1426593 1.339523-.3448773 2.135504-.9115754.7787968-.5544112 2.7073438-2.4359951 3.6345407-3.5460368.3878574-.4642759.8767651-1.0262844 1.0865238-1.2489492.8253994-.8763092 4.1385779-2.4973359 6.2849153-3.0750077 1.7253259-.4643698 1.7358792-.4663395 4.3167701-.8062457.7989695-.1053297.9297185-.1519449 1.4011618-.5004802.9180445-.6787808 1.728688-1.8090818 2.6882919-3.7486299.6324514-1.2783065 1.0152656-2.1790019 1.4148904-3.329656.1522292-.4384829.4648126-1.3248279.6944638-1.9696557.2297446-.6448277.6376813-1.9743453.9065572-2.9544835.776462-2.8305828.7726329-2.8150131 1.130885-4.5020701.1534433-.7222071.3607737-1.6929659.4607967-2.1572419.1000229-.464276.2688759-1.4350349.3751561-2.1572419.1062802-.7222071.231519-1.5663453.2782151-1.8758626.2924107-1.9358901.5325218-5.2561668.3937411-5.4432841-.2933446-.3953381-2.1192537-1.3414293-3.6209054-1.8760502-.616388-.2194759-1.7090756-.6177215-2.4281949-.8849381-1.2152181-.4517077-2.6090019-.9053851-4.5213922-1.4716142-1.6676095-.4938208-2.0160554-.810185-2.0160554-1.8303729 0-.4861297.0430537-.684127.1925745-.8852195.6117183-.8229409 1.078959-.8570816 3.2162375-.2355145.898899.2614952 2.2332855.6827201 2.9651994.9360554l1.3308376.460618v-.24208c0-.8695561-.4828372-3.4082547-.9487705-4.9882937-1.4211477-4.8194661-4.5502503-8.9847251-9.0400759-12.0334707-.9965872-.6767174-3.3312032-1.92360321-4.6447632-2.48073438-.9010471-.382207-1.3086102-.50019875-2.0478088-.59314774-1.2741485-.16001108-5.79965-.16676418-7.0401773-.01041104-5.2137079.65702086-8.8771068 2.26622954-11.7729159 5.17137786-1.2090543 1.2128389-1.690117 1.8594488-2.5013209 3.3613581-.5233694.968883-.7286452 1.1816058-1.2755494 1.321639-1.0242313.2622455-1.9546035-.4691533-1.9546035-1.5366128 0-.3847395.0870415-.6478292.4509905-1.3638459 1.3433521-2.6430903 3.8645655-5.29237101 6.5819957-6.91668039 2.1068326-1.25926652 4.9241924-2.33000886 7.3427678-2.79053312.4109253-.07822347.9362559-.17980142 1.1674014-.22557247.2311454-.04586484.9245818-.13206072 1.5409698-.19152556.6163879-.05955864 1.3467142-.13018486 1.6230614-.15691591l.5023562-.04867863-.0546344-.46296288c-.0299789-.25464834-.0799436-.50413805-.1109498-.55450496-.066682-.10842486-12.2664932-.10251589-13.7739352.00665931m-18.2901909 21.07559711c-.361334.9198292-1.6023284 5.0285309-1.6023284 5.3053144 0 .1084249.2043419.1507256.9572691.1978097.5264513.0330152 1.2199812.1008276 1.5409698.1508194 2.0107321.3129876 2.1651093.3416883 3.6189443.671465 3.5546904.8064333 7.5603714 2.4211757 10.5533083 4.2541748.5650223.3460029 1.1999952.7296168 1.4110614.8522982l.3838415.2232276 1.2133503-1.290312c1.4089134-1.4982514 3.9501127-4.3465611 3.9480593-4.4253474-.0021493-.0857269-2.6524305-1.5358624-3.7809808-2.0688888-3.0316946-1.431752-7.0120663-2.7547979-9.8528675-3.2751622-2.703328-.4951339-3.7020632-.6203477-6.0704871-.7609436-2.2569137-.1340304-2.2007851-.1380635-2.3201402.1655449m-4.684268-.0584332c-.4879738.0437076-1.24444984.1116139-1.68105795.151007l-.79383293.0715641-.39598255.7972416c-.6710223 1.3508086-2.1220555 4.7713502-2.0534123 4.8403819.01550309.0154759.29978867-.0127558.63170423-.0627476.96502066-.1455669 2.02558145-.2598069 3.05494928-.3291201l.95717572-.064342.092645-.3397187c.4904019-1.7981081.8529501-3.016856 1.3643653-4.5870467.0720053-.2210704.1309357-.4426098.1309357-.4924139 0-.0996083-.0296053-.0992332-1.3074895.0151944m25.3559576 1.5643756c.8732163.4508636 1.9932678 1.0615506 2.4889931 1.3569052.4957254.2954483.9408322.5371532.9890225.5371532.0713516 0 .8174611-.8539864 1.4067653-1.6103342.109082-.1399393.0699507-.1661076-.3735684-.2496773-.7674964-.1447228-2.8322091-.4628691-3.7640756-.5799229-.4622909-.0580579-1.0961432-.1449104-1.4085398-.1928387-.3123966-.048022-.6486082-.0858207-.7471368-.0842262-.0985287.0016883.5353235.3719836 1.4085397.8229409m7.9628914 1.5840721c-.3217358.3969326-.8265201 1.0140913-1.1219194 1.3714431-.2953992.3573519-.5370046.704105-.5370046.7705106 0 .0664993.6409501.6183781 1.4242297 1.2264389.7832796.6081547 2.0607903 1.6670791 2.8387465 2.3532696.7779563.6861905 1.4511266 1.2476362 1.4958614 1.2476362.1587666 0 3.3035591-5.529949 3.2992675-5.8015739-.0020591-.1311228-6.2290713-1.8871177-6.6987402-1.8889938-.0636001-.0002812-.3787984.3243368-.7004409.7212693m10.4044414 2.5008062c-.0460424.0589021-.4313782.7613188-.8564057 1.5609052-.4249341.7995864-1.2712534 2.2828309-1.8805435 3.2960781-.6093835 1.0132471-1.1079106 1.8837412-1.1079106 1.9343894 0 .1387201 4.6753958 5.0004868 4.7589817 4.9486192.0396917-.0246676.0976882-.1830842.1287877-.3520056.031193-.1689214.1440107-.6236305.2508512-1.0105271.187438-.6784995.4128866-1.6705494.6926893-3.0482767.2573887-1.2672389.5195403-3.4812257.5427016-4.5832949l.023348-1.1128555-.5320549-.4866925c-.6525306-.5969933-1.8977276-1.3033493-2.0204448-1.1463396m-15.3787853 3.4071291c-.5650222.6510181-1.7101963 1.9236971-2.5449349 2.828238-.8346453.9045409-1.515754 1.6894956-1.5134252 1.7443646.0022474.0548689.5988362.5851753 1.3258004 1.1784168.7268708.5932415 2.0944115 1.8172419 3.0389792 2.7200007.9445678.9027589 1.7794933 1.6835866 1.8554211 1.7351729.1063736.0723145.2062098.0089103.4356742-.2766898.1637163-.2037186.735276-.9001326 1.2701327-1.5475866 1.2171793-1.4732086 3.372856-4.3790135 3.3625267-4.532459-.0186223-.2764084-5.7909084-5.0447572-6.096394-5.0361399-.0585568.0017-.5687579.5356642-1.1337802 1.1866823m-26.1469888-.3265876c-.0227876.0669683-.1110432.4593987-.1961234.8720885-.0850802.4126897-.2340406 1.1302071-.3309816 1.5944831-.2320794 1.1116362-.412046 2.0906488-.5429817 2.9544835-.0586503.3868967-.147186.9672885-.1967772 1.2896555-.2291843 1.490748-.2718645 1.8384391-.3715138 3.0248284-.0584635.696414-.1430767 1.5405521-.1879983 1.8758625-.045015.3353105-.1113234 1.9123481-.1474662 3.5044864l-.065748 2.8948311.4112988-.0660304c1.3101979-.2103779 3.5487134-1.0859368 5.5086402-2.1545219 3.5328367-1.9262294 7.3567766-4.8905612 11.9234639-9.2432189.6292761-.599807 1.1431195-1.1301134 1.1420937-1.1785106-.0048579-.2138483-3.2475254-1.9761274-5.0590521-2.749358-1.60485-.685065-4.3276036-1.5874486-5.4922965-1.8202432-.1284142-.0256993-.674758-.1381573-1.2140975-.2498649-1.1355546-.2353269-1.9568448-.3482538-3.455508-.4750622-.5907051-.0499917-1.2111089-.1144276-1.3787477-.1432221-.2048089-.0351724-.3183737-.0124744-.3462046.0693132m-4.8591914.0465214c-.64057648.0581517-2.30566439.403029-2.96688052.6145325l-.6320778.2021242-.17707144.6141574c-.74153334 2.5717138-1.31384019 5.8044815-1.31384019 7.4212874 0 .4741243.03978504 1.0146541.08834894 1.2012086.04856389.1865545.19659039.7872995.32883361 1.3350514.59107866 2.4467813 1.5765522 4.391019 2.77318529 5.4716096.45080371.4069684 1.25285515.8952554 1.47073894.8952554.05491456 0 .07163174-.2508028.04211984-.6331036-.02680354-.3481601.01877181-1.8571039.10133044-3.3531043.22806353-4.13215.31351731-4.9631571.94064532-9.1448299.03474186-.232138.16931989-.9496554.29904153-1.5944832.12962825-.6448277.25393315-1.2779313.27616047-1.4068969.02222732-.1289655.07798241-.4033104.12393133-.6096553s.10861502-.5334015.13924763-.7268967l.05575509-.3517243-.58799672.0157573c-.32332348.0087228-.75600912.0310455-.96147176.0497104m56.1744197 3.9910851c-.4482821.3063284-.666913.6484857-.7207069 1.127112-.1274802 1.1360224.8382876 2.0129881 1.9164995 1.7403315 1.3397098-.3387808 1.6216606-2.1532088.4424918-2.8471842-.5229024-.307829-1.2053186-.3161766-1.6382844-.0202593m-16.7162536 3.9884589c-.6420707.8624278-1.8083514 2.3386379-2.591631 3.2806023-.7832796.9418705-1.4242297 1.732359-1.4242297 1.7566514 0 .0242925.7468567.9842651 1.6595778 2.1333247.9128145 1.1490596 2.2892274 3.0060697 3.0585916 4.1266162.7694576 1.1205465 1.420027 2.0384061 1.4457098 2.0397246.0824653.0041215 1.5494685-2.3575895 2.0664872-3.3267539 1.0149855-1.9028749 2.4155869-5.2103958 2.4161473-5.7057173 0-.0945434-.4547262-.6432332-1.0107828-1.2193106s-1.7642704-1.8554157-2.6850232-2.8430573-1.6950667-1.7989522-1.7207496-1.802908c-.0256828-.0039228-.5720266.6984939-1.2140974 1.5608279m-16.0678322.3296829c-4.7151808 4.5978329-9.468092 8.2553897-13.5841624 10.4534316-1.6295056.8702126-3.9158378 1.7928556-5.1832621 2.0917743-1.3847248.3265877-1.3068358.2694677-1.1686155.8567065.4026134 1.7093797.9598841 3.6226657 1.470272 5.0482274l.5878099 1.6413798.5125359-.0288883c.9832322-.055338 3.1512366-.5578815 4.5658469-1.0582679 5.9409522-2.1016226 12.6771383-6.6340817 18.822339-12.6649797l1.6841399-1.6528225-1.2908657-1.2778376c-1.7992924-1.7810377-4.9437113-4.4720563-5.2159493-4.4639148-.0668687.002082-.6069553.4768628-1.2000886 1.0551912m8.222895 8.7085981c-5.7342755 5.5944786-11.4131694 9.6657569-16.9631823 12.161123-2.8070866 1.2621742-4.7019191 1.8695784-7.1086338 2.2787979-.3724477.0633103-.6770928.1315917-.6770928.1516634 0 .1783946.3264054.5958678.4919897.6291643 1.4683107.2950732 4.6746486.344127 6.9793791.1068304 2.2234793-.228949 3.0957616-.3314649 3.6877742-.4335118.3088477-.0531807.7927122-.1347807 1.0752233-.1813021s.755262-.1289656 1.0506612-.1830842c.2953993-.0542124.7654418-.1380635 1.0445908-.186367.279149-.0483034.7729131-.1517572 1.0973573-.2298869.3243508-.0781297 1.1571282-.275189 1.8505646-.4379201 1.119678-.2628084 2.7026743-.701854 3.3621159-.9325851.1284142-.0449269.674758-.2165683 1.2140975-.3814566 1.0915669-.3336222 4.2164669-1.5620308 5.3700462-2.111002 2.2225455-1.0576113 5.3645362-3.1448835 5.2368692-3.4790684-.2544935-.6661188-5.7815319-8.1662862-6.0790792-8.2491994-.0504317-.0140689-.7851475.6510181-1.6326809 1.4778046m20.2067837 1.2021465c-1.2669573.3024828-1.5928958 1.9768777-.5415808 2.7821855.3019367.2312939.4371685.2703118.937003.2703118.6532778 0 .9537202-.1597297 1.3215918-.7025105.2813904-.4152222.290356-1.2083369.0186784-1.6500087-.3421887-.5560057-1.0845626-.8553933-1.7356924-.6999781m-54.94864826 1.9210708c0 .0226041.24804944.6029022.55110684 1.2896555.69390337 1.5719728 1.81096639 3.6370161 2.75562757 5.0941861.74891132 1.1551562 2.29819305 3.2657829 2.35516225 3.2084753.0175577-.0175393-.0889093-.3470346-.2365623-.7321491-.83819413-2.1860365-1.50454683-4.4648343-2.09366426-7.1599798l-.12168991-.5566622-.54466278-.1242759c-.81820827-.1865545-1.34185783-.3805187-1.99139995-.7375891-.58612887-.3221794-.67391746-.3588525-.67391746-.2816608" fill="#fff" transform="translate(33 24)"/></g></svg>