<svg height="144" viewBox="0 0 144 144" width="144" xmlns="http://www.w3.org/2000/svg" xmlns:xlink="http://www.w3.org/1999/xlink"><linearGradient id="a" x1="50%" x2="50%" y1="0%" y2="99.768%"><stop offset="0" stop-color="#4985ff"/><stop offset="1" stop-color="#1d5cff"/></linearGradient><g fill="none" fill-rule="nonzero"><path d="m60.2208919 0h23.5582162c19.8216259 0 27.8429669 2.22781467 35.6651889 6.41118489 7.822222 4.18337021 13.961148 10.32229601 18.144518 18.14451821s6.411185 15.8435625 6.411185 35.6651888v23.5582162c0 19.8216259-2.227815 27.8429669-6.411185 35.6651889s-10.322296 13.961148-18.144518 18.144518-15.843563 6.411185-35.6651889 6.411185h-23.5582162c-19.8216263 0-27.8429666-2.227815-35.6651888-6.411185s-13.961148-10.322296-18.14451821-18.144518c-4.18337022-7.822222-6.41118489-15.843563-6.41118489-35.6651889v-23.5582162c0-19.8216263 2.22781467-27.8429666 6.41118489-35.6651888 4.18337021-7.8222222 10.32229601-13.961148 18.14451821-18.14451821 7.8222222-4.18337022 15.8435625-6.41118489 35.6651888-6.41118489z" fill="url(#a)"/><path d="m55.84625 38.763625c.202125-.48875.202125-1.0385 0-1.52725-.101875-.246125-.249125-.467875-.434625-.652875l-7.9975-7.9975c-.78125-.78125-2.046875-.78125-2.828125 0s-.78125 2.046875 0 2.828125l4.585875 4.585875h-26.34375l4.585875-4.586c.78125-.78125.78125-2.046875 0-2.828s-2.046875-.78125-2.828 0l-7.997625 7.9975c-.1855.185-.33275.40675-.434625.652875-.202125.48875-.202125 1.0385 0 1.52725.101875.246125.249125.467875.434625.652875l7.9975 7.9975c.390625.39075.902375.586 1.414125.586s1.0235-.19525 1.414-.586c.78125-.78125.78125-2.046875 0-2.828l-4.585875-4.586h26.34375l-4.586 4.586c-.78125.78125-.78125 2.046875 0 2.828.390625.39075.902375.586 1.414125.586s1.0235-.19525 1.414-.586l7.997625-7.9975c.1855-.185.33275-.40675.434625-.652875zm-43.84625-22.763625c4.421875 0 8-3.578125 8-8s-3.578125-8-8-8-8 3.578125-8 8 3.578125 8 8 8zm0-12c2.205625 0 4 1.794375 4 4s-1.794375 4-4 4-4-1.794375-4-4 1.794375-4 4-4zm6 44c-1.1055 0-2 .8945-2 2v12c0 1.1055.8945 2 2 2s2-.8945 2-2v-12c0-1.1055-.8945-2-2-2zm-.779125-20.9635c.564375.92875 1.77175 1.237625 2.708875.692.957-.55275 1.285125-1.775375.730375-2.732375-1.78125-3.082125-5.1015-4.996125-8.660125-4.996125h-2c-5.522875 0-10 4.477125-10 10v10c0 2.209125 1.790875 4 4 4v18c0 1.1055.8945 2 2 2s2-.8945 2-2v-20c0-1.104625-.895375-2-2-2h-2v-10c0-3.31375 2.68625-6 6-6h2.40875c2.05525 0 3.74475 1.280125 4.812125 3.0365zm42.779125-11.0365c4.421875 0 8-3.578125 8-8s-3.578125-8-8-8-8 3.578125-8 8 3.578125 8 8 8zm0-12c2.205625 0 4 1.794375 4 4s-1.794375 4-4 4-4-1.794375-4-4 1.794375-4 4-4zm-6 44c-1.1055 0-2 .8945-2 2v12c0 1.1055.8945 2 2 2s2-.8945 2-2v-12c0-1.1055-.8945-2-2-2zm8-28h-2c-3.558625 0-6.878875 1.914-8.660125 4.996125-.55475.957-.226625 2.179625.730375 2.732375.9375.551625 2.145375.2385 2.7095-.693 1.063375-1.756 2.750875-3.0355 4.80375-3.0355h2.4165c3.31375 0 6 2.68625 6 6v10h-2c-1.104625 0-2 .895375-2 2v20c0 1.1055.8945 2 2 2s2-.8945 2-2v-18c2.209125 0 4-1.790875 4-4v-10c0-5.522875-4.477125-10-10-10z" fill="#fff" transform="translate(36 40)"/></g></svg>