<svg height="144" viewBox="0 0 144 144" width="144" xmlns="http://www.w3.org/2000/svg" xmlns:xlink="http://www.w3.org/1999/xlink"><linearGradient id="a" x1="50%" x2="50%" y1="0%" y2="99.768%"><stop offset="0" stop-color="#4985ff"/><stop offset="1" stop-color="#1d5cff"/></linearGradient><g fill="none" fill-rule="nonzero"><path d="m60.2208919 0h23.5582162c19.8216259 0 27.8429669 2.22781467 35.6651889 6.41118489 7.822222 4.18337021 13.961148 10.32229601 18.144518 18.14451821s6.411185 15.8435625 6.411185 35.6651888v23.5582162c0 19.8216259-2.227815 27.8429669-6.411185 35.6651889s-10.322296 13.961148-18.144518 18.144518-15.843563 6.411185-35.6651889 6.411185h-23.5582162c-19.8216263 0-27.8429666-2.227815-35.6651888-6.411185s-13.961148-10.322296-18.14451821-18.144518c-4.18337022-7.822222-6.41118489-15.843563-6.41118489-35.6651889v-23.5582162c0-19.8216263 2.22781467-27.8429666 6.41118489-35.6651888 4.18337021-7.8222222 10.32229601-13.961148 18.14451821-18.14451821 7.8222222-4.18337022 15.8435625-6.41118489 35.6651888-6.41118489z" fill="url(#a)"/><path d="m40 88c6.0751875 0 11 4.9248125 11 11 0 1.1045-.895375 2-2 2h-24c-1.104625 0-2-.8955-2-2 0-6.0751875 4.9248125-11 11-11zm35.3928571 0c5.8582166 0 10.6071429 4.9248125 10.6071429 11 0 1.1045-.8633973 2-1.9285714 2h-23.1428572c-1.0651741 0-1.9285714-.8955-1.9285714-2 0-6.0751875 4.7489263-11 10.6071429-11zm34.9999999 0c5.858217 0 10.607143 4.9248125 10.607143 11 0 1.1045-.863397 2-1.928571 2h-23.1428576c-1.0651741 0-1.9285714-.8955-1.9285714-2 0-6.0751875 4.7489263-11 10.607143-11zm-70.392857 3h-6c-4.0725 0-7.4440625 3.0590625-7.937875 7h21.87575c-.4938125-3.9409375-3.865375-7-7.937875-7zm35.3928571 0h-5.7857142c-3.9270536 0-7.1782032 3.0590625-7.6543795 7h21.0944732c-.4761763-3.9409375-3.7273259-7-7.6543795-7zm34.9999999 0h-5.785714c-3.927054 0-7.1782033 3.0590625-7.6543796 7h21.0944736c-.476177-3.9409375-3.727326-7-7.65438-7zm-73.392857-22c4.4183125 0 8 3.5816875 8 8 0 4.4181875-3.5816875 8-8 8s-8-3.5818125-8-8c0-4.4183125 3.5816875-8 8-8zm35.5 0c1.4049189 0 2.7221146.3894627 3.8566741 1.06996l.0289235.017435c.1526758.0924929.3020114.1902699.4477736.2930891.0340661.0240329.0675706.0480738.1008813.0723811.0339452.0247688.0678867.0499634.1016213.0754348.0384009.0289957.0764348.0582721.1141975.0879007.0369774.0290093.0739936.0585996.1107414.0885284.0300385.0244666.0596541.0489552.0890909.0736638.022069.0185236.0441477.0372655.0661238.0561313.0417634.0358566.0828266.0718656.1235188.108308.0702192.0630155.1332667.1214982.1953686.1810264.0176335.016902.0353251.0340193.0529386.0512216.1138887.1112377.2243246.2258178.3313461.3437676.0190266.020969.0380061.042113.0568761.0633633.3150054.3547265.5995668.7391895.8492575 1.1487892.019177.0314582.0381592.0630832.0569334.0948545.0227615.0385193.0451997.0772225.0673293.116137.0228403.0401634.0453872.0806164.0676004.1212911.0147225.0269557.0294549.0543031.0440364.0817488.025322.0476582.0503073.0958466.0748272.1443279l.006768.0134128c.0382238.0759274.0753071.1525702.1112262.2299041.012151.0261609.0241807.0524273.036076.0787719.0272325.0603075.053851.1212393.0797491.1825727.0134752.0319138.0267262.0638645.0397815.0959219.0208231.0511333.0411115.102442.0608975.1540145.0120831.0314923.0240518.0632806.0358294.0951669.0619167.1676414.1185065.3378455.1696119.5105382.0070877.0239457.0141911.0483629.0211847.072829.0218033.0762784.0425207.1529588.0621551.2300954.0040267.0158174.0080743.0319216.0120747.0480455.1585485.6390484.2428718 1.3089949.2428718 1.9993675 0 4.4181875-3.4537701 8-7.7142857 8s-7.7142857-3.5818125-7.7142857-8c0-.6903726.0843233-1.3603191.2428718-1.9993675l.0120747-.0480455c.0504332-.1981346.108012-.3932591.1724332-.5850592.0135098-.0402182.0272377-.0800563.0412603-.1197471.0196591-.0556534.0400285-.1113636.0609766-.1667725.0130775-.0345945.0264929-.0693569.0401358-.1039979.0693119-.1759975.1445347-.3489448.2253816-.5184937.0105077-.0220343.0209912-.043767.031567-.065443.0330294-.067704.0671202-.1351615.1021036-.2020439.0126491-.0241843.0255099-.0484707.0384883-.0726798.0451261-.0841691.0915423-.1671789.1393394-.2492264.0125732-.021583.0252321-.0430826.0379858-.0645151.0377351-.0634186.0764409-.1264721.1159668-.1889173.0140823-.0222491.0283743-.0445845.0427713-.0668407.1056146-.1632635.2167963-.3221657.3333268-.4765164.0143615-.0190212.0286364-.0377551.0429902-.0564208.0485696-.0631686.098355-.1259401.149034-.187901.0119159-.0145672.0236544-.0288162.0354401-.0430219.0588692-.0709607.1190774-.1410172.1804399-.2099521.0165132-.0185526.0333371-.0372742.0502461-.0559117.1307672-.1441203.2663595-.2829502.406733-.4164606l.0116558-.0110633c.0192788-.0182615.0386474-.0364229.0581049-.0544833.0445925-.0413954.0899809-.0825521.1358339-.1231612.030239-.0267797.0605505-.05321.0910597-.0794015.0469572-.0403114.0943442-.0800254.1421888-.1191644.0186357-.0152459.037552-.0305741.0565388-.0458124 1.3040766-1.0466591 2.9405532-1.6695798 4.7173375-1.6695798zm35 0c4.260516 0 7.714286 3.5816875 7.714286 8 0 4.4181875-3.45377 8-7.714286 8s-7.7142857-3.5818125-7.7142857-8c0-4.4183125 3.4537697-8 7.7142857-8zm-70.5 3c-2.7569375 0-5 2.2429375-5 5 0 2.7569375 2.2430625 5 5 5s5-2.2430625 5-5c0-2.7570625-2.2430625-5-5-5zm35.5 0c-2.6584754 0-4.8214286 2.2429375-4.8214286 5 0 2.7569375 2.1629532 5 4.8214286 5s4.8214286-2.2430625 4.8214286-5c0-1.0249034-.2988958-1.9787605-.8110315-2.7727623-.0840117-.096857-.1577277-.201809-.2218571-.3129867-.881908-1.1654786-2.2525125-1.914251-3.78854-1.914251zm35 0c-2.658475 0-4.821429 2.2429375-4.821429 5 0 2.7569375 2.162954 5 4.821429 5s4.821429-2.2430625 4.821429-5c0-2.7570625-2.162954-5-4.821429-5zm-14.3335-10 .2885976.0037696c3.6171993.0945991 6.7930534 1.9622754 8.6903724 4.7661223-3.2214977 1.3468693-5.5880452 4.3310961-6.0594364 7.9124744l-.0366487.3175272-11.9973427.0005468c-.6052249-3.6902627-2.8572146-6.8234802-5.9699287-8.5547929 1.9176573-2.6224385 4.9862537-4.3509642 8.4627684-4.4418778l.2886181-.0037696zm-36 0c3.7808166 0 7.1091479 1.9365634 9.0472243 4.8718574-2.7465306 1.7923199-4.7072772 4.7232832-5.2657665 8.1285829l-12.9973427-.0005468c-.3695708-3.7219463-2.7798375-6.8435185-6.096085-8.2300016 1.8973192-2.8038469 5.073173-4.6715232 8.6903723-4.7661223l.2885976-.0037696zm-3.1665-19c4.4184375 0 8 3.5818125 8 8s-3.5815625 8-8 8c-4.418 0-8-3.5818125-8-8s3.582-8 8-8zm36 0c4.418 0 8 3.5818125 8 8s-3.582 8-8 8c-4.4184375 0-8-3.5818125-8-8s3.5815625-8 8-8z" fill="#fff"/></g></svg>