<svg height="144" viewBox="0 0 144 144" width="144" xmlns="http://www.w3.org/2000/svg" xmlns:xlink="http://www.w3.org/1999/xlink"><linearGradient id="a" x1="50%" x2="50%" y1="0%" y2="99.768%"><stop offset="0" stop-color="#4985ff"/><stop offset="1" stop-color="#1d5cff"/></linearGradient><g fill="none" fill-rule="nonzero"><path d="m60.2208919 0h23.5582162c19.8216259 0 27.8429669 2.22781467 35.6651889 6.41118489 7.822222 4.18337021 13.961148 10.32229601 18.144518 18.14451821s6.411185 15.8435625 6.411185 35.6651888v23.5582162c0 19.8216259-2.227815 27.8429669-6.411185 35.6651889s-10.322296 13.961148-18.144518 18.144518-15.843563 6.411185-35.6651889 6.411185h-23.5582162c-19.8216263 0-27.8429666-2.227815-35.6651888-6.411185s-13.961148-10.322296-18.14451821-18.144518c-4.18337022-7.822222-6.41118489-15.843563-6.41118489-35.6651889v-23.5582162c0-19.8216263 2.22781467-27.8429666 6.41118489-35.6651888 4.18337021-7.8222222 10.32229601-13.961148 18.14451821-18.14451821 7.8222222-4.18337022 15.8435625-6.41118489 35.6651888-6.41118489z" fill="url(#a)"/><path d="m20 40c6.6275 0 12-5.37275 12-12 0-6.6275-5.3725-12-12-12-6.62725 0-12 5.3725-12 12 0 6.62725 5.37275 12 12 12zm0-20c4.411125 0 8 3.588875 8 8s-3.588875 8-8 8-8-3.588875-8-8 3.588875-8 8-8zm54-20h-48c-3.308625 0-6 2.691375-6 6v4c0 1.1055.8945 2 2 2s2-.8945 2-2v-4c0-1.1015.8965-2 2-2h48c1.1035 0 2 .8985 2 2v40c0 1.1015-.8965 2-2 2h-30c-1.1055 0-2 .8945-2 2s.8945 2 2 2h30c3.308625 0 6-2.691375 6-6v-40c0-3.308625-2.691375-6-6-6zm-50 44h-8c-8.836625 0-16 7.163375-16 16 0 2.209 1.79075 4 4 4h32c2.20925 0 4-1.791 4-4 0-8.836625-7.163375-16-16-16zm-20 16c0-6.617 5.38325-12 12-12h8c6.617 0 12 5.383 12 12zm35.414-39.414c-.78125-.78125-2.046875-.78125-2.828 0s-.78125 2.046875 0 2.828l10 10c.3905.39075.90225.586 1.414.586s1.0235-.19525 1.414-.586l12.586-12.585875v7.171875c0 1.1055.8945 2 2 2s2-.8945 2-2v-12c0-1.1055-.8945-2-2-2h-12c-1.1055 0-2 .8945-2 2s.8945 2 2 2h7.171875l-11.171875 11.171875z" fill="#fff" transform="translate(32 40)"/></g></svg>