<svg height="144" viewBox="0 0 144 144" width="144" xmlns="http://www.w3.org/2000/svg" xmlns:xlink="http://www.w3.org/1999/xlink"><linearGradient id="a" x1="50%" x2="50%" y1="0%" y2="99.768%"><stop offset="0" stop-color="#4985ff"/><stop offset="1" stop-color="#1d5cff"/></linearGradient><g fill="none" fill-rule="nonzero"><path d="m60.2208919 0h23.5582162c19.8216259 0 27.8429669 2.22781467 35.6651889 6.41118489 7.822222 4.18337021 13.961148 10.32229601 18.144518 18.14451821s6.411185 15.8435625 6.411185 35.6651888v23.5582162c0 19.8216259-2.227815 27.8429669-6.411185 35.6651889s-10.322296 13.961148-18.144518 18.144518-15.843563 6.411185-35.6651889 6.411185h-23.5582162c-19.8216263 0-27.8429666-2.227815-35.6651888-6.411185s-13.961148-10.322296-18.14451821-18.144518c-4.18337022-7.822222-6.41118489-15.843563-6.41118489-35.6651889v-23.5582162c0-19.8216263 2.22781467-27.8429666 6.41118489-35.6651888 4.18337021-7.8222222 10.32229601-13.961148 18.14451821-18.14451821 7.8222222-4.18337022 15.8435625-6.41118489 35.6651888-6.41118489z" fill="url(#a)"/><path d="m40.890625 27.3555358c-.332-.5429995-.902375-.8944991-1.535125-.9492491-.640625-.035125-1.255875.1952498-1.675875.6718744l-4.82225 5.4999946c-2.888625-3.6836214-8.775375-11.1874891-9.3945-11.8944884-.38675-.4413746-1.025375-.7891242-1.52925-.6836243-.584.00775-1.13675.2694997-1.51175.7187493-5.087875 6.093744-8.421875 10.4726147-8.421875 15.5819848 0 1.1054989.8945 1.999998 2 1.999998s2-.8944991 2-1.999998c0-3.089747 1.84575-6.0976191 5.9375-11.1327392 2.19525 2.7656223 6.306625 8.0038672 9.25975 11.7772385.36725.4687496.923875.7499993 1.517625.7656243.650375.0234999 1.167875-.2303748 1.5605-.6796244l4.541-5.1836199c2.40825 4.9766201 1.068375 10.8828644-3.201125 13.8749864-.904375.6328744-1.123125 1.8788732-.49025 2.7851223.390625.5547495 1.00975.8516242 1.640625.8516242.3965 0 .796875-.1172499 1.1465-.3632496 6.00975-4.2109959 7.847625-12.5273628 4.2715-19.3554811-.38875-.7343743-.820375-1.5078736-1.293-2.2851228zm.025375-20.81247969c-.7695-.7187493-1.964875-.7187493-2.734375 0-1.753875 1.64449839-3.44725 3.40624667-5.054625 5.25774489-2.9825-3.87499624-6.49225-7.73049247-10.259875-11.26173903-.7695-.7187493-1.96475-.7187493-2.734375 0-11.666 10.92586433-20.13275 25.41797523-20.13275 34.46484133 0 15.9883594 12.5605 28.9960967 28 28.9960967s28-13.0077373 28-28.9960967c0-6.7773684-6.19525-20.1327303-15.084-28.46084719zm-12.916 53.45694779c-13.234375 0-24-11.214864-24-24.9961006 0-7.5741176 7.431625-20.3241051 17.502-30.23434546 3.71675 3.62499646 7.119125 7.54686766 9.910125 11.42186386.36525.5078745.943375.8124992 1.566375.8321242.74025.0272499 1.22075-.2578748 1.611375-.7422493 1.556625-1.9257481 3.212875-3.7617463 4.943375-5.4843696 7.119125 7.3906177 12.46675 18.7226067 12.46675 24.2069763 0 13.7812366-10.765625 24.9961006-24 24.9961006z" fill="#fff" transform="translate(44 40)"/></g></svg>