<svg height="144" viewBox="0 0 144 144" width="144" xmlns="http://www.w3.org/2000/svg" xmlns:xlink="http://www.w3.org/1999/xlink"><linearGradient id="a" x1="50%" x2="50%" y1="0%" y2="99.768%"><stop offset="0" stop-color="#4985ff"/><stop offset="1" stop-color="#1d5cff"/></linearGradient><g fill="none" fill-rule="nonzero"><path d="m60.2208919 0h23.5582162c19.8216259 0 27.8429669 2.22781467 35.6651889 6.41118489 7.822222 4.18337021 13.961148 10.32229601 18.144518 18.14451821s6.411185 15.8435625 6.411185 35.6651888v23.5582162c0 19.8216259-2.227815 27.8429669-6.411185 35.6651889s-10.322296 13.961148-18.144518 18.144518-15.843563 6.411185-35.6651889 6.411185h-23.5582162c-19.8216263 0-27.8429666-2.227815-35.6651888-6.411185s-13.961148-10.322296-18.14451821-18.144518c-4.18337022-7.822222-6.41118489-15.843563-6.41118489-35.6651889v-23.5582162c0-19.8216263 2.22781467-27.8429666 6.41118489-35.6651888 4.18337021-7.8222222 10.32229601-13.961148 18.14451821-18.14451821 7.8222222-4.18337022 15.8435625-6.41118489 35.6651888-6.41118489z" fill="url(#a)"/><g fill="#fff" transform="translate(32 20)"><path d="m39.982375 40c7.17675 0 12.994375-5.8205 12.994375-13 0-7.17975-5.817625-13-12.994375-13-7.176 0-12.994375 5.82025-12.994375 13 0 7.1795 5.818375 13 12.994375 13zm0-22c4.9595 0 8.994375 4.037375 8.994375 9s-4.034875 9-8.994375 9-8.994375-4.037375-8.994375-9 4.035-9 8.994375-9zm6.2535 26h-12.47175c-9.81025 0-17.764125 7.461625-17.764125 16.6665 0 1.840875 1.590875 3.3335 3.55275 3.3335h40.8945c1.961875 0 3.55275-1.492625 3.55275-3.3335 0-9.204875-7.952875-16.6665-17.764125-16.6665zm-26.217125 16c.37775-6.676 6.3985-12 13.745375-12h12.47175c7.346875 0 13.367625 5.324 13.745375 12zm43.98125-40c5.523 0 10-4.47725 10-10s-4.477-10-10-10c-5.5225 0-10 4.47725-10 10s4.4775 10 10 10zm0-16c3.308375 0 6 2.691625 6 6s-2.691625 6-6 6-6-2.691625-6-6 2.691625-6 6-6zm-48 16c5.523 0 10-4.47725 10-10s-4.477-10-10-10c-5.5225 0-10 4.47725-10 10s4.4775 10 10 10zm0-16c3.308375 0 6 2.691625 6 6s-2.691625 6-6 6-6-2.691625-6-6 2.691625-6 6-6zm54.13475 20h-8.13475c-1.3945 0-2.75975.3125-4.058625.92975-.998.4745-1.42375 1.667875-.949125 2.664s1.671875 1.423875 2.664.94925c.75975-.359375 1.546875-.543 2.34375-.543h8.13475c3.234375 0 5.86525 2.84175 5.86525 6.334v1.666c0 1.1055.8945 2 2 2s2-.8945 2-2v-1.666c0-5.69725-4.42575-10.334-9.86525-10.334zm-49.791 4.543c.99225.474625 2.191375.046875 2.664-.94925.474625-.996125.048875-2.1895-.949125-2.664-1.298875-.61725-2.664125-.92975-4.058625-.92975h-8.13475c-5.4395 0-9.86525 4.63675-9.86525 10.334v1.666c0 1.1055.8945 2 2 2s2-.8945 2-2v-1.666c0-3.49225 2.630875-6.334 5.86525-6.334h8.13475c.796875 0 1.584.183625 2.34375.543z" transform="translate(0 28)"/><path d="m12 0c-6.62745 0-12 5.37255-12 12s5.37255 12 12 12 12-5.37255 12-12-5.37255-12-12-12zm5.8258 13.024-7.2 4.4c-.1918.1172-.4086.1762-.6258.1762-.68465 0-1.2-.55985-1.2-1.2v-8.8c0-.6345.50985-1.1996 1.2003-1.1996.2172 0 .4339.0588.6255.17575l7.2 4.4c.3566.218.5742.6059.5742 1.02385s-.2176.80585-.5742 1.0238z" transform="translate(28)"/></g></g></svg>