<svg height="144" viewBox="0 0 144 144" width="144" xmlns="http://www.w3.org/2000/svg" xmlns:xlink="http://www.w3.org/1999/xlink"><linearGradient id="a" x1="50%" x2="50%" y1="0%" y2="99.767737%"><stop offset="0" stop-color="#4985ff"/><stop offset="1" stop-color="#1d5cff"/></linearGradient><g fill="none" fill-rule="nonzero"><path d="m60.2208919 0h23.5582162c19.8216259 0 27.8429669 2.22781467 35.6651889 6.41118489 7.822222 4.18337021 13.961148 10.32229601 18.144518 18.14451821s6.411185 15.8435625 6.411185 35.6651888v23.5582162c0 19.8216259-2.227815 27.8429669-6.411185 35.6651889s-10.322296 13.961148-18.144518 18.144518-15.843563 6.411185-35.6651889 6.411185h-23.5582162c-19.8216263 0-27.8429666-2.227815-35.6651888-6.411185s-13.961148-10.322296-18.14451821-18.144518c-4.18337022-7.822222-6.41118489-15.843563-6.41118489-35.6651889v-23.5582162c0-19.8216263 2.22781467-27.8429666 6.41118489-35.6651888 4.18337021-7.8222222 10.32229601-13.961148 18.14451821-18.14451821 7.8222222-4.18337022 15.8435625-6.41118489 35.6651888-6.41118489z" fill="url(#a)"/><g fill="#fff" transform="translate(32 32)"><path d="m36.8188652 7.72380535c-.2098342-.01139851-21.0027386-.76194652-26.7832767 17.24594475-.28709536.8952214.2063224 1.853573 1.1027272 2.1402894.1729596.0552389.3476751.0815431.5206347.0815431.7208114 0 1.3907006-.4603244 1.622484-1.1828145 4.9736859-15.4923279 22.6076632-14.9188952 23.3793967-14.8846997.9508388.0385796 1.7374977-.682157 1.7805181-1.62209558.0447763-.93818501-.6821808-1.73432705-1.622484-1.77816747z"/><path d="m79.8032763 29.6992547c-.3388954-2.4568172-1.0711203-4.9943007-1.8261724-7.1459886.0403865-.2183253.0395086-.4480491-.0122915-.6786497-.0869188-.3857957-.3011429-.7067076-.5838484-.9390618-.5970179-1.5458133-1.1413578-2.7601929-1.433721-3.3862341-.1975426-.4243753-.5610212-.7479176-1.0061507-.8960982l-1.7067688-.5681719c-3.9508538-8.52783865-19.6462789-13.23279262-19.7814859-13.27137219-6.1264573-1.86672512-12.1572161-2.81367821-17.9237066-2.81367821-9.2792386 0-17.4065838 2.43051293-24.15552 7.22490136-8.38458968 5.95265234-10.07116526 15.60280574-10.61023731 22.34458574-.0324848.4015782-.10096626.9916703-.18173927 1.7027619-.83758101 7.2880316-.95698459 11.9000439.90694043 13.9070583 2.60492959 2.8014029 4.49080379 11.2976765 4.99739104 14.334064.08779675.5287155.42054643.9846559.89640482 1.231039l13.03079369 6.7470408c.2423191.1253836.5109771.1911443.784025.1911443.0140475 0 .028095 0 .0412645-.0008769.7989504-.0192897 1.5294194-.086804 2.1975526-.2007891 2.2783257 3.3809733 6.2607863 6.7707146 9.4662457 8.9530908 3.1264423 2.1262604 7.105391 3.5659798 11.0694143 3.5659798 3.1949238 0 6.3801899-.9346778 9.1010112-3.1977203 4.781411-3.9807102 5.2019574-11.3038141 3.1931678-17.2135028l.9885914-.24726c1.2862224 2.8285839 5.4688596 7.8369136 18.9702439 7.8369136.6856926 0 1.3986022-.0122753 2.133461-.0394564.9165981-.0333187 1.6418292-.7847435 1.6418292-1.7001315v-34.9583516c.001726-.2840859-.0737792-.5471284-.1966947-.7812363zm-28.9123479 44.4866287c-4.7331228 3.9395002-11.482059 2.5541429-16.0685613-.5655414-2.6137092-1.7790443-6.0351486-4.622534-8.1097858-7.4055239.3687463-.270057.6979841-.5716791.9754219-.9180185 1.7761282-2.2156948 1.1720866-5.2485751.5882382-8.1832529-.3108005-1.5615958-.6321366-3.1758001-.5803365-4.5778168.0280949-.7400263.1562782-1.3581762.3898176-1.8868917.918354-2.0701446 3.2555035-3.3064445 6.2511286-3.3064445 2.8349571 0 5.5689479 1.1153003 6.9631603 2.8408593.1185256.1473038 8.158952 10.0876808 8.158952 10.0876808.4170346.5155634 1.0939475.7417799 1.7383757.5822008l1.7497892-.4366506c1.6856976 4.7242438 1.5557584 10.7645769-2.0561999 13.7693994zm2.7120416-17.4414731c-.0008779 0-.0008779 0-.0017559 0l-2.1747255.5418676c-1.944698-2.4042086-7.3749271-9.1179307-7.4732594-9.2389302-2.0474202-2.5348532-5.7322499-4.1096011-9.6163781-4.1096011-4.3854477 0-7.8876601 1.9921087-9.3687913 5.3327488-.4126447.9311705-.6347705 1.9579132-.6786688 3.1380973-.0676035 1.8000877.2932411 3.6142043.6435501 5.368698.4319601 2.169224.8779676 4.4129767.0930646 5.3914949-.1949088.242876-.4934177.4462955-.8867472.6111355-.2572445.0096449-.5171228.0701447-.7585639.2007891-.0342407.018413-.0614577.0438404-.0939425.064007-.487272.1096011-1.0561949.1823762-1.704135.2156949l-11.88416811-6.150811c-.54170595-2.9136344-2.40299706-11.6887331-5.71117862-15.2459448-.53029237-.5699255-.96400832-2.9776414-.01931529-11.2029812.08691879-.7619465.15891212-1.3906181.19315286-1.821131.77085547-9.6326173 3.69097539-15.9377466 9.18880786-19.84217453 6.160698-4.375274 13.6225439-6.5944761 22.1800931-6.5944761 5.4302291 0 11.1256043.89697501 16.9289695 2.66549759 4.2309254 1.2924156 15.6936691 5.96054364 17.9017574 11.97018854.1782274.4866286.568923.8645331 1.0605848 1.0284962l1.7374977.5786936c.2019325.45331.4003531.9311705.5987738 1.4169224l-23.5365529 5.2170101c-.919232.2034195-1.4995685 1.1126699-1.2950021 2.0306883.1764715.7926348.8806014 1.3336256 1.6628705 1.3336256.1220375 0 .2458309-.014029.3705023-.04121l23.9808044-5.3143358c.1738376.5269618.3345056 1.0574309.4890279 1.5870232l-20.0562897 4.0973257c-.9227438.1885138-1.5171278 1.0881193-1.3283648 2.0087681.1650579.8066638.8753336 1.3616835 1.6672603 1.3616835.1132578 0 .2282715-.0113985.3432853-.0350723l20.1774492-4.1227532c.0746272.3989478.1387189.7882507.1922749 1.1687856l-16.5856842 4.1543183c-.9130862.228847-1.4679616 1.1530031-1.2388121 2.0648838.1940308.7724682.8893811 1.2889084 1.6523348 1.2889084.136963 0 .2765598-.0166594.4161566-.0517317l15.8227304-3.9631741c-.1281833.7426568-.3731362 1.3388865-.7708555 1.7281894l-14.3890094 4.8820693c-1.9122132.6953091-5.4548121 3.4160456-5.188788 8.768961l.4477635 6.7715914zm22.6059074 7.0311267c-14.7393185 0-16.0738291-6.3437089-16.1273851-6.6514686l-.5355602-8.0929417c-.2001766-4.0271811 2.6444381-5.2529592 2.917486-5.3608067l14.1291311-4.7943884v24.8978518c-.1299392.0008768-.2554886.0017536-.3836718.0017536z"/></g></g></svg>