<svg height="144" viewBox="0 0 144 144" width="144" xmlns="http://www.w3.org/2000/svg" xmlns:xlink="http://www.w3.org/1999/xlink"><linearGradient id="a" x1="50%" x2="50%" y1="0%" y2="99.768%"><stop offset="0" stop-color="#4985ff"/><stop offset="1" stop-color="#1d5cff"/></linearGradient><g fill="none" fill-rule="nonzero"><path d="m60.2208919 0h23.5582162c19.8216259 0 27.8429669 2.22781467 35.6651889 6.41118489 7.822222 4.18337021 13.961148 10.32229601 18.144518 18.14451821s6.411185 15.8435625 6.411185 35.6651888v23.5582162c0 19.8216259-2.227815 27.8429669-6.411185 35.6651889s-10.322296 13.961148-18.144518 18.144518-15.843563 6.411185-35.6651889 6.411185h-23.5582162c-19.8216263 0-27.8429666-2.227815-35.6651888-6.411185s-13.961148-10.322296-18.14451821-18.144518c-4.18337022-7.822222-6.41118489-15.843563-6.41118489-35.6651889v-23.5582162c0-19.8216263 2.22781467-27.8429666 6.41118489-35.6651888 4.18337021-7.8222222 10.32229601-13.961148 18.14451821-18.14451821 7.8222222-4.18337022 15.8435625-6.41118489 35.6651888-6.41118489z" fill="url(#a)"/><path d="m66.001682 60h-24.0014949v-44.28125c3.4374993-.890625 6.0002487-4 6.0002487-7.71875h18.0012462c1.1001248 0 2.0002496-.900125 2.0002496-2 0-1.100125-.9001248-2-2.0002496-2h-19.1418709c-.015625-.03125-.5468749-1.390625-2.3908745-2.640625-1.2656248-.859375-2.8127494-1.359375-4.4689991-1.359375s-3.2033743.5-4.4689991 1.359375c-1.8439996 1.25-2.3752495 2.609375-2.3908745 2.640625h-19.1418709c-1.0999998 0-2.0002496.899875-2.0002496 2 0 1.099875.9002498 2 2.0002496 2h18.0012462c0 3.71875 2.5627494 6.828125 6.0002487 7.71875v44.28125h-24.0014949c-1.0999998 0-2.0002496.899875-2.0002496 2 0 1.099875.9002498 2 2.0002496 2h52.003489c1.1001248 0 2.0002496-.900125 2.0002496-2 0-1.100125-.9001248-2-2.0002496-2zm-30.0019937-52c0-2.203125 1.7968747-4 4.0002492-4s4.0002492 1.796875 4.0002492 4-1.7968747 4-4.0002492 4-4.0002492-1.796875-4.0002492-4zm43.2998659 26.890625-13.6259971-22c-.4062499-.59375-1.0312498-.890625-1.6718746-.890625-.6408749 0-1.2658748.296875-1.6721247.890625l-13.6259971 22c-.4843749.71875-.7656249 1.578125-.6874999 2.453125.6718749 8.203125 7.5786234 14.65625 15.9856217 14.65625 8.4067482 0 15.3134967-6.453125 15.9853716-14.65625.078125-.875-.203125-1.734375-.6874999-2.453125zm-15.2978717 13.109375c-5.2036239 0-9.688248-3.390625-11.3447477-8h22.6423703c-1.6721247 4.65625-6.1411237 8-11.2976226 8zm-11.2819977-12 11.2819977-18.21875 11.3757476 18.21875zm-20.7358706 1.34375c.078125-.875-.203125-1.734375-.6874999-2.453125l-13.6259971-22c-.4062499-.59375-1.0312498-.890625-1.6721247-.890625-.6406248 0-1.2656247.296875-1.6718746.890625l-13.62587215 22c-.4843749.71875-.76562484 1.578125-.68749985 2.453125.67187485 8.203125 7.5784984 14.65625 15.9852466 14.65625 8.4069983 0 15.3137468-6.453125 15.9856217-14.65625zm-15.9856217-19.5625 11.3759977 18.21875h-22.65787029zm-11.34437258 22.21875h22.64224528c-1.6721247 4.65625-6.1411237 8-11.2978727 8-5.2033739 0-9.68799793-3.390625-11.34437258-8z" fill="#fff" transform="translate(32 40)"/></g></svg>