<svg height="144" viewBox="0 0 144 144" width="144" xmlns="http://www.w3.org/2000/svg" xmlns:xlink="http://www.w3.org/1999/xlink"><linearGradient id="a" x1="50%" x2="50%" y1="0%" y2="99.767737%"><stop offset="0" stop-color="#4985ff"/><stop offset="1" stop-color="#1d5cff"/></linearGradient><g fill="none" fill-rule="nonzero"><path d="m60.2208919 0h23.5582162c19.8216259 0 27.8429669 2.22781467 35.6651889 6.41118489 7.822222 4.18337021 13.961148 10.32229601 18.144518 18.14451821s6.411185 15.8435625 6.411185 35.6651888v23.5582162c0 19.8216259-2.227815 27.8429669-6.411185 35.6651889s-10.322296 13.961148-18.144518 18.144518-15.843563 6.411185-35.6651889 6.411185h-23.5582162c-19.8216263 0-27.8429666-2.227815-35.6651888-6.411185s-13.961148-10.322296-18.14451821-18.144518c-4.18337022-7.822222-6.41118489-15.843563-6.41118489-35.6651889v-23.5582162c0-19.8216263 2.22781467-27.8429666 6.41118489-35.6651888 4.18337021-7.8222222 10.32229601-13.961148 18.14451821-18.14451821 7.8222222-4.18337022 15.8435625-6.41118489 35.6651888-6.41118489z" fill="url(#a)"/><g fill="#fff"><path d="m19.9911875 20.625c3.588375 0 6.4971875-3.0011953 6.4971875-6.703125 0-3.7020586-2.9088125-6.703125-6.4971875-6.703125-3.588 0-6.4971875 3.0010664-6.4971875 6.703125 0 3.7019297 2.9091875 6.703125 6.4971875 6.703125zm0-10.3125c1.928375 0 3.4971875 1.619127 3.4971875 3.609375s-1.5688125 3.609375-3.4971875 3.609375-3.4971875-1.619127-3.4971875-3.609375 1.568875-3.609375 3.4971875-3.609375zm12.0088125 0c2.7615 0 5-2.30858203 5-5.15625s-2.2385-5.15625-5-5.15625c-2.76125 0-5 2.30858203-5 5.15625s2.23875 5.15625 5 5.15625zm-8.8820625 12.375h-6.235875c-4.905125 0-8.8820625 3.8474004-8.8820625 8.5936641 0 .9492011.7954375 1.7188359 1.776375 1.7188359h20.44725c.9809375 0 1.776375-.7696348 1.776375-1.7188359 0-4.7462637-3.9764375-8.5936641-8.8820625-8.5936641zm-11.931875 7.21875c.654625-2.3695547 2.9601875-4.125 5.696-4.125h6.235875c2.7358125 0 5.041375 1.7554453 5.696 4.125zm23.3089375-17.53125h-3.865c-.8000625 0-1.5553125.1957441-2.2411875.5310938.0383125.3374121.0995625.6679921.0995625 1.0157812 0 2.1730371-.7988125 4.1385996-2.07275 5.671875h12.4834375c.608 0 1.1009375-.5387637 1.1009375-1.2032109 0-3.3223653-2.464625-6.0155391-5.505-6.0155391zm-23.000875 1.546875c0-.3512051.0614375-.6850723.100625-1.0255781-.6814375-.3300645-1.4314375-.5212969-2.22475-.5212969h-3.865c-3.040125 0-5.505 2.6931738-5.505 6.0155391 0 .6644472.4929375 1.2032109 1.1009375 1.2032109h12.4659375c-1.273875-1.5332754-2.07275-3.4988379-2.07275-5.671875zm-3.494125-3.609375c2.7615 0 5-2.30858203 5-5.15625s-2.2385-5.15625-5-5.15625c-2.76125 0-5 2.30858203-5 5.15625s2.23875 5.15625 5 5.15625z" transform="translate(52 93)"/><path d="m2 26h20v20c0 1.1055.8945 2 2 2s2-.8945 2-2v-20h20c1.1055 0 2-.8945 2-2s-.8945-2-2-2h-20v-20c0-1.1055-.8945-2-2-2s-2 .8945-2 2v20h-20c-1.1055 0-2 .8945-2 2s.8945 2 2 2zm44 34h-44c-1.1055 0-2 .8945-2 2s.8945 2 2 2h44c1.1055 0 2-.8945 2-2s-.8945-2-2-2z" transform="translate(48 18)"/></g></g></svg>