<svg height="144" viewBox="0 0 144 144" width="144" xmlns="http://www.w3.org/2000/svg" xmlns:xlink="http://www.w3.org/1999/xlink"><linearGradient id="a" x1="50%" x2="50%" y1="0%" y2="99.768%"><stop offset="0" stop-color="#4985ff"/><stop offset="1" stop-color="#1d5cff"/></linearGradient><g fill="none" fill-rule="nonzero"><path d="m60.2208919 0h23.5582162c19.8216259 0 27.8429669 2.22781467 35.6651889 6.41118489 7.822222 4.18337021 13.961148 10.32229601 18.144518 18.14451821s6.411185 15.8435625 6.411185 35.6651888v23.5582162c0 19.8216259-2.227815 27.8429669-6.411185 35.6651889s-10.322296 13.961148-18.144518 18.144518-15.843563 6.411185-35.6651889 6.411185h-23.5582162c-19.8216263 0-27.8429666-2.227815-35.6651888-6.411185s-13.961148-10.322296-18.14451821-18.144518c-4.18337022-7.822222-6.41118489-15.843563-6.41118489-35.6651889v-23.5582162c0-19.8216263 2.22781467-27.8429666 6.41118489-35.6651888 4.18337021-7.8222222 10.32229601-13.961148 18.14451821-18.14451821 7.8222222-4.18337022 15.8435625-6.41118489 35.6651888-6.41118489z" fill="url(#a)"/><path d="m36 31c1.65625 0 3-1.34375 3-3s-1.34375-3-3-3-3 1.34375-3 3 1.34375 3 3 3zm12 8c1.65625 0 3-1.34375 3-3s-1.34375-3-3-3-3 1.34375-3 3 1.34375 3 3 3zm4-24c1.65625 0 3-1.34375 3-3s-1.34375-3-3-3-3 1.34375-3 3 1.34375 3 3 3zm-32 24c1.65625 0 3-1.34375 3-3s-1.34375-3-3-3-3 1.34375-3 3 1.34375 3 3 3zm4-20c1.65625 0 3-1.34375 3-3s-1.34375-3-3-3-3 1.34375-3 3 1.34375 3 3 3zm38 33h-52c-3.308625 0-6-2.691375-6-6v-44c0-1.1055-.8945-2-2-2s-2 .8945-2 2v44c0 5.515625 4.484375 10 10 10h52c1.1055 0 2-.8945 2-2s-.8945-2-2-2z" fill="#fff" transform="translate(40 44)"/></g></svg>