<svg height="144" viewBox="0 0 144 144" width="144" xmlns="http://www.w3.org/2000/svg" xmlns:xlink="http://www.w3.org/1999/xlink"><linearGradient id="a" x1="50%" x2="50%" y1="0%" y2="99.768%"><stop offset="0" stop-color="#4985ff"/><stop offset="1" stop-color="#1d5cff"/></linearGradient><g fill="none" fill-rule="nonzero"><path d="m60.2208919 0h23.5582162c19.8216259 0 27.8429669 2.22781467 35.6651889 6.41118489 7.822222 4.18337021 13.961148 10.32229601 18.144518 18.14451821s6.411185 15.8435625 6.411185 35.6651888v23.5582162c0 19.8216259-2.227815 27.8429669-6.411185 35.6651889s-10.322296 13.961148-18.144518 18.144518-15.843563 6.411185-35.6651889 6.411185h-23.5582162c-19.8216263 0-27.8429666-2.227815-35.6651888-6.411185s-13.961148-10.322296-18.14451821-18.144518c-4.18337022-7.822222-6.41118489-15.843563-6.41118489-35.6651889v-23.5582162c0-19.8216263 2.22781467-27.8429666 6.41118489-35.6651888 4.18337021-7.8222222 10.32229601-13.961148 18.14451821-18.14451821 7.8222222-4.18337022 15.8435625-6.41118489 35.6651888-6.41118489z" fill="url(#a)"/><g fill="#fff"><path d="m16 0c-7.9511875 0-16 2.0605625-16 6v10c0 3.9394375 8.0488125 6 16 6s16-2.0605625 16-6v-10c0-3.9394375-8.0488125-6-16-6zm0 2c8.545875 0 14 2.369125 14 4s-5.454125 4-14 4-14-2.369125-14-4 5.454125-4 14-4zm0 18c-8.545875 0-14-2.369125-14-4v-6.943875c2.8788125 1.9401875 8.45875 2.943875 14 2.943875s11.1211875-1.0036875 14-2.943875v6.943875c0 1.630875-5.454125 4-14 4z" stroke="#fff" transform="translate(56 85)"/><path d="m96 38c5.42924 0 9.847932 4.3266708 9.996158 9.7200952l.003842.2799048v46c0 1.1045695-.895431 2-2 2s-2-.8954305-2-2v-46c0-3.2383969-2.5655749-5.8775718-5.7750617-5.9958615l-.2249383-.0041385h-48c-3.2383969 0-5.8775718 2.5655749-5.9958615 5.7750617l-.0041385.2249383v46c0 1.1045695-.8954305 2-2 2s-2-.8954305-2-2v-46c0-5.4292399 4.3266708-9.8479317 9.7200952-9.9961582l.2799048-.0038418z"/></g></g></svg>