<svg height="144" viewBox="0 0 144 144" width="144" xmlns="http://www.w3.org/2000/svg" xmlns:xlink="http://www.w3.org/1999/xlink"><linearGradient id="a" x1="50%" x2="50%" y1="0%" y2="99.768%"><stop offset="0" stop-color="#4985ff"/><stop offset="1" stop-color="#1d5cff"/></linearGradient><g fill="none" fill-rule="nonzero"><path d="m60.2208919 0h23.5582162c19.8216259 0 27.8429669 2.22781467 35.6651889 6.41118489 7.822222 4.18337021 13.961148 10.32229601 18.144518 18.14451821s6.411185 15.8435625 6.411185 35.6651888v23.5582162c0 19.8216259-2.227815 27.8429669-6.411185 35.6651889s-10.322296 13.961148-18.144518 18.144518-15.843563 6.411185-35.6651889 6.411185h-23.5582162c-19.8216263 0-27.8429666-2.227815-35.6651888-6.411185s-13.961148-10.322296-18.14451821-18.144518c-4.18337022-7.822222-6.41118489-15.843563-6.41118489-35.6651889v-23.5582162c0-19.8216263 2.22781467-27.8429666 6.41118489-35.6651888 4.18337021-7.8222222 10.32229601-13.961148 18.14451821-18.14451821 7.8222222-4.18337022 15.8435625-6.41118489 35.6651888-6.41118489z" fill="url(#a)"/><path d="m54 1.99968462c-5.52275 0-10 4.47702278-10 10.00005088 0 4.8378996 3.43575 8.8716701 8 9.7984248v22.201738c0 3.3086418-2.691375 6.0000305-6 6.0000305h-10.475375l7.756625-6.4649079c.847625-.7070036.962875-1.96876.255875-2.8163893-.707-.8437543-1.966875-.9610049-2.818375-.2538763l-12 10.0000509c-.455125.3788769-.71875.9413797-.71875 1.5351328 0 .593753.263625 1.1562558.71875 1.5351328l12 10.0000508c.375.3125016.828125.4648774 1.27925.4648774.57425 0 1.142625-.2461263 1.539125-.7187537.707-.8476293.59175-2.1093857-.255875-2.8163893l-7.756625-6.4649079h10.475375c5.513625 0 10-4.4843978 10-10.0000508v-22.201738c4.5645-.9267547 8-4.9605252 8-9.7984248 0-5.5230281-4.477-10.00005088-10-10.00005088zm0 16.00008138c-3.308375 0-6-2.6913887-6-6.0000305 0-3.30864184 2.691625-6.00003053 6-6.00003053s6 2.69138869 6 6.00003053c0 3.3086418-2.691625 6.0000305-6 6.0000305zm-18-6.0000305c0-.593753-.263625-1.1562559-.71875-1.5351328l-12-10.00005088c-.8515-.71100362-2.111375-.58987801-2.818375.25387629-.707.84762931-.59175 2.10938573.255875 2.81638932l7.756625 6.46490789h-10.475375c-5.513625 0-10 4.48439778-10 10.00005088v22.2017379c-4.56425.9267547-8 4.9605253-8 9.7984249 0 5.5230281 4.47725 10.0000508 10 10.0000508 5.523 0 10-4.4770227 10-10.0000508 0-4.8378996-3.4355-8.8716702-8-9.7984249v-22.2017379c0-3.3086418 2.691375-6.0000305 6-6.0000305h10.475375l-7.756625 6.4649078c-.847625.7070036-.962875 1.9687601-.255875 2.8163894.3965.4726274.964875.7187536 1.539125.7187536.451125 0 .90425-.1523757 1.27925-.4648773l12-10.0000509c.455125-.3788769.71875-.9413798.71875-1.5351328zm-20 40.0002035c0 3.3086418-2.691625 6.0000305-6 6.0000305s-6-2.6913887-6-6.0000305c0-3.3086419 2.691625-6.0000306 6-6.0000306s6 2.6913887 6 6.0000306z" fill="#fff" transform="translate(40 40)"/></g></svg>