<svg height="144" viewBox="0 0 144 144" width="144" xmlns="http://www.w3.org/2000/svg" xmlns:xlink="http://www.w3.org/1999/xlink"><linearGradient id="a" x1="50%" x2="50%" y1="0%" y2="99.768%"><stop offset="0" stop-color="#4985ff"/><stop offset="1" stop-color="#1d5cff"/></linearGradient><g fill="none" fill-rule="nonzero"><path d="m60.2208919 0h23.5582162c19.8216259 0 27.8429669 2.22781467 35.6651889 6.41118489 7.822222 4.18337021 13.961148 10.32229601 18.144518 18.14451821s6.411185 15.8435625 6.411185 35.6651888v23.5582162c0 19.8216259-2.227815 27.8429669-6.411185 35.6651889s-10.322296 13.961148-18.144518 18.144518-15.843563 6.411185-35.6651889 6.411185h-23.5582162c-19.8216263 0-27.8429666-2.227815-35.6651888-6.411185s-13.961148-10.322296-18.14451821-18.144518c-4.18337022-7.822222-6.41118489-15.843563-6.41118489-35.6651889v-23.5582162c0-19.8216263 2.22781467-27.8429666 6.41118489-35.6651888 4.18337021-7.8222222 10.32229601-13.961148 18.14451821-18.14451821 7.8222222-4.18337022 15.8435625-6.41118489 35.6651888-6.41118489z" fill="url(#a)"/><path d="m46.0989126 14.9765-5.2324892-.7655-2.3402451-4.76125c-.9509981-1.935125-4.0857416-1.93125-5.0288646 0l-2.3442452 4.76125-5.2441141.7695c-1.0683728.15275-1.936996.88675-2.2697453 1.915-.3327493 1.03225-.0586249 2.13575.7121235 2.88525l3.7922422 3.69-.9001232 5.243625c-.1759996 1.064.2543745 2.119625 1.1232477 2.7515.8728732.620125 1.9958709.71425 2.9467439.208l4.6846153-2.46875 4.6806153 2.46875c.4148742.219625.8647482.326125 1.3111223.326125.5789988 0 1.1544976-.180625 1.6473716-.542.8688732-.63575 1.2954973-1.691375 1.1154977-2.7515l-.9001232-5.23575 3.7922422-3.69c.7748734-.753375 1.0487478-1.856875.7159985-2.889125-.3324993-1.028375-1.2013725-1.76225-2.2618703-1.915125zm-6.5513614 7.088875.8416232 4.914125-4.3911159-2.312-4.3908659 2.312.8413732-4.914125-3.5534926-3.461875 4.9193648-.71875 2.1953705-4.462875 2.1954954 4.462875 4.8957399.714875zm31.9806838-12.4755c-.1952496-.925875-1.0114979-1.589875-1.956496-1.589875h-13.5775969c-.00175-.7715-.01125-1.501-.0276249-2.168-.0819998-3.2695-2.7177444-5.832-5.9979876-5.832h-27.9369422c-3.2803682 0-5.9161128 2.5625-5.9981126 5.832-.0163749.667-.0258749 1.3965-.0276249 2.168h-13.57759693c-.94499804 0-1.76112135.664-1.95649595 1.589875-.10937477.523375-2.62036957 13.00775 5.15873933 24.515625 5.20886425 7.705 13.73434655 13.001875 25.31657265 15.836875 1.7868713.4375 3.0534936 2.028375 3.0534936 3.868625v6.189h-11.9963501c-1.1042478 0-1.9992459.8955-1.9992459 2s.8949981 2 1.9992459 2h27.991567c1.1042478 0 1.9993709-.8955 1.9993709-2s-.8951231-2-1.9993709-2h-11.9962251v-6.189c0-1.84025 1.2666223-3.431125 3.0533686-3.868625 11.5823511-2.835 20.1077084-8.131875 25.3166977-15.836875 7.7789839-11.507875 5.267989-23.99225 5.1586143-24.515625zm-62.55499557 22.32025c-5.32273898-7.839875-5.15486433-16.433625-4.80711505-19.910125h11.92310032c.3768742 9.713375 2.41137 23.57525 10.149104 32.372125-7.6894841-2.76275-13.4999721-6.916125-17.26508927-12.462zm27.02681907 14.918c-15.1359687-6.808625-16.2178414-30.78125-15.967842-40.8945.027375-1.086.9059982-1.933625 1.9993709-1.933625h27.9369422c1.0932477 0 1.9718709.847625 1.9992459 1.933625.2499994 10.11325-.8317483 34.085875-15.967717 40.8945zm27.0266941-14.918c-3.7648672 5.545875-9.5756052 9.69925-17.2650893 12.462 7.737859-8.796875 9.7722298-22.65875 10.149229-32.372125h11.9229753c.3477493 3.4765.515624 12.07025-4.807115 19.910125z" fill="#fff" transform="translate(36 40)"/></g></svg>