<svg height="144" viewBox="0 0 144 144" width="144" xmlns="http://www.w3.org/2000/svg" xmlns:xlink="http://www.w3.org/1999/xlink"><linearGradient id="a" x1="50%" x2="50%" y1="0%" y2="99.768%"><stop offset="0" stop-color="#4985ff"/><stop offset="1" stop-color="#1d5cff"/></linearGradient><g fill="none" fill-rule="nonzero"><path d="m60.2208919 0h23.5582162c19.8216259 0 27.8429669 2.22781467 35.6651889 6.41118489 7.822222 4.18337021 13.961148 10.32229601 18.144518 18.14451821s6.411185 15.8435625 6.411185 35.6651888v23.5582162c0 19.8216259-2.227815 27.8429669-6.411185 35.6651889s-10.322296 13.961148-18.144518 18.144518-15.843563 6.411185-35.6651889 6.411185h-23.5582162c-19.8216263 0-27.8429666-2.227815-35.6651888-6.411185s-13.961148-10.322296-18.14451821-18.144518c-4.18337022-7.822222-6.41118489-15.843563-6.41118489-35.6651889v-23.5582162c0-19.8216263 2.22781467-27.8429666 6.41118489-35.6651888 4.18337021-7.8222222 10.32229601-13.961148 18.14451821-18.14451821 7.8222222-4.18337022 15.8435625-6.41118489 35.6651888-6.41118489z" fill="url(#a)"/><path d="m14 16h20c1.1055 0 2-.8945 2-2s-.8945-2-2-2h-3.109625c.68725-1.180625 1.109625-2.535375 1.109625-4 0-4.41825-3.58175-8-8-8s-8 3.58175-8 8c0 1.464625.422375 2.819375 1.109625 4h-3.109625c-1.1055 0-2 .8945-2 2s.8945 2 2 2zm10-12c2.205625 0 4 1.794375 4 4s-1.794375 4-4 4-4-1.794375-4-4 1.794375-4 4-4zm16 4c-1.1055 0-2 .8945-2 2s.8945 2 2 2c2.205125 0 4 1.793 4 4v40c0 2.207-1.794875 4-4 4h-32c-2.205125 0-4-1.793-4-4v-40c0-2.207 1.794875-4 4-4 1.1055 0 2-.8945 2-2s-.8945-2-2-2c-4.412125 0-8 3.589875-8 8v40c0 4.410125 3.587875 8 8 8h32c4.412125 0 8-3.589875 8-8v-40c0-4.410125-3.587875-8-8-8zm-31 24c0 1.65675 1.34325 3 3 3 1.657 0 3-1.34325 3-3 0-1.657-1.343-3-3-3-1.65675 0-3 1.343-3 3zm3 9c-1.65675 0-3 1.343-3 3 0 1.65675 1.34325 3 3 3 1.657 0 3-1.34325 3-3 0-1.657-1.343-3-3-3zm26-11h-16c-1.1055 0-2 .8945-2 2s.8945 2 2 2h16c1.1055 0 2-.8945 2-2s-.8945-2-2-2zm0 12h-16c-1.1055 0-2 .8945-2 2s.8945 2 2 2h16c1.1055 0 2-.8945 2-2s-.8945-2-2-2z" fill="#fff" transform="translate(48 36)"/></g></svg>