<svg height="144" viewBox="0 0 144 144" width="144" xmlns="http://www.w3.org/2000/svg" xmlns:xlink="http://www.w3.org/1999/xlink"><linearGradient id="a" x1="50%" x2="50%" y1="0%" y2="99.767737%"><stop offset="0" stop-color="#4985ff"/><stop offset="1" stop-color="#1d5cff"/></linearGradient><g fill="none" fill-rule="nonzero"><path d="m60.2208919 0h23.5582162c19.8216259 0 27.8429669 2.22781467 35.6651889 6.41118489 7.822222 4.18337021 13.961148 10.32229601 18.144518 18.14451821s6.411185 15.8435625 6.411185 35.6651888v23.5582162c0 19.8216259-2.227815 27.8429669-6.411185 35.6651889s-10.322296 13.961148-18.144518 18.144518-15.843563 6.411185-35.6651889 6.411185h-23.5582162c-19.8216263 0-27.8429666-2.227815-35.6651888-6.411185s-13.961148-10.322296-18.14451821-18.144518c-4.18337022-7.822222-6.41118489-15.843563-6.41118489-35.6651889v-23.5582162c0-19.8216263 2.22781467-27.8429666 6.41118489-35.6651888 4.18337021-7.8222222 10.32229601-13.961148 18.14451821-18.14451821 7.8222222-4.18337022 15.8435625-6.41118489 35.6651888-6.41118489z" fill="url(#a)"/><path d="m90 44c15.463973 0 28 12.536027 28 28s-12.536027 28-28 28c-6.8544413 0-13.1336215-2.4629856-18.0008023-6.5522186-4.8664374 4.0895708-11.1452264 6.5522186-17.9991977 6.5522186-15.463973 0-28-12.536027-28-28s12.536027-28 28-28c6.8544413 0 13.1336215 2.4629856 18.0008023 6.5522186 4.8664374-4.0895708 11.1452264-6.5522186 17.9991977-6.5522186zm-36 4c-13.254834 0-24 10.745166-24 24s10.745166 24 24 24c5.7273173 0 10.9860693-2.0061668 15.1118695-5.3541139-4.4234455-4.9512627-7.1118695-11.4846169-7.1118695-18.6458861 0-7.160786 2.6880611-13.6937417 7.1101678-18.6448514-4.123714-3.3488351-9.3826411-5.3551486-15.1101678-5.3551486zm36 0c-5.7274643 0-10.9863392 2.0062697-15.1121871 5.3543717 4.4237631 4.9510049 7.1121871 11.4843591 7.1121871 18.6456283s-2.688424 13.6946234-7.1110631 18.6458538c4.1253214 3.3481044 9.3839242 5.3541462 15.1110631 5.3541462 13.254834 0 24-10.745166 24-24s-10.745166-24-24-24z" fill="#fff"/></g></svg>