<svg height="144" viewBox="0 0 144 144" width="144" xmlns="http://www.w3.org/2000/svg" xmlns:xlink="http://www.w3.org/1999/xlink"><linearGradient id="a" x1="50%" x2="50%" y1="0%" y2="99.768%"><stop offset="0" stop-color="#4985ff"/><stop offset="1" stop-color="#1d5cff"/></linearGradient><g fill="none" fill-rule="nonzero"><path d="m60.2208919 0h23.5582162c19.8216259 0 27.8429669 2.22781467 35.6651889 6.41118489 7.822222 4.18337021 13.961148 10.32229601 18.144518 18.14451821s6.411185 15.8435625 6.411185 35.6651888v23.5582162c0 19.8216259-2.227815 27.8429669-6.411185 35.6651889s-10.322296 13.961148-18.144518 18.144518-15.843563 6.411185-35.6651889 6.411185h-23.5582162c-19.8216263 0-27.8429666-2.227815-35.6651888-6.411185s-13.961148-10.322296-18.14451821-18.144518c-4.18337022-7.822222-6.41118489-15.843563-6.41118489-35.6651889v-23.5582162c0-19.8216263 2.22781467-27.8429666 6.41118489-35.6651888 4.18337021-7.8222222 10.32229601-13.961148 18.14451821-18.14451821 7.8222222-4.18337022 15.8435625-6.41118489 35.6651888-6.41118489z" fill="url(#a)"/><path d="m59.2887434 26.8590325c-1.1290317.1612906-1.9132894 1.2056795-1.7539346 2.3347137.1814193 1.2701958.2721289 2.5624561.2721289 3.8387164 0 14.7984772-12.0403808 26.838498-26.8389538 26.838498-14.7984439 0-26.83895379-12.0400208-26.83895379-26.838498 0-14.7984773 12.04050989-26.83849809 26.83895379-26.83849809 1.2762574 0 2.5685148.09070984 3.8387077.27212951 1.1290317.16941965 2.1753537-.62490431 2.3347084-1.75393852.1593548-1.12903421-.6250319-2.17342312-1.7540636-2.33471372-1.4616766-.20774229-2.9495468-.31251667-4.4193525-.31251667-17.0766363 0-30.9679839 13.89086279-30.9679839 30.96753749s13.8913476 30.9675374 30.9679839 30.9675374c17.0768943 0 30.9679839-13.8908627 30.9679839-30.9675374 0-1.469809-.1049032-2.9576826-.312516-4.4193625-.1633547-1.1290342-1.2176768-1.9193582-2.3347084-1.7540676zm-31.4175321.806453c.9878705-.5705816 1.3246445-1.8345838.7519996-2.820521-.5705803-.9878727-1.8366442-1.3206474-2.8205146-.7520013-3.1815468 1.8427129-5.1572877 5.2681382-5.1572877 8.9394994 0 5.6914937 4.6310944 10.3225985 10.3225753 10.3225985 3.6713529 0 7.0967705-1.9757454 8.9394792-5.1572993.5726449-.9858081.2358709-2.2499394-.7519996-2.820521-.985935-.5745816-2.2479988-.2358714-2.8205146.7520013-1.1068382 1.9092936-3.1633532 3.0967796-5.366965 3.0967796-3.4153531 0-6.1935452-2.7781984-6.1935452-6.1935591 0-2.2036168 1.1874833-4.2601364 3.0967726-5.3669771zm5.1612877-13.2137002c0-1.1411633-.9233544-2.0645197-2.0645151-2.0645197-11.3830909 0-20.6451506 9.2620805-20.6451506 20.645197 0 11.3831164 9.2620597 20.6449389 20.6451506 20.6449389s20.6454086-9.2618225 20.6454086-20.6449389c0-1.1411633-.9233543-2.0645197-2.064515-2.0645197s-2.0645151.9233564-2.0645151 2.0645197c0 9.1068544-7.4095445 16.5161576-16.5163785 16.5161576s-16.5161204-7.4093032-16.5161204-16.5161576c0-9.1068545 7.4092864-16.5161576 16.5161204-16.5161576 1.1411607 0 2.0645151-.9233565 2.0645151-2.0645197zm30.8792097-.5988398c-.2197418-.7277432-.8245157-1.2761312-1.5704508-1.4252928l-8.9738018-1.7941966-1.7944507-8.97382201c-.1491612-.74593677-.697548-1.35071201-1.4252895-1.57058336-.7318706-.22167781-1.5181928-.02206456-2.0585796.51612992l-8.2583183 8.25807881c-.4878707.48800084-.6994835 1.18761494-.5645158 1.86503544l1.84787 9.2385967-11.6059295 11.6059555c-.8064512.806453-.8064512 2.1129069 0 2.9193599.8060641.8059369 2.1125151.8068401 2.9193533 0l11.6061876-11.6059555 9.2388339 1.8478741c.1350967.0261936.2701934.0402582.4052901.0402582.5423223 0 1.0685156-.2136778 1.4596121-.6049043l8.2580602-8.2580788c.5383223-.5381945.7359997-1.3285184.5161288-2.0584552zm-20.3789571-2.8504565 4.7479975-4.75007277 1.0917414 5.45665457-4.7492879 4.7490405zm9.4656725 9.4654357-5.4558682-1.0904535 4.7492879-4.7492985 5.4566423 1.0917438z" fill="#fff" transform="translate(40 40)"/></g></svg>