<svg height="144" viewBox="0 0 144 144" width="144" xmlns="http://www.w3.org/2000/svg" xmlns:xlink="http://www.w3.org/1999/xlink"><linearGradient id="a" x1="50%" x2="50%" y1="0%" y2="99.768%"><stop offset="0" stop-color="#4985ff"/><stop offset="1" stop-color="#1d5cff"/></linearGradient><g fill="none" fill-rule="nonzero"><path d="m60.2208919 0h23.5582162c19.8216259 0 27.8429669 2.22781467 35.6651889 6.41118489 7.822222 4.18337021 13.961148 10.32229601 18.144518 18.14451821s6.411185 15.8435625 6.411185 35.6651888v23.5582162c0 19.8216259-2.227815 27.8429669-6.411185 35.6651889s-10.322296 13.961148-18.144518 18.144518-15.843563 6.411185-35.6651889 6.411185h-23.5582162c-19.8216263 0-27.8429666-2.227815-35.6651888-6.411185s-13.961148-10.322296-18.14451821-18.144518c-4.18337022-7.822222-6.41118489-15.843563-6.41118489-35.6651889v-23.5582162c0-19.8216263 2.22781467-27.8429666 6.41118489-35.6651888 4.18337021-7.8222222 10.32229601-13.961148 18.14451821-18.14451821 7.8222222-4.18337022 15.8435625-6.41118489 35.6651888-6.41118489z" fill="url(#a)"/><path d="m29.6562726 11.4285494h41.0624786c1.2548294 0 2.2812488-1.0287147 2.2812488-2.2857152 0-1.25728624-1.0264194-2.28571524-2.2812488-2.28571524h-41.0624786c-1.2545442 0-2.2812488 1.028429-2.2812488 2.28571524 0 1.2570005 1.0267046 2.2857152 2.2812488 2.2857152zm-25.09373688 16.0000067h13.68749288c1.2609603 0 2.2812488-1.0222861 2.2812488-2.2857152 0-1.2631434-1.0202885-2.2854295-2.2812488-2.2854295h-4.5624976v-20.57058006c0-.81928606-.4367166-1.57371495-1.1450444-1.98214369-.7083277-.40842874-1.5773409-.40628588-2.2858113.00671429l-5.07036061 2.96200124c-1.08715764.63585741-1.4570051 2.03542942-.81982379 3.12700131.63261881 1.08928617 2.03173722 1.44857203 3.11889485.82357177l1.63964759-.95971469v16.59314983h-4.56249762c-1.26096028 0-2.28124881 1.0222861-2.28124881 2.2854295 0 1.2634291 1.02028853 2.2857152 2.28124881 2.2857152zm66.15621548 25.1428677h-41.0624786c-1.2545442 0-2.2812488 1.028429-2.2812488 2.2857152 0 1.2570006 1.0267046 2.2857153 2.2812488 2.2857153h41.0624786c1.2548294 0 2.2812488-1.0287147 2.2812488-2.2857153 0-1.2572862-1.0264194-2.2857152-2.2812488-2.2857152zm-50.1874738 6.8571457h-12.19969092l8.75971032-7.7165746c4.0860017-3.5290015 4.5761851-9.7477184 1.1008451-13.8637201-1.7468663-2.0625723-4.1974978-3.3170014-6.9064808-3.5312872-2.7534673-.232143-5.34696204.6405717-7.40094144 2.4151439l-1.96486811 1.6964292c-.953562.8237147-1.06049554 2.2678581-.24067175 3.2231442.82424371.9598576 2.27240897 1.0625719 3.21698856.241143l1.96515327-1.6964293c1.12280214-.9687147 2.53960023-1.4531434 4.06347447-1.3214291 1.4880871.116 2.8337387.801286 3.7827382 1.9285722 1.8981416 2.2455724 1.6396476 5.5155738-.6103766 7.4598603l-13.32249305 11.7342906c-.71289026.627286-.96240185 1.6340007-.62819889 2.5224296.33420295.8905718 1.18525133 1.4798578 2.13425083 1.4798578h18.25056081c1.2609603 0 2.2812488-1.0222861 2.2812488-2.2857152s-1.0202885-2.2857153-2.2812488-2.2857153zm50.1874738-29.7142981h-41.0624786c-1.2545442 0-2.2812488 1.028429-2.2812488 2.2857152 0 1.2570005 1.0267046 2.2857153 2.2812488 2.2857153h41.0624786c1.2548294 0 2.2812488-1.0287148 2.2812488-2.2857153 0-1.2572862-1.0264194-2.2857152-2.2812488-2.2857152z" fill="#fff" transform="translate(36 40)"/></g></svg>