<svg height="144" viewBox="0 0 144 144" width="144" xmlns="http://www.w3.org/2000/svg" xmlns:xlink="http://www.w3.org/1999/xlink"><linearGradient id="a" x1="50%" x2="50%" y1="0%" y2="99.768%"><stop offset="0" stop-color="#4985ff"/><stop offset="1" stop-color="#1d5cff"/></linearGradient><g fill="none" fill-rule="nonzero"><path d="m60.2208919 0h23.5582162c19.8216259 0 27.8429669 2.22781467 35.6651889 6.41118489 7.822222 4.18337021 13.961148 10.32229601 18.144518 18.14451821s6.411185 15.8435625 6.411185 35.6651888v23.5582162c0 19.8216259-2.227815 27.8429669-6.411185 35.6651889s-10.322296 13.961148-18.144518 18.144518-15.843563 6.411185-35.6651889 6.411185h-23.5582162c-19.8216263 0-27.8429666-2.227815-35.6651888-6.411185s-13.961148-10.322296-18.14451821-18.144518c-4.18337022-7.822222-6.41118489-15.843563-6.41118489-35.6651889v-23.5582162c0-19.8216263 2.22781467-27.8429666 6.41118489-35.6651888 4.18337021-7.8222222 10.32229601-13.961148 18.14451821-18.14451821 7.8222222-4.18337022 15.8435625-6.41118489 35.6651888-6.41118489z" fill="url(#a)"/><path d="m8 44h-4c-2.20925 0-4 1.79075-4 4v12c0 2.209 1.79075 4 4 4h4c2.20925 0 4-1.791 4-4v-12c0-2.20925-1.79075-4-4-4zm0 16h-4v-12h4zm60-36h-4c-2.20925 0-4 1.79075-4 4v32c0 2.209 1.79075 4 4 4h4c2.20925 0 4-1.791 4-4v-32c0-2.20925-1.79075-4-4-4zm0 36h-4v-32h4zm-20-20h-4c-2.20925 0-4 1.79075-4 4v16c0 2.209 1.79075 4 4 4h4c2.20925 0 4-1.791 4-4v-16c0-2.20925-1.79075-4-4-4zm0 20h-4v-16h4zm-20-36h-4c-2.20925 0-4 1.79075-4 4v32c0 2.209 1.79075 4 4 4h4c2.20925 0 4-1.791 4-4v-32c0-2.20925-1.79075-4-4-4zm0 36h-4v-32h4zm35.132125-48.850125c.86175.4905 1.804125.850125 2.867875.850125 3.31375 0 6-2.68625 6-6s-2.68625-6-6-6-6 2.68625-6 6c0 .76975.197 1.478.468 2.149875l-11.600125 8.70025c-.86175-.4905-1.804125-.850125-2.867875-.850125s-2.006125.359625-2.867875.850125l-11.600125-8.70025c.271-.671875.468-1.380125.468-2.149875 0-3.31375-2.68625-6-6-6s-6 2.68625-6 6c0 .919375.26925 1.753375.641625 2.53025l-12.111375 12.111375c-.776875-.372375-1.610875-.641625-2.53025-.641625-3.31375 0-6 2.68625-6 6s2.68625 6 6 6 6-2.68625 6-6c0-.919375-.26925-1.753375-.641625-2.53025l12.111375-12.111375c.776875.372375 1.610875.641625 2.53025.641625 1.06375 0 2.006125-.359625 2.867875-.850125l11.600125 8.70025c-.271.671875-.468 1.380125-.468 2.149875 0 3.31375 2.68625 6 6 6s6-2.68625 6-6c0-.76975-.197-1.478-.468-2.149875zm2.867875-7.149875c1.10275 0 2 .89725 2 2s-.89725 2-2 2c-.6015 0-1.046875-.284625-1.31475-.52325l-.241625-.2155-.171375-.308375c-.183125-.329125-.27225-.640875-.27225-.952875 0-1.10275.89725-2 2-2zm-60 24c-1.10275 0-2-.89725-2-2s.89725-2 2-2c.410875 0 .797375.12675 1.1485.37675l.27725.1975.1975.27725c.25.351125.37675.737625.37675 1.1485 0 1.10275-.89725 2-2 2zm21.72775-21.047125-.171125.307875-.242625.21625c-.267375.238625-.712625.523-1.314.523-.410875 0-.797375-.12675-1.1485-.37675l-.27725-.1975-.1975-.27725c-.25-.351125-.37675-.737625-.37675-1.1485 0-1.10275.89725-2 2-2s2 .89725 2 2c0 .312-.089125.62375-.27225.952875zm18.27225 17.047125c-1.10275 0-2-.89725-2-2 0-.312.089125-.62375.27225-.952875l.171375-.308375.241625-.2155c.267875-.238625.71325-.52325 1.31475-.52325s1.046875.284625 1.31475.52325l.241625.2155.171375.308375c.183125.329125.27225.640875.27225.952875 0 1.10275-.89725 2-2 2z" fill="#fff" transform="translate(36 40)"/></g></svg>