<svg height="144" viewBox="0 0 144 144" width="144" xmlns="http://www.w3.org/2000/svg" xmlns:xlink="http://www.w3.org/1999/xlink"><linearGradient id="a" x1="50%" x2="50%" y1="0%" y2="99.768%"><stop offset="0" stop-color="#4985ff"/><stop offset="1" stop-color="#1d5cff"/></linearGradient><g fill="none" fill-rule="nonzero"><path d="m60.2208919 0h23.5582162c19.8216259 0 27.8429669 2.22781467 35.6651889 6.41118489 7.822222 4.18337021 13.961148 10.32229601 18.144518 18.14451821s6.411185 15.8435625 6.411185 35.6651888v23.5582162c0 19.8216259-2.227815 27.8429669-6.411185 35.6651889s-10.322296 13.961148-18.144518 18.144518-15.843563 6.411185-35.6651889 6.411185h-23.5582162c-19.8216263 0-27.8429666-2.227815-35.6651888-6.411185s-13.961148-10.322296-18.14451821-18.144518c-4.18337022-7.822222-6.41118489-15.843563-6.41118489-35.6651889v-23.5582162c0-19.8216263 2.22781467-27.8429666 6.41118489-35.6651888 4.18337021-7.8222222 10.32229601-13.961148 18.14451821-18.14451821 7.8222222-4.18337022 15.8435625-6.41118489 35.6651888-6.41118489z" fill="url(#a)"/><path d="m28.330625 26.8947406c.346875.6992454 1.042875 1.1054928 1.76775 1.1054928.296875 0 .597375-.0663746.880875-.2109986.975375-.4959968 1.370625-1.695239.88275-2.6834826l-11.65275-17.47063676c-.613-1.23824197-.11375-2.75385714 1.106375-3.37497811 1.197375-.59762113 2.685375-.12499919 3.309875 1.08599296l9.054375 11.71667401c.505125.9764937 1.704125 1.3476163 2.664125.8437445.965875-.5156216 1.339875-1.7226138.83275-2.7031074l-9.054375-11.71279908c-1.611375-3.12497974-5.457375-4.39059654-8.572375-2.80860679-3.16725 1.60936456-4.45675 5.53121413-2.87225 8.74219331zm45.669375 15.105402h-24c-1.1055 0-2 .8944942-2 1.9999871 0 1.1054928.8945 1.999987 2 1.999987h16v13.9999092h-13.056625c-2.287125 0-4.341875-1.2694917-5.36525-3.3163535l-1.32425-2.6484828c-.494125-.9843686-1.69525-1.390616-2.683625-.8944942s-1.388625 1.695239-.8945 2.6836076l1.32425 2.6483578c1.705125 3.4101029 5.130875 5.5273392 8.943375 5.5273392h21.056625c3.308625 0 6-2.6913576 6-5.9999611v-9.9999352c0-3.3086035-2.691375-5.9999611-6-5.9999611zm2 15.9998963c0 1.1014929-.8965 1.999987-2 1.999987h-4v-13.9999092h4c1.1035 0 2 .8984942 2 1.999987zm-15.600625-57.31750338c-3.15425-1.58198974-7.04875-.31637295-8.681625 2.80473182l-22.92875 38.51287526h-22.789c-3.308625 0-6 2.6913576-6 5.9999611v9.9999352c0 3.3086035 2.691375 5.9999611 6 5.9999611h21.056625c3.8125 0 7.23825-2.1172363 8.943375-5.5273392l27.3135-49.04793196c1.6055-3.21097918.29875-7.13282875-2.914125-8.74219332zm-50.399375 59.31749038h-4c-1.1035 0-2-.8984941-2-1.999987v-9.9999352c0-1.1014928.8965-1.999987 2-1.999987h4zm49.735375-52.36441046-27.3135 49.04805696c-1.023375 2.0468618-3.078125 3.3163535-5.36525 3.3163535h-13.056625v-13.9999092h16c.744125 0 1.42575-.4139973 1.7715-1.0702431l23.48925-39.58724329c.63475-1.19911723 2.140625-1.69136404 3.349625-1.08199299 1.24025.62112098 1.746125 2.13673615 1.125 3.37497812z" fill="#fff" transform="translate(32 40)"/></g></svg>