<svg height="144" viewBox="0 0 144 144" width="144" xmlns="http://www.w3.org/2000/svg" xmlns:xlink="http://www.w3.org/1999/xlink"><linearGradient id="a" x1="50%" x2="50%" y1="0%" y2="99.768%"><stop offset="0" stop-color="#4985ff"/><stop offset="1" stop-color="#1d5cff"/></linearGradient><g fill="none" fill-rule="nonzero"><path d="m60.2208919 0h23.5582162c19.8216259 0 27.8429669 2.22781467 35.6651889 6.41118489 7.822222 4.18337021 13.961148 10.32229601 18.144518 18.14451821s6.411185 15.8435625 6.411185 35.6651888v23.5582162c0 19.8216259-2.227815 27.8429669-6.411185 35.6651889s-10.322296 13.961148-18.144518 18.144518-15.843563 6.411185-35.6651889 6.411185h-23.5582162c-19.8216263 0-27.8429666-2.227815-35.6651888-6.411185s-13.961148-10.322296-18.14451821-18.144518c-4.18337022-7.822222-6.41118489-15.843563-6.41118489-35.6651889v-23.5582162c0-19.8216263 2.22781467-27.8429666 6.41118489-35.6651888 4.18337021-7.8222222 10.32229601-13.961148 18.14451821-18.14451821 7.8222222-4.18337022 15.8435625-6.41118489 35.6651888-6.41118489z" fill="url(#a)"/><path d="m96 43c5.42924 0 9.847932 4.3266708 9.996158 9.7200952l.003842.2799048v46c0 1.104569-.895431 2-2 2s-2-.895431-2-2v-46c0-3.2383969-2.5655749-5.8775718-5.7750617-5.9958615l-.2249383-.0041385h-48c-3.2383969 0-5.8775718 2.5655749-5.9958615 5.7750617l-.0041385.2249383v46c0 1.104569-.8954305 2-2 2s-2-.895431-2-2v-46c0-5.4292399 4.3266708-9.8479317 9.7200952-9.9961582l.2799048-.0038418zm-24 10c1.1045695 0 2 .8954305 2 2v16h20c1.1045695 0 2 .8954305 2 2s-.8954305 2-2 2h-20v16c0 1.1045695-.8954305 2-2 2s-2-.8954305-2-2v-16.001l-20 .001c-1.1045695 0-2-.8954305-2-2s.8954305-2 2-2l20-.001v-15.999c0-1.1045695.8954305-2 2-2z" fill="#fff"/></g></svg>