<svg version="1.1" xmlns="http://www.w3.org/2000/svg" xmlns:xlink="http://www.w3.org/1999/xlink" x="0px" y="0px"
        viewBox="0 0 304 202" xml:space="preserve">
       
        <g>
          <path class="st0" d="M9 202h292V9c0-5-1-6-6-6H9c-5 0-6 1-6 6V202zM12 0h280c11 0 12 1 12 12v190H0V12C0 1 1 0 12 0z" />
          <polygon class="st1" points="157,112 290,112 290,202 223.5,202" />
          <polygon class="st1" points="152,118 213,202 91,202" />
          <polygon class="st1" points="14,112 147,112 80.5,202 14,202" />
          <path class="st1" d="M162,14h131c1.7,0,3,1.3,3,3v87H156V14z" />
          <path class="st1" d="M17,14h131v90H14V17C14,15.3,15.3,14,17,14z" />
        </g>
      </svg>