<svg xmlns="http://www.w3.org/2000/svg" width="32" height="32" viewBox="0 0 32 32">
    <path fill="#FFF" fill-rule="nonzero" d="M16 32c8.839 0 16-7.161 16-16S24.839 0 16 0 0 7.161 0 16s7.161 16 16 16zM2.065 16c0-7.658 6.2-13.935 13.935-13.935 7.658 0 13.935 6.2 13.935 13.935 0 7.658-6.2 13.935-13.935 13.935-7.658 0-13.935-6.2-13.935-13.935zm5.967-.806l7.42-7.426a.775.775 0 0 1 1.096 0l7.42 7.426a.775.775 0 0 1 0 1.096l-.445.445a.771.771 0 0 1-1.104-.012l-5.322-5.517v12.278a.776.776 0 0 1-.774.774h-.646a.776.776 0 0 1-.774-.774V11.206L9.581 16.73a.777.777 0 0 1-1.104.013l-.445-.445a.783.783 0 0 1 0-1.103z"/>
</svg>
