<svg xmlns="http://www.w3.org/2000/svg" width="16" height="16" viewBox="0 0 16 16">
    <g fill="#fff" fill-rule="evenodd">
        <g fill="#red" fill-rule="nonzero">
            <g>
                <g>
                    <path d="M12 0c2.21 0 4 1.79 4 4v8c0 2.21-1.79 4-4 4H4c-2.21 0-4-1.79-4-4V4c0-2.21 1.79-4 4-4h8zm-.683 5.119c-.156-.157-.41-.157-.566 0L7 8.87 5.249 7.12c-.157-.157-.41-.157-.566 0l-.566.565c-.156.157-.156.41 0 .566l2.6 2.6c.156.156.41.156.566 0l4.6-4.6c.156-.156.156-.41 0-.566z" transform="translate(-1708.000000, -807.000000) translate(1536.000000, 795.000000) translate(172.000000, 12.000000)"/>
                </g>
            </g>
        </g>
    </g>
</svg>
