<svg xmlns="http://www.w3.org/2000/svg" width="32" height="32" viewBox="0 0 32 32">
    <path fill="#FFF" fill-rule="nonzero" d="M16 0C7.161 0 0 7.161 0 16s7.161 16 16 16 16-7.161 16-16S24.839 0 16 0zm13.935 16c0 7.658-6.2 13.935-13.935 13.935-7.658 0-13.935-6.2-13.935-13.935 0-7.658 6.2-13.935 13.935-13.935 7.658 0 13.935 6.2 13.935 13.935zm-5.967-.29l-.445-.445a.771.771 0 0 0-1.104.012l-5.322 5.517V8.516a.776.776 0 0 0-.774-.774h-.646a.776.776 0 0 0-.774.774v12.278L9.581 15.27a.777.777 0 0 0-1.104-.013l-.445.445a.775.775 0 0 0 0 1.097l7.42 7.426a.775.775 0 0 0 1.096 0l7.42-7.426a.767.767 0 0 0 0-1.09z"/>
</svg>
