<svg xmlns="http://www.w3.org/2000/svg" width="16" height="16" viewBox="0 0 16 16">
    <g fill="none" fill-rule="evenodd">
        <g fill="#FFF" fill-rule="nonzero">
            <g>
                <path d="M184 12c2.21 0 4 1.79 4 4v8c0 2.21-1.79 4-4 4h-8c-2.21 0-4-1.79-4-4v-8c0-2.21 1.79-4 4-4h8zm-4.007 4c-1.07.002-2.04.423-2.756 1.108l-.576-.576c-.244-.244-.661-.071-.661.274v2.162c0 .214.173.387.387.387h2.162c.345 0 .518-.417.274-.661l-.673-.673c.497-.466 1.142-.725 1.826-.73 1.49-.013 2.746 1.193 2.734 2.732-.013 1.461-1.197 2.687-2.71 2.687-.663 0-1.29-.237-1.784-.67-.077-.068-.192-.064-.264.008l-.64.64c-.079.079-.075.207.008.281.709.64 1.649 1.031 2.68 1.031 2.21 0 4-1.79 4-4 0-2.207-1.8-4.004-4.007-4z" transform="translate(-1708.000000, -851.000000) translate(1536.000000, 839.000000)"/>
            </g>
        </g>
    </g>
</svg>
