<svg xmlns="http://www.w3.org/2000/svg" width="40" height="40" viewBox="0 0 40 40">
    <g fill="none">
        <!-- <rect width="40" height="40" fill="#F2F4F8" rx="8"/> -->
        <path fill="#1D5CFF" d="M19.73 12.16l-.252.252c-.167.167-.167.439 0 .606l6.375 6.375H12.43c-.237 0-.429.192-.429.428v.358c0 .236.192.428.429.428h13.424l-6.375 6.375c-.167.167-.167.439 0 .606l.253.253c.167.167.439.167.606 0l7.537-7.538c.168-.167.168-.439 0-.606l-7.537-7.538c-.167-.167-.439-.167-.606 0z"/>
    </g>
</svg>
