<svg xmlns="http://www.w3.org/2000/svg" width="24" height="24" viewBox="0 0 24 24">
    <g fill="none" fill-rule="evenodd">
        <g fill="#C1C7CD" fill-rule="nonzero">
            <g>
                <path d="M0 12C0 5.371 5.371 0 12 0s12 5.371 12 12-5.371 12-12 12S0 18.629 0 12zm14.129 5.613V12h3.43c.518 0 .78-.629.412-.992l-5.56-5.53c-.227-.228-.59-.228-.817 0l-5.565 5.53c-.368.368-.106.992.411.992h3.431v5.613c0 .32.261.58.58.58h3.097c.32 0 .581-.26.581-.58z" transform="translate(-633 -674) matrix(1 0 0 -1 633 698) matrix(1 0 0 -1 0 24)"/>
            </g>
        </g>
    </g>
</svg>
