<svg xmlns="http://www.w3.org/2000/svg" width="39" height="40" viewBox="0 0 39 40">
    <g fill="none" fill-rule="evenodd">
        <path fill="#0d70c3" fill-rule="nonzero" d="M39 0v40H8c-4.418 0-8-3.582-8-8V8c0-4.418 3.582-8 8-8h31zM26 12H14c-1.054 0-1.918.816-1.995 1.85L12 14v12c0 1.054.816 1.918 1.85 1.995L14 28h12c1.054 0 1.918-.816 1.995-1.85L28 26V14c0-1.054-.816-1.918-1.85-1.995L26 12zm-7.604 11.313l-3.25-3.25c-.195-.196-.195-.512 0-.708l.708-.707c.195-.195.511-.195.707 0l2.189 2.19 4.69-4.69c.195-.195.511-.195.706 0l.708.707c.195.196.195.512 0 .708l-5.75 5.75c-.196.195-.512.195-.708 0z"/>
    </g>
</svg>
