<?xml version="1.0" encoding="iso-8859-1"?>
<!-- Generator: Adobe Illustrator 18.0.0, SVG Export Plug-In . SVG Version: 6.00 Build 0)  -->
<!DOCTYPE svg PUBLIC "-//W3C//DTD SVG 1.1//EN" "http://www.w3.org/Graphics/SVG/1.1/DTD/svg11.dtd">
<svg xmlns="http://www.w3.org/2000/svg" xmlns:xlink="http://www.w3.org/1999/xlink" version="1.1" id="Capa_1" x="0px" y="0px" viewBox="0 0 142.447 142.447" style="enable-background:new 0 0 142.447 142.447;" xml:space="preserve" width="512px" height="512px">
<g>
	<path d="M71.224,0C31.951,0,0,31.951,0,71.223s31.951,71.224,71.224,71.224s71.224-31.951,71.224-71.224   S110.496,0,71.224,0z M71.224,127.447C40.222,127.447,15,102.225,15,71.223C15,40.222,40.222,15,71.224,15   s56.224,25.222,56.224,56.223C127.447,102.225,102.226,127.447,71.224,127.447z" fill="#cfd8dd"/>
	<path d="M106.206,36.242c-2.93-2.928-7.678-2.928-10.607,0L71.01,60.83L46.779,36.598   c-2.929-2.928-7.677-2.928-10.607,0c-2.929,2.93-2.929,7.678,0,10.607l24.231,24.231L36.528,95.311   c-2.929,2.93-2.929,7.678,0,10.607c1.465,1.464,3.384,2.196,5.304,2.196c1.919,0,3.839-0.732,5.304-2.196L71.01,82.044   l24.231,24.231c1.465,1.464,3.384,2.196,5.304,2.196c1.919,0,3.839-0.732,5.304-2.196c2.929-2.93,2.929-7.678,0-10.607   L81.618,71.437l24.588-24.588C109.135,43.919,109.135,39.171,106.206,36.242z" fill="#cfd8dd"/>
</g>
<g>
</g>
<g>
</g>
<g>
</g>
<g>
</g>
<g>
</g>
<g>
</g>
<g>
</g>
<g>
</g>
<g>
</g>
<g>
</g>
<g>
</g>
<g>
</g>
<g>
</g>
<g>
</g>
<g>
</g>
</svg>
