<svg height="16" viewBox="0 0 16 16" width="16" xmlns="http://www.w3.org/2000/svg" xmlns:xlink="http://www.w3.org/1999/xlink"><linearGradient id="a" x1="50%" x2="50%" y1="0%" y2="99.767737%"><stop offset="0" stop-color="#4985ff"/><stop offset="1" stop-color="#1d5cff"/></linearGradient><g fill="none" fill-rule="evenodd"><rect fill="url(#a)" fill-rule="nonzero" height="16" rx="4" width="16"/><path d="m10.5878358 9.29391789-1.29391791-1.29391789 1.29391791-1.29391789c.5327897-.53278972.4518527-.80177018.2926794-.99412755l-.0714458-.07829339-.4427306-.44273054-.0782934-.07144587c-.1923573-.15917324-.46133779-.24011026-.99412751.29267946l-1.29391789 1.29391789-1.29391789-1.29391789c-.53278972-.53278972-.80177018-.4518527-.99412755-.29267946l-.07829339.07144587-.44273054.44273054-.07144587.07829339c-.15917324.19235737-.24011026.46133783.29267946.99412755l1.29391789 1.29391789-1.29391789 1.29391789c-.53278972.53278972-.4518527.80177021-.29267946.99412751l.07144587.0782934.44273054.4427306.07829339.0714458c.19235737.1591733.46133783.2401103.99412755-.2926794l1.29391789-1.29391791 1.3812296 1.37942451c.22783348.2151975.61741143.5036881 1.0217608.0993388l.3696908-.3696908c.3754672-.3754673.1535368-.73819797-.0523824-.97051722z" fill="#fff"/></g></svg>