<?xml version="1.0" encoding="UTF-8"?>
<svg width="16px" height="16px" viewBox="0 0 16 16" version="1.1" xmlns="http://www.w3.org/2000/svg" xmlns:xlink="http://www.w3.org/1999/xlink">
    <title>chcek/check-on</title>
    <defs>
        <linearGradient x1="50%" y1="0%" x2="50%" y2="99.7677365%" id="linearGradient-1">
            <stop stop-color="#4985FF" offset="0%"></stop>
            <stop stop-color="#1D5CFF" offset="100%"></stop>
        </linearGradient>
    </defs>
    <g id="Symbols" stroke="none" stroke-width="1" fill="none" fill-rule="evenodd">
        <g id="chcek/check-on" fill="url(#linearGradient-1)" fill-rule="nonzero">
            <path d="M12,0 C14.209139,-4.05812251e-16 16,1.790861 16,4 L16,12 C16,14.209139 14.209139,16 12,16 L4,16 C1.790861,16 2.705415e-16,14.209139 0,12 L0,4 C-2.705415e-16,1.790861 1.790861,4.05812251e-16 4,0 L12,0 Z M11.9334017,4.079853 L6.18046121,10.0564788 L4.06662016,7.86044755 C3.96413434,7.75397689 3.79796122,7.75397689 3.69545353,7.86044755 L3.07686436,8.50308864 C2.97437855,8.6095593 2.97437855,8.78219354 3.07686436,8.88868692 L5.99486696,11.920147 C6.09735278,12.0266177 6.2635259,12.0266177 6.36603358,11.920147 L12.9231356,5.10809237 C13.0256215,5.00162171 13.0256215,4.82898747 12.9231356,4.72249409 L12.3045465,4.079853 C12.2020607,3.97338233 12.0358875,3.97338233 11.9334017,4.079853 Z"></path>
        </g>
    </g>
</svg>