<svg xmlns="http://www.w3.org/2000/svg" width="26" height="26" viewBox="0 0 26 26">
    <defs>
        <linearGradient id="prefix__a" x1="50%" x2="50%" y1="0%" y2="99.768%">
            <stop offset="0%" stop-color="#4985FF"/>
            <stop offset="100%" stop-color="#1D5CFF"/>
        </linearGradient>
    </defs>
    <g fill="none">
        <rect width="26" height="26" fill="url(#prefix__a)" rx="4"/>
        <path fill="#FFF" d="M18.917 17.99l-2.845-2.846c-.054-.054-.124-.082-.199-.082h-.31c.739-.855 1.187-1.969 1.187-3.187C16.75 9.182 14.568 7 11.875 7S7 9.182 7 11.875s2.182 4.875 4.875 4.875c1.218 0 2.332-.448 3.187-1.186v.309c0 .075.03.145.082.2l2.845 2.844c.11.11.289.11.399 0l.53-.53c.11-.11.11-.288 0-.398zm-7.042-2.365c-2.072 0-3.75-1.678-3.75-3.75s1.678-3.75 3.75-3.75 3.75 1.678 3.75 3.75-1.678 3.75-3.75 3.75z"/>
    </g>
</svg>
