<svg xmlns="http://www.w3.org/2000/svg" width="18" height="16" viewBox="0 0 18 16">
    <path fill="#1d5cff" fill-rule="nonzero" d="M17.525 10.306l-2.956-2.772a.188.188 0 0 0-.266.01L13.878 8a.188.188 0 0 0 .01.265l1.853 1.738h-3.61l-1 2H6.87l-1-2H2.263l1.853-1.738A.19.19 0 0 0 4.125 8l-.428-.457a.19.19 0 0 0-.266-.009L.475 10.306A1.497 1.497 0 0 0 0 11.4v3.1A1.5 1.5 0 0 0 1.5 16h15a1.5 1.5 0 0 0 1.5-1.5v-3.1c0-.416-.172-.81-.475-1.094zM17 14.5c0 .275-.225.5-.5.5h-15a.501.501 0 0 1-.5-.5v-3c0-.275.225-.5.5-.5h3.75l1 2h5.5l1-2h3.75c.275 0 .5.225.5.5v3zM5 6h2v3.25c0 .412.338.75.75.75h2.5c.412 0 .75-.338.75-.75V6h2c.887 0 1.338-1.079.706-1.707l-4-4a1.001 1.001 0 0 0-1.415 0l-4 4C3.666 4.921 4.109 6 5 6zm4-5l4 4h-3v4H8V5H5l4-4z"/>
</svg>
