<?xml version="1.0" encoding="UTF-8"?>
<svg width="8px" height="8px" viewBox="0 0 8 8" version="1.1" xmlns="http://www.w3.org/2000/svg" xmlns:xlink="http://www.w3.org/1999/xlink">
    <title>G-sign</title>
    <g id="Symbols" stroke="none" stroke-width="1" fill="none" fill-rule="evenodd">
        <g id="G-sign" fill="#fff" fill-rule="nonzero">
            <path d="M4.17485159,8 C6.40690772,8 8,6.75665399 8,4.70722433 L8,3.72623574 L4.30005397,3.72623574 L4.30005397,4.96577947 L6.1996762,4.96577947 C6.17377226,5.93155894 5.42687534,6.54372624 4.18348624,6.54372624 C2.78035618,6.54372624 1.89530491,5.61977186 1.89530491,3.99239544 C1.89530491,2.37262357 2.81489477,1.45627376 4.16621695,1.45627376 C5.12898003,1.45627376 5.78089584,1.89353612 6.01834862,2.62357414 L7.91797086,2.62357414 C7.67620076,1.08365019 6.13491635,0 4.13599568,0 C1.8003238,0 0,1.48288973 0,4.00760456 C0,6.47148289 1.68375607,8 4.17485159,8 Z"></path>
        </g>
    </g>
</svg>