<svg xmlns="http://www.w3.org/2000/svg" xmlns:xlink="http://www.w3.org/1999/xlink" width="640" height="640" viewBox="0 0 640 640">
    <defs>
        <circle id="a" cx="172" cy="219" r="8"/>
    </defs>
    <g fill="none" fill-rule="evenodd">
        <path fill="#3D5059" fill-rule="nonzero" d="M4 636h632V230.75c0-72.55-6.093-104.102-23.57-136.78-15.314-28.636-37.764-51.086-66.4-66.4C513.352 10.092 481.8 4 409.25 4h-178.5C158.2 4 126.648 10.093 93.97 27.57c-28.636 15.314-51.086 37.764-66.4 66.4C10.092 126.648 4 158.2 4 230.75V636zM230.75 0h178.5c80.237 0 109.333 8.354 138.666 24.042C577.25 39.73 600.27 62.75 615.958 92.084 631.646 121.417 640 150.513 640 230.75V640H0V230.75c0-80.237 8.354-109.333 24.042-138.666C39.73 62.75 62.75 39.73 92.084 24.042 121.417 8.354 150.513 0 230.75 0z"/>
        <path fill="#3D5059" d="M29 85h582v4H29zM0 451h640v16H0z"/>
        <path fill="#3D5059" fill-rule="nonzero" d="M172 311c50.81 0 92-41.19 92-92s-41.19-92-92-92-92 41.19-92 92 41.19 92 92 92zm0 4c-53.02 0-96-42.98-96-96s42.98-96 96-96 96 42.98 96 96-42.98 96-96 96z"/>
        <use fill="#3D5059" xlink:href="#a"/>
        <circle cx="172" cy="219" r="6" stroke="#3D5059" stroke-width="4"/>
        <path fill="#3D5059" fill-rule="nonzero" d="M468 311c50.81 0 92-41.19 92-92s-41.19-92-92-92-92 41.19-92 92 41.19 92 92 92zm0 4c-53.02 0-96-42.98-96-96s42.98-96 96-96 96 42.98 96 96-42.98 96-96 96z"/>
        <circle cx="468" cy="219" r="8" fill="#3D5059"/>
        <path fill="#3D5059" d="M277 86h86c0 24.028-19.252 43.506-42.494 43.506C296.252 129.506 277 110.028 277 86z"/>
    </g>
</svg>
