<svg height="32" viewBox="0 0 32 32" width="32" xmlns="http://www.w3.org/2000/svg" xmlns:xlink="http://www.w3.org/1999/xlink"><linearGradient id="a" x1="50%" x2="50%" y1="0%" y2="99.767737%"><stop offset="0" stop-color="#4985ff"/><stop offset="1" stop-color="#1d5cff"/></linearGradient><g fill="none"><path d="m14.2822134 0h3.4355732c4.0277951 0 6.1877321.55695367 8.1432876 1.60279622 1.9555556 1.04584256 3.490287 2.580574 4.5361296 4.53612956 1.0458425 1.95555555 1.6027962 4.11549252 1.6027962 8.14328762v3.4355732c0 4.0277951-.5569537 6.1877321-1.6027962 8.1432876-1.0458426 1.9555556-2.580574 3.490287-4.5361296 4.5361296-1.9555555 1.0458425-4.1154925 1.6027962-8.1432876 1.6027962h-3.4355732c-4.0277951 0-6.18773207-.5569537-8.14328762-1.6027962-1.95555556-1.0458426-3.490287-2.580574-4.53612956-4.5361296-1.04584255-1.9555555-1.60279622-4.1154925-1.60279622-8.1432876v-3.4355732c0-4.0277951.55695367-6.18773207 1.60279622-8.14328762 1.04584256-1.95555556 2.580574-3.490287 4.53612956-4.53612956 1.95555555-1.04584255 4.11549252-1.60279622 8.14328762-1.60279622z" fill="url(#a)"/><path d="m16 18.7096774c-.4988387 0-.9032258.4043871-.9032258.9032258s.4043871.9032258.9032258.9032258.9032258-.4043871.9032258-.9032258-.4043871-.9032258-.9032258-.9032258zm.2474194-.7741935h-.5161291c-.2137742 0-.3870968-.1733226-.3870968-.3870968v-.0122903c0-2.2691291 2.4980646-2.0522258 2.4980646-3.4647742 0-.6456774-.5729355-1.2971291-1.8529033-1.2971291-.940129 0-1.4279032.3112581-1.9100322.9255484-.1260645.1606452-.3565807.1933871-.5241291.0766452l-.4236774-.2951613c-.1814516-.1264193-.2212903-.3797097-.0853226-.5540968.6847097-.8782903 1.4970968-1.443258 2.9431613-1.443258 1.687742 0 3.1432258.9597096 3.1432258 2.5874516 0 2.1746451-2.4980645 2.0596451-2.4980645 3.4647742v.0122903c0 .2137742-.1733226.3870968-.3870967.3870968zm-.2474194-8.90322584c3.8264839 0 6.9677419 3.09919354 6.9677419 6.96774194 0 3.8480968-3.1164516 6.9677419-6.9677419 6.9677419-3.8465806 0-6.96774194-3.1149032-6.96774194-6.9677419 0-3.8452581 3.11619354-6.96774194 6.96774194-6.96774194m0-1.03225806c-4.4179677 0-8 3.5833226-8 8 0 4.4192581 3.5820323 8 8 8s8-3.5807419 8-8c0-4.4166774-3.5820323-8-8-8z" fill="#fff"/></g></svg>