<svg xmlns="http://www.w3.org/2000/svg" xmlns:xlink="http://www.w3.org/1999/xlink" width="144" height="89" viewBox="0 0 144 89">
    <defs>
        <path id="b" d="M975.667 636a8 8 0 0 0-4.8 1.6L965 642l-5.867-4.4a8 8 0 0 0-4.8-1.6H909a4 4 0 0 1-4-4v-52a4 4 0 0 1 4-4h112a4 4 0 0 1 4 4v52a4 4 0 0 1-4 4h-45.333z"/>
        <filter id="a" width="131.7%" height="157.6%" x="-15.8%" y="-25.8%" filterUnits="objectBoundingBox">
            <feOffset dy="2" in="SourceAlpha" result="shadowOffsetOuter1"/>
            <feGaussianBlur in="shadowOffsetOuter1" result="shadowBlurOuter1" stdDeviation="6"/>
            <feColorMatrix in="shadowBlurOuter1" values="0 0 0 0 0.0823529412 0 0 0 0 0.11372549 0 0 0 0 0.133333333 0 0 0 0.247459572 0"/>
        </filter>
    </defs>
    <g fill="none" fill-rule="evenodd" transform="translate(-893 -566)">
        <use fill="#000" filter="url(#a)" xlink:href="#b"/>
        <use fill="#FFF" xlink:href="#b"/>
    </g>
</svg>
