<svg xmlns="http://www.w3.org/2000/svg" width="64" height="51" viewBox="0 0 64 51">
    <path fill="#878D96" fill-rule="nonzero" d="M62.4 35.071H41.06c-.3 0-.58-.17-.72-.438l-2.98-5.937 11.8-23.53c.39-.787.07-1.743-.72-2.142L42.73.175a1.598 1.598 0 0 0-2.15.718L32 17.997 23.42.883a1.612 1.612 0 0 0-2.15-.718l-5.73 2.85a1.603 1.603 0 0 0-.72 2.141l11.8 23.53-2.98 5.937a.804.804 0 0 1-.72.438H1.6c-.88 0-1.6.718-1.6 1.594v12.751C0 50.283.72 51 1.6 51h18.63c3.64 0 6.96-2.052 8.59-5.29L32 39.375l3.18 6.335A9.616 9.616 0 0 0 43.77 51H62.4c.88 0 1.6-.717 1.6-1.594v-12.74c0-.878-.72-1.595-1.6-1.595zM18.41 5.166l2.86-1.424 8.94 17.821-1.79 3.566L18.41 5.166zM3.2 47.822V38.26h3.2v9.563H3.2zm22.76-3.526a6.366 6.366 0 0 1-5.72 3.526H9.6V38.26h13.34c1.53 0 2.9-.847 3.58-2.202L42.73 3.742l2.86 1.424-19.63 39.13zm17.81 3.526a6.366 6.366 0 0 1-5.72-3.526l-4.25-8.478 1.79-3.566 1.91 3.795a3.981 3.981 0 0 0 3.58 2.202H54.4v9.563H43.77v.01zm17.03 0h-3.2V38.26h3.2v9.563z"/>
</svg>
