<svg xmlns="http://www.w3.org/2000/svg" xmlns:xlink="http://www.w3.org/1999/xlink" width="960" height="480"><defs><rect id="a" width="960" height="480" rx="128"/></defs><g fill="none" fill-rule="evenodd"><rect width="960" height="480" fill="#F1F3F5" fill-rule="nonzero" rx="128"/><mask id="b" fill="#fff"><use xlink:href="#a"/></mask><path fill="#343A40" fill-rule="nonzero" d="M64 480V0h2v480h-2zm832 0h-2V0h2v480z" mask="url(#b)"/><path fill="#343A40" fill-rule="nonzero" d="M145 53.521V44h2v9.138A74.455 74.455 0 0 1 160 52c4.435 0 8.78.39 13 1.138V44h2v9.521c33.677 6.934 59 36.75 59 72.479 0 35.73-25.323 65.545-59 72.479V208h-2v-9.138A74.455 74.455 0 0 1 160 200c-4.435 0-8.78-.39-13-1.138V208h-2v-9.521c-33.677-6.934-59-36.75-59-72.479 0-35.73 25.323-65.545 59-72.479zm15 144.423c39.734 0 71.944-32.21 71.944-71.944S199.734 54.056 160 54.056 88.056 86.266 88.056 126s32.21 71.944 71.944 71.944zM148 120v-12h2v14h-18v-2h16zm24 0h16v2h-18v-14h2v12zm-24 12h-16v-2h18v14h-2v-12zm24 0v12h-2v-14h18v2h-16zm-12 0a6 6 0 1 1 0-12 6 6 0 0 1 0 12zm-15 149.521V272h2v9.138A74.455 74.455 0 0 1 160 280c4.435 0 8.78.39 13 1.138V272h2v9.521c33.677 6.934 59 36.75 59 72.479 0 35.73-25.323 65.545-59 72.479V436h-2v-9.138A74.455 74.455 0 0 1 160 428c-4.435 0-8.78-.39-13-1.138V436h-2v-9.521c-33.677-6.934-59-36.75-59-72.479 0-35.73 25.323-65.545 59-72.479zm15 144.423c39.734 0 71.944-32.21 71.944-71.944s-32.21-71.944-71.944-71.944S88.056 314.266 88.056 354s32.21 71.944 71.944 71.944zM148 348v-12h2v14h-18v-2h16zm24 0h16v2h-18v-14h2v12zm-24 12h-16v-2h18v14h-2v-12zm24 0v12h-2v-14h18v2h-16zm-12 0a6 6 0 1 1 0-12 6 6 0 0 1 0 12zM785 53.521V44h2v9.138A74.455 74.455 0 0 1 800 52c4.435 0 8.78.39 13 1.138V44h2v9.521c33.677 6.934 59 36.75 59 72.479 0 35.73-25.323 65.545-59 72.479V208h-2v-9.138A74.455 74.455 0 0 1 800 200c-4.435 0-8.78-.39-13-1.138V208h-2v-9.521c-33.677-6.934-59-36.75-59-72.479 0-35.73 25.323-65.545 59-72.479zm15 144.423c39.734 0 71.944-32.21 71.944-71.944S839.734 54.056 800 54.056 728.056 86.266 728.056 126s32.21 71.944 71.944 71.944zM788 120v-12h2v14h-18v-2h16zm24 0h16v2h-18v-14h2v12zm-24 12h-16v-2h18v14h-2v-12zm24 0v12h-2v-14h18v2h-16zm-12 0a6 6 0 1 1 0-12 6 6 0 0 1 0 12zm-15 149.521V272h2v9.138A74.455 74.455 0 0 1 800 280c4.435 0 8.78.39 13 1.138V272h2v9.521c33.677 6.934 59 36.75 59 72.479 0 35.73-25.323 65.545-59 72.479V436h-2v-9.138A74.455 74.455 0 0 1 800 428c-4.435 0-8.78-.39-13-1.138V436h-2v-9.521c-33.677-6.934-59-36.75-59-72.479 0-35.73 25.323-65.545 59-72.479zm15 144.423c39.734 0 71.944-32.21 71.944-71.944s-32.21-71.944-71.944-71.944-71.944 32.21-71.944 71.944 32.21 71.944 71.944 71.944zM788 348v-12h2v14h-18v-2h16zm24 0h16v2h-18v-14h2v12zm-24 12h-16v-2h18v14h-2v-12zm24 0v12h-2v-14h18v2h-16zm-12 0a6 6 0 1 1 0-12 6 6 0 0 1 0 12z"/><path fill="#343A40" fill-rule="nonzero" d="M338 480L338 0 342 0 342 480z"/><path fill="#343A40" fill-rule="nonzero" d="M478 480L478 0 482 0 482 480z"/><path fill="#343A40" fill-rule="nonzero" d="M618 480L618 0 622 0 622 480z"/><circle cx="364" cy="352" r="6" fill="#343A40" fill-rule="nonzero" transform="rotate(-90 364 352)"/><circle cx="364" cy="128" r="6" fill="#343A40" fill-rule="nonzero" transform="rotate(-90 364 128)"/><circle cx="596" cy="352" r="6" fill="#343A40" fill-rule="nonzero" transform="rotate(-90 596 352)"/><circle cx="596" cy="128" r="6" fill="#343A40" fill-rule="nonzero" transform="rotate(-90 596 128)"/><path fill="#343A40" fill-rule="nonzero" d="M480 314c40.87 0 74-33.13 74-74s-33.13-74-74-74-74 33.13-74 74 33.13 74 74 74zm0-2.056c-39.734 0-71.944-32.21-71.944-71.944s32.21-71.944 71.944-71.944 71.944 32.21 71.944 71.944-32.21 71.944-71.944 71.944z"/><circle cx="480" cy="240" r="6" fill="#343A40" fill-rule="nonzero"/><path fill="#343A40" d="M64 261v-42h21.373C90.68 224.62 94 231.964 94 240s-3.32 15.38-8.627 21H64zm832 0h-21.373c-5.307-5.62-8.627-12.964-8.627-21s3.32-15.38 8.627-21H896v42z"/><path fill="#343A40" fill-rule="nonzero" d="M900.893 222.271c3.048 1.706 5.107 4.955 5.107 8.683v18.091c0 .199-.006.397-.018.595-.21 3.509-2.223 6.484-5.088 8.088l1.705.2c6.582.769 12.545-3.916 13.319-10.465.055-.462.082-.928.082-1.394v-12.14c0-6.594-5.373-11.94-12-11.94-.468 0-.936.028-1.401.083l-1.706.2zM918 246.07c0 .544-.032 1.087-.096 1.627-.903 7.64-7.86 13.106-15.539 12.207l-8.365-.978v-37.851l8.365-.979A14.07 14.07 0 0 1 904 220c7.732 0 14 6.236 14 13.93v12.14zm-14-15.092c0-4.395-3.582-7.959-8-7.959v34c4.203.004 7.731-3.255 7.986-7.483.01-.159.014-.317.014-.476v-18.082zm-844.893-8.706l-1.706-.2A12.06 12.06 0 0 0 56 221.99c-6.627 0-12 5.345-12 11.94v12.14c0 .465.027.93.082 1.393.774 6.55 6.737 11.234 13.32 10.464l1.704-.2c-2.865-1.603-4.877-4.578-5.088-8.087a9.909 9.909 0 0 1-.018-.595v-18.09c0-3.729 2.059-6.978 5.107-8.684zM42 246.07v-12.14C42 226.236 48.268 220 56 220c.546 0 1.092.032 1.635.095l8.365.979v37.85l-8.365.98c-7.68.898-14.636-4.568-15.54-12.208a13.86 13.86 0 0 1-.095-1.627zm14-15.092v18.082c0 .159.005.317.014.476.255 4.228 3.783 7.487 7.986 7.483v-34c-4.418 0-8 3.564-8 7.96z"/></g></svg>