<?xml version="1.0" encoding="utf-8"?>
<!-- Generator: Adobe Illustrator 22.0.0, SVG Export Plug-In . SVG Version: 6.00 Build 0)  -->
<svg version="1.1" id="Vrstva_1" xmlns="http://www.w3.org/2000/svg" xmlns:xlink="http://www.w3.org/1999/xlink" x="0px" y="0px"
	 viewBox="0 0 480 960" style="enable-background:new 0 0 480 960;" xml:space="preserve">
<style type="text/css">
	.st0{fill:#F1F3F5;}
	.st1{filter:url(#Adobe_OpacityMaskFilter);}
	.st2{fill:#FFFFFF;}
	.st3{mask:url(#b_2_);fill:#343A40;}
	.st4{fill:#343A40;}
	.st5{fill:#C92A2A;fill-opacity:0.101;}
</style>
<g>
	<path class="st0" d="M480,128v704c0,70.7-57.3,128-128,128H128C57.3,960,0,902.7,0,832V128C0,57.3,57.3,0,128,0h224
		C422.7,0,480,57.3,480,128z"/>
	<defs>
		<filter id="Adobe_OpacityMaskFilter" filterUnits="userSpaceOnUse" x="0" y="65" width="480" height="832">
			<feColorMatrix  type="matrix" values="1 0 0 0 0  0 1 0 0 0  0 0 1 0 0  0 0 0 1 0"/>
		</filter>
	</defs>
	<mask maskUnits="userSpaceOnUse" x="0" y="65" width="480" height="832" id="b_2_">
		<g class="st1">
			<path id="a_2_" class="st2" d="M480,129v704c0,70.7-57.3,128-128,128H128C57.3,961,0,903.7,0,833V129C0,58.3,57.3,1,128,1h224
				C422.7,1,480,58.3,480,129z"/>
		</g>
	</mask>
	<path class="st3" d="M0,65h480v2H0V65z M0,897v-2h480v2H0z"/>
	<path class="st4" d="M426.5,146h9.5v2h-9.1c0.8,4.3,1.1,8.6,1.1,13c0,4.4-0.4,8.8-1.1,13h9.1v2h-9.5c-6.9,33.7-36.8,59-72.5,59
		c-35.7,0-65.5-25.3-72.5-59H272v-2h9.1c-0.8-4.3-1.1-8.6-1.1-13c0-4.4,0.4-8.8,1.1-13H272v-2h9.5c6.9-33.7,36.8-59,72.5-59
		C389.7,87,419.5,112.3,426.5,146L426.5,146z M282.1,161c0,39.7,32.2,71.9,71.9,71.9s71.9-32.2,71.9-71.9S393.7,89.1,354,89.1
		S282.1,121.3,282.1,161z M360,149h12v2h-14v-18h2V149z M360,173v16h-2v-18h14v2H360z M348,149v-16h2v18h-14v-2H348z M348,173h-12
		v-2h14v18h-2V173z M348,161c0-3.3,2.7-6,6-6s6,2.7,6,6s-2.7,6-6,6S348,164.3,348,161z M198.5,146h9.5v2h-9.1
		c0.8,4.3,1.1,8.6,1.1,13c0,4.4-0.4,8.8-1.1,13h9.1v2h-9.5c-6.9,33.7-36.8,59-72.5,59c-35.7,0-65.5-25.3-72.5-59H44v-2h9.1
		c-0.8-4.3-1.1-8.6-1.1-13c0-4.4,0.4-8.8,1.1-13H44v-2h9.5c6.9-33.7,36.8-59,72.5-59C161.7,87,191.5,112.3,198.5,146z M54.1,161
		c0,39.7,32.2,71.9,71.9,71.9s71.9-32.2,71.9-71.9S165.7,89.1,126,89.1S54.1,121.3,54.1,161z M132,149h12v2h-14v-18h2V149z M132,173
		v16h-2v-18h14v2H132z M120,149v-16h2v18h-14v-2H120z M120,173h-12v-2h14v18h-2V173z M120,161c0-3.3,2.7-6,6-6s6,2.7,6,6s-2.7,6-6,6
		S120,164.3,120,161z M426.5,786h9.5v2h-9.1c0.8,4.3,1.1,8.6,1.1,13c0,4.4-0.4,8.8-1.1,13h9.1v2h-9.5c-6.9,33.7-36.8,59-72.5,59
		c-35.7,0-65.5-25.3-72.5-59H272v-2h9.1c-0.8-4.3-1.1-8.6-1.1-13c0-4.4,0.4-8.8,1.1-13H272v-2h9.5c6.9-33.7,36.8-59,72.5-59
		C389.7,727,419.5,752.3,426.5,786L426.5,786z M282.1,801c0,39.7,32.2,71.9,71.9,71.9s71.9-32.2,71.9-71.9s-32.2-71.9-71.9-71.9
		S282.1,761.3,282.1,801z M360,789h12v2h-14v-18h2V789z M360,813v16h-2v-18h14v2H360z M348,789v-16h2v18h-14v-2H348z M348,813h-12
		v-2h14v18h-2V813z M348,801c0-3.3,2.7-6,6-6s6,2.7,6,6s-2.7,6-6,6S348,804.3,348,801z M198.5,786h9.5v2h-9.1
		c0.8,4.3,1.1,8.6,1.1,13c0,4.4-0.4,8.8-1.1,13h9.1v2h-9.5c-6.9,33.7-36.8,59-72.5,59c-35.7,0-65.5-25.3-72.5-59H44v-2h9.1
		c-0.8-4.3-1.1-8.6-1.1-13c0-4.4,0.4-8.8,1.1-13H44v-2h9.5c6.9-33.7,36.8-59,72.5-59C161.7,727,191.5,752.3,198.5,786z M54.1,801
		c0,39.7,32.2,71.9,71.9,71.9s71.9-32.2,71.9-71.9s-32.2-71.9-71.9-71.9S54.1,761.3,54.1,801z M132,789h12v2h-14v-18h2V789z
		 M132,813v16h-2v-18h14v2H132z M120,789v-16h2v18h-14v-2H120z M120,813h-12v-2h14v18h-2V813z M120,801c0-3.3,2.7-6,6-6s6,2.7,6,6
		s-2.7,6-6,6S120,804.3,120,801z"/>
	<path class="st4" d="M0,339h480v4H0V339z"/>
	<path class="st4" d="M0,479h480v4H0V479z"/>
	<path class="st4" d="M0,619h480v4H0V619z"/>
	<circle class="st4" cx="128" cy="365" r="6"/>
	<circle class="st4" cx="352" cy="365" r="6"/>
	<circle class="st4" cx="128" cy="597" r="6"/>
	<circle class="st4" cx="352" cy="597" r="6"/>
	<path class="st4" d="M166,481c0,40.9,33.1,74,74,74s74-33.1,74-74s-33.1-74-74-74S166,440.1,166,481z M168.1,481
		c0-39.7,32.2-71.9,71.9-71.9s71.9,32.2,71.9,71.9s-32.2,71.9-71.9,71.9S168.1,520.7,168.1,481L168.1,481z"/>
	<circle class="st4" cx="240" cy="481" r="6"/>
	<path class="st4" d="M219,65h42v21.4c-5.6,5.3-13,8.6-21,8.6s-15.4-3.3-21-8.6V65z M219,897v-21.4c5.6-5.3,13-8.6,21-8.6
		s15.4,3.3,21,8.6V897H219z"/>
	<path class="st4" d="M257.7,901.9c-1.7,3-5,5.1-8.7,5.1H231c-0.2,0-0.4,0-0.6,0c-3.5-0.2-6.5-2.2-8.1-5.1l-0.2,1.7
		c-0.8,6.6,3.9,12.5,10.5,13.3c0.5,0.1,0.9,0.1,1.4,0.1h12.1c6.6,0,11.9-5.4,11.9-12c0-0.5,0-0.9-0.1-1.4L257.7,901.9L257.7,901.9z
		 M233.9,919c-0.5,0-1.1,0-1.6-0.1c-7.6-0.9-13.1-7.9-12.2-15.5l1-8.4h37.9l1,8.4c0.1,0.5,0.1,1.1,0.1,1.6c0,7.7-6.2,14-13.9,14
		H233.9L233.9,919z M249,905c4.4,0,8-3.6,8-8h-34c0,4.2,3.3,7.7,7.5,8c0.2,0,0.3,0,0.5,0H249z M257.7,60.1l0.2-1.7
		c0.1-0.5,0.1-0.9,0.1-1.4c0-6.6-5.3-12-11.9-12h-12.1c-0.5,0-0.9,0-1.4,0.1c-6.6,0.8-11.2,6.7-10.5,13.3l0.2,1.7
		c1.6-2.9,4.6-4.9,8.1-5.1c0.2,0,0.4,0,0.6,0H249C252.8,55,256,57.1,257.7,60.1L257.7,60.1z M233.9,43h12.1c7.7,0,13.9,6.3,13.9,14
		c0,0.5,0,1.1-0.1,1.6l-1,8.4h-37.9l-1-8.4c-0.9-7.7,4.6-14.6,12.2-15.5C232.8,43,233.4,43,233.9,43L233.9,43z M249,57h-18.1
		c-0.2,0-0.3,0-0.5,0c-4.2,0.3-7.5,3.8-7.5,8h34C257,60.6,253.4,57,249,57L249,57z"/>
	<g transform="translate(64 120)">
		<path class="st5" d="M204-55l92,96.1V115H56V41.1L148-55H204z"/>
		<path class="st5" d="M148,777l-92-96.1V607h240v73.9L204,777H148z"/>
	</g>
</g>
</svg>
