<svg height="582" viewBox="0 0 760 582" width="760" xmlns="http://www.w3.org/2000/svg" xmlns:xlink="http://www.w3.org/1999/xlink"><defs><path id="a" d="m0 143.817 149.939-143.817h118.061v378h-118.061l-149.939-144.817z"/><mask id="b" fill="#fff"><use fill="#fff" fill-rule="evenodd" xlink:href="#a"/></mask></defs><g fill="none" fill-rule="evenodd"><path d="m560 0c110.45695 0 200 89.54305 200 200v382h-760v-382c0-110.45695 89.54305-200 200-200z" fill="#fff" fill-rule="nonzero"/><g fill="#121619"><path d="m560 0c110.45695 0 200 89.54305 200 200v382h-760v-382c0-110.45695 89.54305-200 200-200zm0 2h-360c-108.2588567 0-196.22497713 86.8835319-197.97347366 194.725708l-.02652634 3.274292v380h756v-380c0-108.2588567-86.883532-196.22497713-194.725708-197.97347366z" fill-rule="nonzero"/><path d="m347 102h66v33.569181c-8.8314 8.877763-20.372118 14.430819-33 14.430819s-24.1686-5.553056-33-14.430819z"/><path d="m348.773956 102-1.614542-13.9422449c-1.482093-12.7985001 7.536087-24.3934997 20.142671-25.8981563.890689-.1063081 1.786744-.1595988 2.683568-.1595988h20.030903c12.693406 0 22.983444 10.4466892 22.983444 23.3333333 0 .9104766-.052492 1.8201728-.157206 2.7244218l-1.614542 13.9422449zm45.984936-20h-29.517273c-.278778 0-.557501.0094106-.835814.028221-7.70941.5210562-13.708256 8.0390969-13.394044 16.9556416l.014976.3392639.035263.6758735h57.867l.027973-.3982459c.019116-.2811156.031867-.5627278.038244-.8445547l.004783-.4228661c0-8.9575965-6.273726-16.151492-13.948979-16.3299397zm-4.742336-18h-20.030903c-.817601 0-1.634508.0485836-2.446541.1455037-11.389739 1.3594203-19.582207 11.7585826-18.431136 23.3276717l.038162.3545129.584677 5.0531517c1.950702-7.0666678 7.60686-12.3794678 14.540124-12.8480666.323198-.0218441.646903-.0327734.97068-.0327734h29.517273c7.288709 0 13.456007 5.4198477 15.511629 12.8840619l.58555-5.0563736c.071902-.6209063.116911-1.2446278.134922-1.8693569l.009007-.6249981c0-11.6708942-9.21434-21.1422179-20.636645-21.3304772z" fill-rule="nonzero"/><path d="m732 100v2h-704v-2z" fill-rule="nonzero"/><path d="m200 140c54.371744 0 99.853103 38.064267 111.249934 88.998658l12.750066.001342v2l-12.321501-.001476c1.522109 7.429333 2.321501 15.12205 2.321501 23.001476s-.799392 15.572143-2.321501 23.001476l12.321501-.001476v2l-12.750066.001342c-11.396831 50.934391-56.87819 88.998658-111.249934 88.998658s-99.853103-38.064267-111.249934-88.998658l-12.750066-.001342v-2l12.3215008.001476c-1.5221083-7.429333-2.3215008-15.12205-2.3215008-23.001476s.7993925-15.572143 2.3215008-23.001476l-12.3215008.001476v-2l12.750066-.001342c11.396831-50.934391 56.87819-88.998658 111.249934-88.998658zm0 2c-61.855892 0-112 50.144108-112 112s50.144108 112 112 112 112-50.144108 112-112-50.144108-112-112-112zm-9 128v30h-2v-28h-17v-2zm37 0v2h-17v28h-2v-30zm-37-62v30h-19v-2h17v-28zm20 0v28h17v2h-19v-30z" fill-rule="nonzero"/><circle cx="200" cy="254" fill-rule="nonzero" r="9" transform="matrix(0 1 -1 0 454 54)"/><path d="m560 140c54.3721 0 99.853698 38.064764 111.250158 88.999657l12.749842.000343v2l-12.321296-.000476c1.521975 7.429023 2.321296 15.121404 2.321296 23.000476 0 7.879426-.799392 15.572143-2.321501 23.001476l12.321501-.001476v2l-12.750066.001342c-11.396831 50.934391-56.87819 88.998658-111.249934 88.998658s-99.853103-38.064267-111.249934-88.998658l-12.750066-.001342v-2l12.321501.001476c-1.522109-7.429333-2.321501-15.12205-2.321501-23.001476 0-7.879072.799321-15.571453 2.321296-23.000476l-12.321296.000476v-2l12.749842-.000343c11.39646-50.934893 56.878058-88.999657 111.250158-88.999657zm0 2c-61.855892 0-112 50.144108-112 112s50.144108 112 112 112 112-50.144108 112-112-50.144108-112-112-112zm-9 128v30h-2v-28h-17v-2zm37 0v2h-17v28h-2v-30zm-28-25c4.970563 0 9 4.029437 9 9s-4.029437 9-9 9-9-4.029437-9-9 4.029437-9 9-9zm-9-37v30h-19v-2h17v-28zm20 0v28h17v2h-19v-30z" fill-rule="nonzero"/></g><g fill="#d91e28" fill-rule="nonzero" transform="matrix(0 1 -1 0 569 100)"><use fill-opacity=".05" xlink:href="#a"/><path d="m59.885 77 145.115 112.189-145.115 111.811h-59.885v-224z" fill-opacity=".051" mask="url(#b)"/></g></g></svg>