<svg xmlns="http://www.w3.org/2000/svg" width="720" height="720" viewBox="0 0 720 720">
    <g fill="none" fill-rule="evenodd">
        <path fill="#F5F7F8" fill-rule="nonzero" d="M720 192v528H0V192C0 85.961 85.961 0 192 0h336c106.039 0 192 85.961 192 192z"/>
        <path fill="#343A40" fill-rule="nonzero" d="M0 96h720v3H0zM312 220h-13.797A111.65 111.65 0 0 1 300 240c0 6.478-.555 12.827-1.62 19.002L312 259v3l-14.18.001C287.612 312.766 242.77 351 189 351c-53.771 0-98.612-38.234-108.82-88.999L66 262v-3l13.62.002A111.716 111.716 0 0 1 78 240c0-6.828.617-13.512 1.797-20H66v-3h14.386c10.591-50.267 55.196-88 108.614-88 53.418 0 98.023 37.733 108.614 88H312v3zm-15.167 20c0-59.647-48.353-108-108-108-59.646 0-108 48.353-108 108s48.354 108 108 108c59.647 0 108-48.353 108-108zM183 225h-21v-3h18v-24h3v27zm0 57h-3v-24h-18v-3h21v27zm15-42a9 9 0 1 1-18 0 9 9 0 0 1 18 0zm18-15h-21v-27h3v24h18v3zm0 33h-18v24h-3v-27h21v3zm438-37l-13.62-.002A111.716 111.716 0 0 1 642 240c0 6.828-.617 13.512-1.797 20H654v3h-14.386c-10.591 50.267-55.196 88-108.614 88-53.771 0-98.612-38.234-108.82-88.999L408 262v-3l13.62.002A111.716 111.716 0 0 1 420 240c0-6.828.617-13.512 1.797-20H408v-3h14.386c10.591-50.267 55.196-88 108.614-88 53.771 0 98.612 38.234 108.82 88.999L654 218v3zm-15.167 19c0-59.647-48.353-108-108-108-59.646 0-108 48.353-108 108s48.354 108 108 108c59.647 0 108-48.353 108-108zM525 225h-21v-3h18v-24h3v27zm0 57h-3v-24h-18v-3h21v27zm15-42a9 9 0 1 1-18 0 9 9 0 0 1 18 0zm18-15h-21v-27h3v24h18v3zm0 33h-18v24h-3v-27h21v3zM720 513H0v-6h720v6zm0 207H0v-3h720v3zM201 546a9 9 0 1 1-18 0 9 9 0 0 1 18 0zm336 0a9 9 0 1 1-18 0 9 9 0 0 1 18 0z"/>
        <path fill="#343A40" d="M329 96h62v32c-8.43 8.02-18.946 13-31 13-12.054 0-22.57-4.98-31-13V96z"/>
        <path fill="#343A40" fill-rule="nonzero" d="M390 84c0 .82-.048 1.638-.143 2.452L388.39 99h-56.776l-1.468-12.548c-1.347-11.519 6.85-21.954 18.311-23.308a20.79 20.79 0 0 1 2.44-.144h18.21C380.646 63 390 72.402 390 84zm-2.985 0c0-9.941-8.018-18-17.909-18h-18.21c-.699 0-1.397.041-2.091.123-9.823 1.16-16.85 10.106-15.696 19.979l.3 2.557c2.405-4.297 6.868-7.316 12.13-7.632.298-.018.595-.027.893-.027h27.137c5.592 0 10.466 3.088 13.024 7.66l.3-2.558c.081-.698.122-1.4.122-2.102zm-1.542 12c0-6.627-5.345-12-11.939-12h-27.122c-.238 0-.476.007-.714.021-6.342.382-11.231 5.675-11.225 11.979h51z"/>
    </g>
</svg>
