<?xml version="1.0" encoding="UTF-8"?>
<svg width="1024px" height="512px" viewBox="0 0 1024 512" version="1.1" xmlns="http://www.w3.org/2000/svg" xmlns:xlink="http://www.w3.org/1999/xlink">
    <title>hriste-1024px</title>
    <defs>
        <rect id="path-1" x="0" y="0" width="1024" height="512" rx="136.533333"></rect>
    </defs>
    <g id="3.-Videomapy" stroke="none" stroke-width="1" fill="none" fill-rule="evenodd">
        <g id="3.4.0---Videomapy---mapa-vhazování-default" transform="translate(-448.000000, -348.000000)">
            <g id="hriste-1024px" transform="translate(448.000000, 348.000000)">
                <rect id="hriste-zaklad" stroke="#121619" stroke-width="2" fill-rule="nonzero" x="1" y="1" width="1022" height="510" rx="136.533333"></rect>
                <g id="net-lines">
                    <mask id="mask-2" fill="white">
                        <use xlink:href="#path-1"></use>
                    </mask>
                    <g id="Mask" fill-rule="nonzero"></g>
                    <polygon id="brankova" fill="#121619" fill-rule="nonzero" mask="url(#mask-2)" points="68 512 68 0 70 0 70 512"></polygon>
                    <polygon id="brankova" fill="#121619" fill-rule="nonzero" mask="url(#mask-2)" points="954 512 954 0 956 0 956 512"></polygon>
                </g>
                <g id="Group-24" transform="translate(96.000000, 44.000000)" fill-rule="nonzero">
                    <path d="M80,10 C101.815248,10 121.565248,18.8423762 135.861436,33.1385643 C150.157624,47.4347524 159,67.1847524 159,89 C159,110.815248 150.157624,130.565248 135.861436,144.861436 C121.565248,159.157624 101.815248,168 80,168 C58.1847524,168 38.4347524,159.157624 24.1385643,144.861436 C9.84237619,130.565248 1,110.815248 1,89 C1,67.1847524 9.84237619,47.4347524 24.1385643,33.1385643 C38.4347524,18.8423762 58.1847524,10 80,10 Z" id="Path" stroke="#121619" stroke-width="2"></path>
                    <path d="M65,167 L65,178 L63,178 L63,167 L65,167 Z M97,167 L97,178 L95,178 L95,167 L97,167 Z" id="Combined-Shape" fill="#121619"></path>
                    <path d="M65,0 L65,11 L63,11 L63,0 L65,0 Z M97,0 L97,11 L95,11 L95,0 L97,0 Z" id="Combined-Shape" fill="#121619"></path>
                    <path d="M69,94 L69,109 L67,109 L67,96 L49,96 L49,94 L69,94 Z M111,94 L111,96 L93,96 L93,109 L91,109 L91,94 L111,94 Z M69,69 L69,84 L49,84 L49,82 L67,82 L67,69 L69,69 Z M93,69 L93,82 L111,82 L111,84 L91,84 L91,69 L93,69 Z" id="Combined-Shape" fill="#121619"></path>
                    <circle id="Oval" fill="#121619" cx="80" cy="89" r="6"></circle>
                </g>
                <g id="Group-24" transform="translate(96.000000, 290.000000)" fill-rule="nonzero">
                    <path d="M80,10 C101.815248,10 121.565248,18.8423762 135.861436,33.1385643 C150.157624,47.4347524 159,67.1847524 159,89 C159,110.815248 150.157624,130.565248 135.861436,144.861436 C121.565248,159.157624 101.815248,168 80,168 C58.1847524,168 38.4347524,159.157624 24.1385643,144.861436 C9.84237619,130.565248 1,110.815248 1,89 C1,67.1847524 9.84237619,47.4347524 24.1385643,33.1385643 C38.4347524,18.8423762 58.1847524,10 80,10 Z" id="Path" stroke="#121619" stroke-width="2"></path>
                    <path d="M65,167 L65,178 L63,178 L63,167 L65,167 Z M97,167 L97,178 L95,178 L95,167 L97,167 Z" id="Combined-Shape" fill="#121619"></path>
                    <path d="M65,0 L65,11 L63,11 L63,0 L65,0 Z M97,0 L97,11 L95,11 L95,0 L97,0 Z" id="Combined-Shape" fill="#121619"></path>
                    <path d="M69,94 L69,109 L67,109 L67,96 L49,96 L49,94 L69,94 Z M111,94 L111,96 L93,96 L93,109 L91,109 L91,94 L111,94 Z M69,69 L69,84 L49,84 L49,82 L67,82 L67,69 L69,69 Z M93,69 L93,82 L111,82 L111,84 L91,84 L91,69 L93,69 Z" id="Combined-Shape" fill="#121619"></path>
                    <circle id="Oval" fill="#121619" cx="80" cy="89" r="6"></circle>
                </g>
                <g id="Group-24" transform="translate(768.000000, 44.000000)" fill-rule="nonzero">
                    <path d="M80,10 C101.815248,10 121.565248,18.8423762 135.861436,33.1385643 C150.157624,47.4347524 159,67.1847524 159,89 C159,110.815248 150.157624,130.565248 135.861436,144.861436 C121.565248,159.157624 101.815248,168 80,168 C58.1847524,168 38.4347524,159.157624 24.1385643,144.861436 C9.84237619,130.565248 1,110.815248 1,89 C1,67.1847524 9.84237619,47.4347524 24.1385643,33.1385643 C38.4347524,18.8423762 58.1847524,10 80,10 Z" id="Path" stroke="#121619" stroke-width="2"></path>
                    <path d="M65,167 L65,178 L63,178 L63,167 L65,167 Z M97,167 L97,178 L95,178 L95,167 L97,167 Z" id="Combined-Shape" fill="#121619"></path>
                    <path d="M65,0 L65,11 L63,11 L63,0 L65,0 Z M97,0 L97,11 L95,11 L95,0 L97,0 Z" id="Combined-Shape" fill="#121619"></path>
                    <path d="M69,94 L69,109 L67,109 L67,96 L49,96 L49,94 L69,94 Z M111,94 L111,96 L93,96 L93,109 L91,109 L91,94 L111,94 Z M69,69 L69,84 L49,84 L49,82 L67,82 L67,69 L69,69 Z M93,69 L93,82 L111,82 L111,84 L91,84 L91,69 L93,69 Z" id="Combined-Shape" fill="#121619"></path>
                    <circle id="Oval" fill="#121619" cx="80" cy="89" r="6"></circle>
                </g>
                <g id="Group-24" transform="translate(768.000000, 290.000000)" fill-rule="nonzero">
                    <path d="M80,10 C101.815248,10 121.565248,18.8423762 135.861436,33.1385643 C150.157624,47.4347524 159,67.1847524 159,89 C159,110.815248 150.157624,130.565248 135.861436,144.861436 C121.565248,159.157624 101.815248,168 80,168 C58.1847524,168 38.4347524,159.157624 24.1385643,144.861436 C9.84237619,130.565248 1,110.815248 1,89 C1,67.1847524 9.84237619,47.4347524 24.1385643,33.1385643 C38.4347524,18.8423762 58.1847524,10 80,10 Z" id="Path" stroke="#121619" stroke-width="2"></path>
                    <path d="M65,167 L65,178 L63,178 L63,167 L65,167 Z M97,167 L97,178 L95,178 L95,167 L97,167 Z" id="Combined-Shape" fill="#121619"></path>
                    <path d="M65,0 L65,11 L63,11 L63,0 L65,0 Z M97,0 L97,11 L95,11 L95,0 L97,0 Z" id="Combined-Shape" fill="#121619"></path>
                    <path d="M69,94 L69,109 L67,109 L67,96 L49,96 L49,94 L69,94 Z M111,94 L111,96 L93,96 L93,109 L91,109 L91,94 L111,94 Z M69,69 L69,84 L49,84 L49,82 L67,82 L67,69 L69,69 Z M93,69 L93,82 L111,82 L111,84 L91,84 L91,69 L93,69 Z" id="Combined-Shape" fill="#121619"></path>
                    <circle id="Oval" fill="#121619" cx="80" cy="89" r="6"></circle>
                </g>
                <path d="M512,177.230769 C533.751522,177.230769 553.44383,186.047316 567.698257,200.301743 C581.952684,214.55617 590.769231,234.248478 590.769231,256 C590.769231,277.751522 581.952684,297.44383 567.698257,311.698257 C553.44383,325.952684 533.751522,334.769231 512,334.769231 C490.248478,334.769231 470.55617,325.952684 456.301743,311.698257 C442.047316,297.44383 433.230769,277.751522 433.230769,256 C433.230769,234.248478 442.047316,214.55617 456.301743,200.301743 C470.55617,186.047316 490.248478,177.230769 512,177.230769 Z" id="Path" stroke="#121619" stroke-width="2.46153846" fill-rule="nonzero"></path>
                <circle id="buly" fill="#121619" fill-rule="nonzero" cx="512" cy="256" r="6"></circle>
                <circle id="buly" fill="#121619" fill-rule="nonzero" transform="translate(390.000000, 133.000000) rotate(-810.000000) translate(-390.000000, -133.000000) " cx="390" cy="133" r="6"></circle>
                <circle id="buly" fill="#121619" fill-rule="nonzero" transform="translate(390.000000, 379.000000) rotate(-810.000000) translate(-390.000000, -379.000000) " cx="390" cy="379" r="6"></circle>
                <circle id="buly" fill="#121619" fill-rule="nonzero" transform="translate(634.000000, 133.000000) rotate(-810.000000) translate(-634.000000, -133.000000) " cx="634" cy="133" r="6"></circle>
                <circle id="buly" fill="#121619" fill-rule="nonzero" transform="translate(634.000000, 379.000000) rotate(-810.000000) translate(-634.000000, -379.000000) " cx="634" cy="379" r="6"></circle>
                <polygon id="blueline" fill="#121619" fill-rule="nonzero" points="362 512 362 0 366 0 366 512"></polygon>
                <polygon id="blueline" fill="#121619" fill-rule="nonzero" points="658 512 658 0 662 0 662 512"></polygon>
                <polygon id="blueline" fill="#121619" fill-rule="nonzero" points="510 512 510 0 514 0 514 512"></polygon>
                <path d="M68,278 L68,234 L90.3794542,234 C96.2979626,239.8876 100,247.581412 100,256 C100,264.418588 96.2979626,272.1124 90.3794542,278 L68,278 Z" id="brankoviste-L" fill="#121619"></path>
                <path d="M58.75,235 C59.326597,235 59.9026998,235.032831 60.475353,235.098327 L60.475353,235.098327 L69,236.073312 L69,275.925216 L60.475353,276.900201 C56.4253992,277.363404 52.565186,276.187318 49.5987812,273.908636 C46.6431907,271.638262 44.5750539,268.272158 44.1005063,264.345303 C44.0335604,263.79133 44,263.23402 44,262.676231 L44,262.676231 L44,249.322296 C44,245.370382 45.6487448,241.793921 48.3103757,239.204569 C50.9821086,236.605389 54.6736837,235 58.75,235 Z" id="Path" stroke="#121619" stroke-width="2" fill-rule="nonzero"></path>
                <path d="M67.5,236 C67.796745,236 68.0933812,236.010005 68.3892559,236.029994 L68.3892559,236.029994 L69,236.071256 L69,275.938921 L68.1944603,275.981372 C65.0051171,276.149447 62.0371181,275.170524 59.82062,273.44006 C57.654733,271.749109 56.2070365,269.336205 56.0200397,266.587302 C56.0066833,266.390958 56,266.194308 56,265.997613 L56,265.997613 L56,246.002041 C56,243.253023 57.2780721,240.771945 59.3218622,238.973076 C61.4148302,237.130922 64.3084435,236 67.5,236 Z" id="Path" stroke="#121619" stroke-width="2" fill-rule="nonzero"></path>
                <path d="M924,278 L924,234 L946.379454,234 C952.297963,239.8876 956,247.581412 956,256 C956,264.418588 952.297963,272.1124 946.379454,278 L924,278 Z" id="brankoviste-L" fill="#121619" transform="translate(940.000000, 256.000000) scale(-1, 1) translate(-940.000000, -256.000000) "></path>
                <path d="M969.75,235 C970.326597,235 970.9027,235.032831 971.475353,235.098327 L971.475353,235.098327 L980,236.073312 L980,275.925216 L971.475353,276.900201 C967.425399,277.363404 963.565186,276.187318 960.598781,273.908636 C957.643191,271.638262 955.575054,268.272158 955.100506,264.345303 C955.03356,263.79133 955,263.23402 955,262.676231 L955,262.676231 L955,249.322296 C955,245.370382 956.648745,241.793921 959.310376,239.204569 C961.982109,236.605389 965.673684,235 969.75,235 Z" id="Path" stroke="#121619" stroke-width="2" fill-rule="nonzero" transform="translate(967.500000, 256.000000) scale(-1, 1) translate(-967.500000, -256.000000) "></path>
                <path d="M966.5,236 C966.796745,236 967.093381,236.010005 967.389256,236.029994 L967.389256,236.029994 L968,236.071256 L968,275.938921 L967.19446,275.981372 C964.005117,276.149447 961.037118,275.170524 958.82062,273.44006 C956.654733,271.749109 955.207036,269.336205 955.02004,266.587302 C955.006683,266.390958 955,266.194308 955,265.997613 L955,265.997613 L955,246.002041 C955,243.253023 956.278072,240.771945 958.321862,238.973076 C960.41483,237.130922 963.308443,236 966.5,236 Z" id="Path" stroke="#121619" stroke-width="2" fill-rule="nonzero" transform="translate(961.500000, 256.000000) scale(-1, 1) translate(-961.500000, -256.000000) "></path>
            </g>
        </g>
    </g>
</svg>