<svg xmlns="http://www.w3.org/2000/svg" xmlns:xlink="http://www.w3.org/1999/xlink" width="760" height="556" viewBox="0 0 760 556">
    <defs>
        <path id="prefix__a" d="M311.167-108.5H651.5v760H311.167c-111.93 0-202.667-90.737-202.667-202.667V94.167c0-111.93 90.737-202.667 202.667-202.667z"/>
        <path id="prefix__c" d="M0 146.817L158.939 0 282 0 282 384 158.939 384 0 236.183z"/>
    </defs>
    <g fill="none" fill-rule="evenodd">
        <path fill="#FFF" fill-rule="nonzero" stroke="#121619" stroke-width="2" d="M557.333 1c55.69 0 106.106 22.53 142.6 58.958C736.429 96.385 759 146.708 759 202.294h0V555H1V202.294C1 146.708 23.572 96.385 60.066 59.958 96.561 23.531 146.978 1 202.666 1h0z"/>
        <mask id="prefix__b" fill="#fff">
            <use xlink:href="#prefix__a"/>
        </mask>
        <path fill="#121619" fill-rule="nonzero" d="M379.002 482.998L379.002 -277.002 380.998 -277.002 380.998 482.998z" mask="url(#prefix__b)" transform="rotate(90 380 102.998)"/>
        <path fill="#121619" d="M347 102h66v33.57c-8.831 8.877-20.372 14.43-33 14.43s-24.169-5.553-33-14.43V102z"/>
        <path fill-rule="nonzero" stroke="#121619" stroke-width="2" d="M412 87.333c0 .872-.05 1.744-.15 2.61h0L410.336 103h-60.672l-1.512-13.057c-.71-6.128 1.093-11.968 4.584-16.456 3.486-4.482 8.655-7.615 14.684-8.334.851-.102 1.707-.153 2.565-.153h20.03c6.07 0 11.563 2.499 15.54 6.536 3.982 4.043 6.444 9.628 6.444 15.797h0z"/>
        <path fill-rule="nonzero" stroke="#121619" stroke-width="2" d="M410 100.333c0 .446-.015.891-.045 1.336h0l-.09 1.331h-59.75l-.087-1.624c-.254-4.796 1.231-9.258 3.85-12.59 2.58-3.285 6.267-5.472 10.46-5.756.301-.02.602-.03.904-.03h29.517c4.196 0 7.988 1.931 10.736 5.033 2.788 3.148 4.505 7.499 4.505 12.3z"/>
        <g fill-rule="nonzero" transform="translate(67 146)">
            <path fill="#121619" d="M260 96v-2h-14v2h14zm0 48v-2h-14v2h14zM14 96.001v-2H0v2h14zm0 47.998v-2H0v2h14z"/>
            <path stroke="#121619" stroke-width="2" d="M248 119c0 32.585-13.208 62.085-34.561 83.439C192.085 223.792 162.585 237 130 237c-32.585 0-62.085-13.208-83.439-34.561C25.208 181.085 12 151.585 12 119c0-32.585 13.208-62.085 34.561-83.439C67.915 14.208 97.415 1 130 1c32.585 0 62.085 13.208 83.439 34.561C234.792 56.915 248 86.415 248 119z"/>
            <path fill="#121619" d="M124 138L98 138 98 158 100 158 100 140 124 140z" transform="rotate(90 111 148)"/>
            <path fill="#121619" d="M159 135L139 135 139 161 141 161 141 137 159 137zM121 77L119 77 119 101 101 101 101 103 121 103zM141 77L139 77 139 103 159 103 159 101 141 101z"/>
            <circle cx="130" cy="119" r="9" fill="#121619" transform="rotate(90 130 119)"/>
        </g>
        <g fill-rule="nonzero" transform="translate(433 146)">
            <path fill="#121619" d="M260 96v-2h-14v2h14zm0 48v-2h-14v2h14zM14 96.001v-2H0v2h14zm0 47.998v-2H0v2h14z"/>
            <path stroke="#121619" stroke-width="2" d="M248 119c0 32.585-13.208 62.085-34.561 83.439C192.085 223.792 162.585 237 130 237c-32.585 0-62.085-13.208-83.439-34.561C25.208 181.085 12 151.585 12 119c0-32.585 13.208-62.085 34.561-83.439C67.915 14.208 97.415 1 130 1c32.585 0 62.085 13.208 83.439 34.561C234.792 56.915 248 86.415 248 119z"/>
            <path fill="#121619" d="M124 138L98 138 98 158 100 158 100 140 124 140z" transform="rotate(90 111 148)"/>
            <path fill="#121619" d="M159 135L139 135 139 161 141 161 141 137 159 137zM121 77L119 77 119 101 101 101 101 103 121 103zM141 77L139 77 139 103 159 103 159 101 141 101z"/>
            <circle cx="130" cy="119" r="9" fill="#121619" transform="rotate(90 130 119)"/>
        </g>
        <g transform="rotate(90 235 337)">
            <mask id="prefix__d" fill="#fff">
                <use xlink:href="#prefix__c"/>
            </mask>
            <use fill="#D91E28" fill-opacity=".05" fill-rule="nonzero" xlink:href="#prefix__c"/>
            <path fill="#D91E28" fill-opacity=".051" fill-rule="nonzero" d="M64.885 79.811L205 191.425 64.885 302.811 0 236.73 0 145.893z" mask="url(#prefix__d)"/>
        </g>
    </g>
</svg>
