<?xml version="1.0" encoding="UTF-8" standalone="no"?>
<svg
   height="582"
   viewBox="0 0 760 582"
   width="760"
   version="1.1"
   id="svg109"
   sodipodi:docname="hriste_760x582_rotated.svg"
   inkscape:version="1.1 (c4e8f9e, 2021-05-24)"
   xmlns:inkscape="http://www.inkscape.org/namespaces/inkscape"
   xmlns:sodipodi="http://sodipodi.sourceforge.net/DTD/sodipodi-0.dtd"
   xmlns:xlink="http://www.w3.org/1999/xlink"
   xmlns="http://www.w3.org/2000/svg"
   xmlns:svg="http://www.w3.org/2000/svg">
  <sodipodi:namedview
     id="namedview111"
     pagecolor="#ffffff"
     bordercolor="#666666"
     borderopacity="1.0"
     inkscape:pageshadow="2"
     inkscape:pageopacity="0.0"
     inkscape:pagecheckerboard="0"
     showgrid="false"
     inkscape:zoom="1.3350515"
     inkscape:cx="379.76062"
     inkscape:cy="291"
     inkscape:window-width="1315"
     inkscape:window-height="1003"
     inkscape:window-x="435"
     inkscape:window-y="74"
     inkscape:window-maximized="0"
     inkscape:current-layer="svg109" />
  <defs
     id="defs81">
    <path
       id="a"
       d="m0 143.817 149.939-143.817h118.061v378h-118.061l-149.939-144.817z" />
    <mask
       id="b"
       fill="#fff">
      <use
         fill="#fff"
         fill-rule="evenodd"
         xlink:href="#a"
         id="use78" />
    </mask>
  </defs>
  <g
     fill="none"
     fill-rule="evenodd"
     id="g107"
     transform="rotate(180,380,291)">
    <path
       d="M 560,0 C 670.45695,0 760,89.54305 760,200 V 582 H 0 V 200 C 0,89.54305 89.54305,0 200,0 Z"
       fill="#ffffff"
       fill-rule="nonzero"
       id="path83" />
    <g
       fill="#121619"
       id="g99">
      <path
         d="M 560,0 C 670.45695,0 760,89.54305 760,200 V 582 H 0 V 200 C 0,89.54305 89.54305,0 200,0 Z m 0,2 H 200 C 91.741143,2 3.7750229,88.883532 2.0265263,196.72571 L 2,200 V 580 H 758 V 200 C 758,91.741143 671.11647,3.7750229 563.27429,2.0265263 Z"
         fill-rule="nonzero"
         id="path85" />
      <path
         d="m 347,102 h 66 v 33.56918 C 404.1686,144.44694 392.62788,150 380,150 c -12.62788,0 -24.1686,-5.55306 -33,-14.43082 z"
         id="path87" />
      <path
         d="m 348.77396,102 -1.61455,-13.942245 c -1.48209,-12.7985 7.53609,-24.3935 20.14268,-25.898156 C 368.19277,62.053291 369.08883,62 369.98565,62 h 20.03091 C 402.70996,62 413,72.446689 413,85.333333 c 0,0.910477 -0.0525,1.820173 -0.15721,2.724422 L 411.22825,102 Z m 45.98493,-20 h -29.51727 c -0.27878,0 -0.5575,0.0094 -0.83582,0.02822 -7.70941,0.521056 -13.70825,8.039097 -13.39404,16.955642 l 0.015,0.339264 0.0353,0.675873 h 57.867 l 0.028,-0.398246 c 0.0191,-0.281116 0.0319,-0.562728 0.0383,-0.844555 L 409,98.333333 c 0,-8.957596 -6.27373,-16.151492 -13.94898,-16.329939 z m -4.74233,-18 h -20.03091 c -0.8176,0 -1.63451,0.04858 -2.44654,0.145504 -11.38974,1.35942 -19.58221,11.758582 -18.43113,23.327671 l 0.0382,0.354513 0.58467,5.053152 c 1.95071,-7.066668 7.60686,-12.379468 14.54013,-12.848067 C 364.59414,80.010929 364.91784,80 365.24162,80 h 29.51727 c 7.28871,0 13.45601,5.419848 15.51163,12.884062 l 0.58555,-5.056374 c 0.0719,-0.620906 0.11691,-1.244627 0.13492,-1.869357 L 411,85.333333 c 0,-11.670894 -9.21434,-21.142218 -20.63665,-21.330477 z"
         fill-rule="nonzero"
         id="path89" />
      <path
         d="m 732,100 v 2 H 28 v -2 z"
         fill-rule="nonzero"
         id="path91" />
      <path
         d="m 200,140 c 54.37174,0 99.8531,38.06427 111.24993,88.99866 L 324,229 v 2 l -12.3215,-0.001 C 313.20061,238.42786 314,246.12057 314,254 c 0,7.87943 -0.79939,15.57214 -2.3215,23.00148 L 324,277 v 2 l -12.75007,10e-4 C 299.8531,329.93573 254.37174,368 200,368 145.62826,368 100.1469,329.93573 88.750066,279.00134 L 76,279 v -2 l 12.321501,10e-4 C 86.799392,269.57214 86,261.87943 86,254 c 0,-7.87943 0.799392,-15.57214 2.321501,-23.00148 L 76,231 v -2 l 12.750066,-0.001 C 100.1469,178.06427 145.62826,140 200,140 Z m 0,2 c -61.85589,0 -112,50.14411 -112,112 0,61.85589 50.14411,112 112,112 61.85589,0 112,-50.14411 112,-112 0,-61.85589 -50.14411,-112 -112,-112 z m -9,128 v 30 h -2 v -28 h -17 v -2 z m 37,0 v 2 h -17 v 28 h -2 v -30 z m -37,-62 v 30 h -19 v -2 h 17 v -28 z m 20,0 v 28 h 17 v 2 h -19 v -30 z"
         fill-rule="nonzero"
         id="path93" />
      <circle
         cx="200"
         cy="254"
         fill-rule="nonzero"
         r="9"
         transform="rotate(90,200,254)"
         id="circle95" />
      <path
         d="m 560,140 c 54.3721,0 99.8537,38.06476 111.25016,88.99966 L 684,229 v 2 l -12.3213,-4.8e-4 C 673.20068,238.42855 674,246.12093 674,254 c 0,7.87943 -0.79939,15.57214 -2.3215,23.00148 L 684,277 v 2 l -12.75007,10e-4 C 659.8531,329.93573 614.37174,368 560,368 505.62826,368 460.1469,329.93573 448.75007,279.00134 L 436,279 v -2 l 12.3215,10e-4 C 446.79939,269.57214 446,261.87943 446,254 c 0,-7.87907 0.79932,-15.57145 2.3213,-23.00048 L 436,231 v -2 l 12.74984,-3.4e-4 C 460.1463,178.06476 505.6279,140 560,140 Z m 0,2 c -61.85589,0 -112,50.14411 -112,112 0,61.85589 50.14411,112 112,112 61.85589,0 112,-50.14411 112,-112 0,-61.85589 -50.14411,-112 -112,-112 z m -9,128 v 30 h -2 v -28 h -17 v -2 z m 37,0 v 2 h -17 v 28 h -2 v -30 z m -28,-25 c 4.97056,0 9,4.02944 9,9 0,4.97056 -4.02944,9 -9,9 -4.97056,0 -9,-4.02944 -9,-9 0,-4.97056 4.02944,-9 9,-9 z m -9,-37 v 30 h -19 v -2 h 17 v -28 z m 20,0 v 28 h 17 v 2 h -19 v -30 z"
         fill-rule="nonzero"
         id="path97" />
    </g>
    <g
       fill="#d91e28"
       fill-rule="nonzero"
       transform="rotate(90,234.5,334.5)"
       id="g105">
      <use
         fill-opacity="0.05"
         xlink:href="#a"
         id="use101"
         x="0"
         y="0"
         width="100%"
         height="100%" />
      <path
         d="M 59.885,77 205,189.189 59.885,301 H 0 V 77 Z"
         fill-opacity="0.051"
         mask="url(#b)"
         id="path103" />
    </g>
  </g>
</svg>
