<svg xmlns="http://www.w3.org/2000/svg" width="1024" height="512" viewBox="0 0 1024 512">
  <g fill="none">
    <path fill="#FFF" d="M392 0L392 512 136 512C60.889274 512 0 451.110726 0 376L0 136C0 60.889274 60.889274 0 136 0L392 0zM888 0C963.110726 0 1024 60.889274 1024 136L1024 376C1024 451.110726 963.110726 512 888 512L632 512 632 0 888 0z"/>
    <path fill="#121619" d="M392 0L392 512 136 512C60.889274 512 0 451.110726 0 376L0 136C0 60.889274 60.889274 0 136 0L392 0zM390 510L390 2 136 2C62.7339051 2 3.2012781 60.799966 2.01795217 133.784065L2 136 2 376C2 449.266095 60.799966 508.798722 133.784065 509.982048L136 510 390 510zM888 0C963.110726 0 1024 60.889274 1024 136L1024 376C1024 451.110726 963.110726 512 888 512L632 512 632 0 888 0zM634 510L888 510C961.266095 510 1020.79872 451.200034 1021.98205 378.215935L1022 376 1022 136C1022 62.7339051 963.200034 3.2012781 890.215935 2.01795217L888 2 634 2 634 510z"/>
    <rect width="240" height="512" x="392" fill="#FFF"/>
    <rect width="240" height="2" x="392" fill="#121619"/>
    <rect width="240" height="2" x="392" y="510" fill="#121619"/>
    <rect width="2" height="474" x="68" y="19" fill="#121619"/>
    <rect width="2" height="474" x="954" y="19" fill="#121619"/>
    <rect width="4" height="512" x="388" fill="#121619"/>
    <rect width="4" height="512" x="632" fill="#121619"/>
    <rect width="4" height="512" x="510" fill="#121619"/>
    <path fill="#121619" d="M68,278 L68,234 L90.3794542,234 C96.2979626,239.8876 100,247.581412 100,256 C100,264.418588 96.2979626,272.1124 90.3794542,278 L68,278 Z"/>
    <path fill="#121619" d="M59.75 234C60.3645717 234 60.9786166 234.034994 61.5889847 234.104804L69.258 235.086 70 235.136536 70 276.88761 69.072 276.936 61.5889847 277.893724C52.9499971 278.881786 45.1233724 272.869666 44.1077292 264.465277 44.0359712 263.871484 44 263.274114 44 262.676231L44 249.322296C44 240.860026 51.0515152 234 59.75 234zM59.75 236C52.2495891 236 46.1709473 241.812228 46.003543 249.017051L46 249.322296 46 262.676231C46 263.193906 46.0311463 263.711149 46.0932833 264.225329 46.9631319 271.423276 53.6124063 276.622968 61.017313 275.942669L61.3351141 275.909902 61.9031052 275.837221C58.0470836 274.134085 55.2987484 270.718371 55.0223455 266.655171 55.0074518 266.43623 55 266.216946 55 265.997613L55 246.002041C55 241.695989 57.8105919 237.96772 61.905203 236.160865L61.3617213 236.09185C61.0051119 236.051063 60.6470566 236.023837 60.2883793 236.010217L59.75 236zM67.5 237C61.7474085 237 57.1579127 240.953688 57.0039892 245.753059L57 246.002041 57 265.997613C57 266.171655 57.0059134 266.345666 57.017734 266.519432 57.346499 271.35237 62.1243817 275.160121 67.8451118 274.994864L68 274.988 68 237.011 67.9112433 237.006933 67.5 237zM956 278L956 234 933.620546 234C927.702037 239.8876 924 247.581412 924 256 924 264.418588 927.702037 272.1124 933.620546 278L956 278z"/>
    <path fill="#121619" d="M964.25 234C972.841096 234 979.825637 240.691688 979.996786 249.009621L980 249.322296 980 262.676231C980 263.274114 979.964029 263.871484 979.892271 264.465277 978.889166 272.765908 971.242215 278.732974 962.730595 277.927126L962.411015 277.893724 954.928 276.936 954 276.88761 954 235.136536 954.742 235.086 962.411015 234.104804C963.021383 234.034994 963.635428 234 964.25 234zM964.25 236C963.84602 236 963.442306 236.017252 963.051256 236.050328L962.664886 236.088626 962.094797 236.160865C966.100517 237.928494 968.877363 241.535019 968.996042 245.722429L969 246.002041 969 265.997613C969 266.216946 968.992548 266.43623 968.977655 266.655171 968.701228 270.718723 965.95244 274.134677 962.095892 275.837663L962.638279 275.906678C970.091461 276.759117 976.834634 271.67062 977.866528 264.528328L977.906717 264.225329C977.948141 263.882542 977.975792 263.538394 977.989624 263.193665L978 262.676231 978 249.322296C978 241.977106 971.856051 236 964.25 236zM956.5 237L956.088757 237.006933 956 237.011 956 274.988 956.154888 274.994864C961.776985 275.157272 966.488466 271.482491 966.961311 266.768483L966.982266 266.519432 966.995566 266.258626 967 265.997613 967 246.002041C967 241.091198 962.351774 237 956.5 237zM156 290L155.999944 301.460203C160.85169 300.502221 165.867195 300 171 300 176.133159 300 181.149001 300.50229 186.001058 301.460401L186 290 188 290 188.001586 301.883261C222.347062 309.623676 248 340.316056 248 377 248 413.683944 222.347062 444.376324 188.001586 452.116739L188 464 186 464 186.001058 452.539599C181.149001 453.49771 176.133159 454 171 454 165.867195 454 160.85169 453.497779 155.999944 452.539797L156 464 154 464 153.999413 452.116964C119.653435 444.376919 94 413.6843 94 377 94 340.3157 119.653435 309.623081 153.999413 301.883036L154 290 156 290zM171 302C129.578644 302 96 335.578644 96 377 96 418.421356 129.578644 452 171 452 212.421356 452 246 418.421356 246 377 246 335.578644 212.421356 302 171 302zM160 382L160 396 158 396 158 384 140 384 140 382 160 382zM202 382L202 384 184 384 184 396 182 396 182 382 202 382zM171 371C174.313708 371 177 373.686292 177 377 177 380.313708 174.313708 383 171 383 167.686292 383 165 380.313708 165 377 165 373.686292 167.686292 371 171 371zM160 358L160 372 140 372 140 370 158 370 158 358 160 358zM184 358L184 370 202 370 202 372 182 372 182 358 184 358zM156 48L155.999944 59.4602028C160.85169 58.5022207 165.867195 58 171 58 176.133159 58 181.149001 58.5022899 186.001058 59.4604007L186 48 188 48 188.001586 59.8832613C222.347062 67.6236758 248 98.3160555 248 135 248 171.683944 222.347062 202.376324 188.001586 210.116739L188 222 186 222 186.001058 210.539599C181.149001 211.49771 176.133159 212 171 212 165.867195 212 160.85169 211.497779 155.999944 210.539797L156 222 154 222 153.999413 210.116964C119.653435 202.376919 94 171.6843 94 135 94 98.3157 119.653435 67.6230808 153.999413 59.8830363L154 48 156 48zM171 60C129.578644 60 96 93.5786438 96 135 96 176.421356 129.578644 210 171 210 212.421356 210 246 176.421356 246 135 246 93.5786438 212.421356 60 171 60zM160 140L160 154 158 154 158 142 140 142 140 140 160 140zM202 140L202 142 184 142 184 154 182 154 182 140 202 140zM171 129C174.313708 129 177 131.686292 177 135 177 138.313708 174.313708 141 171 141 167.686292 141 165 138.313708 165 135 165 131.686292 167.686292 129 171 129zM160 116L160 130 140 130 140 128 158 128 158 116 160 116zM184 116L184 128 202 128 202 130 182 130 182 116 184 116zM512 179C554.525926 179 589 213.474074 589 256 589 298.525926 554.525926 333 512 333 469.474074 333 435 298.525926 435 256 435 213.474074 469.474074 179 512 179zM512 181C470.578644 181 437 214.578644 437 256 437 297.421356 470.578644 331 512 331 553.421356 331 587 297.421356 587 256 587 214.578644 553.421356 181 512 181zM512 250C515.313708 250 518 252.686292 518 256 518 259.313708 515.313708 262 512 262 508.686292 262 506 259.313708 506 256 506 252.686292 508.686292 250 512 250zM838 290L837.999944 301.460203C842.85169 300.502221 847.867195 300 853 300 858.133159 300 863.149001 300.50229 868.001058 301.460401L868 290 870 290 870.001586 301.883261C904.347062 309.623676 930 340.316056 930 377 930 413.683944 904.347062 444.376324 870.001586 452.116739L870 464 868 464 868.001058 452.539599C863.149001 453.49771 858.133159 454 853 454 847.867195 454 842.85169 453.497779 837.999944 452.539797L838 464 836 464 835.999413 452.116964C801.653435 444.376919 776 413.6843 776 377 776 340.3157 801.653435 309.623081 835.999413 301.883036L836 290 838 290zM853 302C811.578644 302 778 335.578644 778 377 778 418.421356 811.578644 452 853 452 894.421356 452 928 418.421356 928 377 928 335.578644 894.421356 302 853 302zM842 382L842 396 840 396 840 384 822 384 822 382 842 382zM884 382L884 384 866 384 866 396 864 396 864 382 884 382zM853 371C856.313708 371 859 373.686292 859 377 859 380.313708 856.313708 383 853 383 849.686292 383 847 380.313708 847 377 847 373.686292 849.686292 371 853 371zM842 358L842 372 822 372 822 370 840 370 840 358 842 358zM866 358L866 370 884 370 884 372 864 372 864 358 866 358zM838 48L837.999944 59.4602028C842.85169 58.5022207 847.867195 58 853 58 858.133159 58 863.149001 58.5022899 868.001058 59.4604007L868 48 870 48 870.001586 59.8832613C904.347062 67.6236758 930 98.3160555 930 135 930 171.683944 904.347062 202.376324 870.001586 210.116739L870 222 868 222 868.001058 210.539599C863.149001 211.49771 858.133159 212 853 212 847.867195 212 842.85169 211.497779 837.999944 210.539797L838 222 836 222 835.999413 210.116964C801.653435 202.376919 776 171.6843 776 135 776 98.3157 801.653435 67.6230808 835.999413 59.8830363L836 48 838 48zM853 60C811.578644 60 778 93.5786438 778 135 778 176.421356 811.578644 210 853 210 894.421356 210 928 176.421356 928 135 928 93.5786438 894.421356 60 853 60zM842 140L842 154 840 154 840 142 822 142 822 140 842 140zM884 140L884 142 866 142 866 154 864 154 864 140 884 140zM853 129C856.313708 129 859 131.686292 859 135 859 138.313708 856.313708 141 853 141 849.686292 141 847 138.313708 847 135 847 131.686292 849.686292 129 853 129zM842 116L842 130 822 130 822 128 840 128 840 116 842 116zM866 116L866 128 884 128 884 130 864 130 864 116 866 116z"/>
    <circle cx="416" cy="377" r="6" fill="#121619"/>
    <circle cx="416" cy="135" r="6" fill="#121619"/>
    <circle cx="608" cy="377" r="6" fill="#121619"/>
    <circle cx="608" cy="135" r="6" fill="#121619"/>
  </g>
</svg>
