<svg xmlns="http://www.w3.org/2000/svg" width="640" height="624" viewBox="0 0 640 624"><g fill="none" fill-rule="evenodd"><path fill="#3D5059" fill-rule="nonzero" d="M1 623h638V239.296c0-75.712-6.413-108.924-24.814-143.33-16.176-30.245-39.907-53.976-70.152-70.152C509.628 7.414 476.416 1 400.704 1H239.296c-75.712 0-108.924 6.413-143.33 24.814C65.721 41.99 41.99 65.721 25.814 95.966 7.414 130.372 1 163.584 1 239.296V623zM239.296 0h161.408c83.208 0 113.382 8.664 143.802 24.932 30.42 16.269 54.293 40.143 70.562 70.562C631.336 125.914 640 156.088 640 239.296V624H0V239.296c0-83.208 8.664-113.382 24.932-143.802 16.269-30.42 40.143-54.293 70.562-70.562C125.914 8.664 156.088 0 239.296 0z"/><path fill="#3D5059" d="M31 85L609 85 611 90 29 90z"/><path fill="#3D5059" stroke="#3D5059" d="M0.5 616.5H639.5V623.5H0.5z"/><path fill="#3D5059" d="M0 446H640V451H0z"/><g fill="#3D5059" transform="translate(75.733 122.667)"><path fill-rule="nonzero" d="M96 191c52.467 0 95-42.533 95-95S148.467 1 96 1 1 43.533 1 96s42.533 95 95 95zm0 1c-53.02 0-96-42.98-96-96S42.98 0 96 0s96 42.98 96 96-42.98 96-96 96z"/><circle cx="96" cy="96" r="8"/></g><g fill="#3D5059" transform="translate(372.267 122.667)"><path fill-rule="nonzero" d="M96 191c52.467 0 95-42.533 95-95S148.467 1 96 1 1 43.533 1 96s42.533 95 95 95zm0 1c-53.02 0-96-42.98-96-96S42.98 0 96 0s96 42.98 96 96-42.98 96-96 96z"/><circle cx="96" cy="96" r="8"/></g><path fill="#3D5059" d="M277.333 86.4h85.334c0 23.564-19.103 42.667-42.667 42.667s-42.667-19.103-42.667-42.667z"/><g transform="translate(174 89)"><path fill="#FF1744" fill-opacity=".25" d="M72 0L220 0 292 122.225 292 226 0 226 0 122.225z"/><path fill="#3D5059" fill-rule="nonzero" d="M72.572 1L1 122.497V225h290V122.497L219.428 1H72.572zM72 0h148l72 122.225V226H0V122.225L72 0z"/></g></g></svg>