<svg height="512" viewBox="0 0 512 512" width="512" xmlns="http://www.w3.org/2000/svg"><g fill="none" transform="matrix(0 1 -1 0 512 0)"><path d="m512 0v512h-376c-75.110726 0-136-60.889274-136-136v-240c0-75.110726 60.889274-136 136-136z" fill="#fff"/><g fill="#121619"><path d="m392 0v512h-256c-75.110726 0-136-60.889274-136-136v-240c0-75.110726 60.889274-136 136-136zm-2 510v-508h-254c-73.2660949 0-132.7987219 58.799966-133.98204783 131.784065l-.01795217 2.215935v240c0 73.266095 58.799966 132.798722 131.784065 133.982048l2.215935.017952z"/><path d="m392 0h120v2h-120z"/><path d="m392 510h120v2h-120z"/><path d="m68 19h2v474h-2z"/><path d="m388 0h4v512h-4z"/><path d="m510 0h2v512h-2z"/><path d="m68 278v-44h22.3794542c5.9185084 5.8876 9.6205458 13.581412 9.6205458 22s-3.7020374 16.1124-9.6205458 22z"/><path d="m59.75 234c.6145717 0 1.2286166.034994 1.8389847.104804l7.6690153.981196.742.050536v41.751074l-.928.04839-7.4830153.957724c-8.6389876.988062-16.4656123-5.024058-17.4812555-13.428447-.071758-.593793-.1077292-1.191163-.1077292-1.789046v-13.353935c0-8.46227 7.0515152-15.322296 15.75-15.322296zm0 2c-7.5004109 0-13.5790527 5.812228-13.746457 13.017051l-.003543.305245v13.353935c0 .517675.0311463 1.034918.0932833 1.549098.8698486 7.197947 7.519123 12.397639 14.9240297 11.71734l.3178011-.032767.5679911-.072681c-3.8560216-1.703136-6.6043568-5.11885-6.8807597-9.18205-.0148937-.218941-.0223455-.438225-.0223455-.657558v-19.995572c0-4.306052 2.8105919-8.034321 6.905203-9.841176l-.5434817-.069015c-.3566094-.040787-.7146647-.068013-1.073342-.081633zm7.75 1c-5.7525915 0-10.3420873 3.953688-10.4960108 8.753059l-.0039892.248982v19.995572c0 .174042.0059134.348053.017734.521819.328765 4.832938 5.1066477 8.640689 10.8273778 8.475432l.1548882-.006864v-37.977l-.0887567-.004067z"/><path d="m156 290-.000056 11.460203c4.851746-.957982 9.867251-1.460203 15.000056-1.460203 5.133159 0 10.149001.50229 15.001058 1.460401l-.001058-11.460401h2l.001586 11.883261c34.345476 7.740415 59.998414 38.432795 59.998414 75.116739s-25.652938 67.376324-59.998414 75.116739l-.001586 11.883261h-2l.001058-11.460401c-4.852057.958111-9.867899 1.460401-15.001058 1.460401-5.132805 0-10.14831-.502221-15.000056-1.460203l.000056 11.460203h-2l-.000587-11.883036c-34.345978-7.740045-59.999413-38.432664-59.999413-75.116964s25.653435-67.376919 59.999413-75.116964l.000587-11.883036zm15 12c-41.421356 0-75 33.578644-75 75s33.578644 75 75 75 75-33.578644 75-75-33.578644-75-75-75zm-11 80v14h-2v-12h-18v-2zm42 0v2h-18v12h-2v-14zm-31-11c3.313708 0 6 2.686292 6 6s-2.686292 6-6 6-6-2.686292-6-6 2.686292-6 6-6zm-11-13v14h-20v-2h18v-12zm24 0v12h18v2h-20v-14z"/><path d="m156 48-.000056 11.4602028c4.851746-.9579821 9.867251-1.4602028 15.000056-1.4602028 5.133159 0 10.149001.5022899 15.001058 1.4604007l-.001058-11.4604007h2l.001586 11.8832613c34.345476 7.7404145 59.998414 38.4327942 59.998414 75.1167387 0 36.683944-25.652938 67.376324-59.998414 75.116739l-.001586 11.883261h-2l.001058-11.460401c-4.852057.958111-9.867899 1.460401-15.001058 1.460401-5.132805 0-10.14831-.502221-15.000056-1.460203l.000056 11.460203h-2l-.000587-11.883036c-34.345978-7.740045-59.999413-38.432664-59.999413-75.116964s25.653435-67.3769192 59.999413-75.1169637l.000587-11.8830363zm15 12c-41.421356 0-75 33.5786438-75 75 0 41.421356 33.578644 75 75 75s75-33.578644 75-75c0-41.4213562-33.578644-75-75-75zm-11 80v14h-2v-12h-18v-2zm42 0v2h-18v12h-2v-14zm-31-11c3.313708 0 6 2.686292 6 6s-2.686292 6-6 6-6-2.686292-6-6 2.686292-6 6-6zm-11-13v14h-20v-2h18v-12zm24 0v12h18v2h-20v-14z"/><path d="m512 179v2c-41.421356 0-75 33.578644-75 75s33.578644 75 75 75v2c-42.525926 0-77-34.474074-77-77s34.474074-77 77-77zm0 71v12c-3.313708 0-6-2.686292-6-6s2.686292-6 6-6z"/><circle cx="416" cy="377" r="6"/><circle cx="416" cy="135" r="6"/></g></g></svg>