<svg xmlns="http://www.w3.org/2000/svg" width="640" height="624" viewBox="0 0 640 624">
    <g fill="none" fill-rule="evenodd">
        <g fill="#3D5059">
            <path fill-rule="nonzero" d="M1 623h638V239.296c0-75.712-6.413-108.924-24.814-143.33-16.176-30.245-39.907-53.976-70.152-70.152C509.628 7.414 476.416 1 400.704 1H239.296c-75.712 0-108.924 6.413-143.33 24.814C65.721 41.99 41.99 65.721 25.814 95.966 7.414 130.372 1 163.584 1 239.296V623zM239.296 0h161.408c83.208 0 113.382 8.664 143.802 24.932 30.42 16.269 54.293 40.143 70.562 70.562C631.336 125.914 640 156.088 640 239.296V624H0V239.296c0-83.208 8.664-113.382 24.932-143.802 16.269-30.42 40.143-54.293 70.562-70.562C125.914 8.664 156.088 0 239.296 0z"/>
            <path d="M30 88h580l1 2H29zM0 616h640v8H0zM0 446h640v8H0z"/>
            <path fill-rule="nonzero" d="M172 314c52.467 0 95-42.533 95-95s-42.533-95-95-95-95 42.533-95 95 42.533 95 95 95zm0 1c-53.02 0-96-42.98-96-96s42.98-96 96-96 96 42.98 96 96-42.98 96-96 96z"/>
            <circle cx="172" cy="219" r="8"/>
            <path fill-rule="nonzero" d="M165 256v-23h-15v-1h16v24h-1zm29-23h-15v23h-1v-24h16v1zm-29-51h1v24h-16v-1h15v-23zm14 0v23h15v1h-16v-24h1zm282 74v-23h-15v-1h16v24h-1zm29-23h-15v23h-1v-24h16v1zm-29-51h1v24h-16v-1h15v-23zm14 0v23h15v1h-16v-24h1zm-209 18h10v1h-10v-1zm0 36h10v1h-10v-1zM68 200h10v1H68v-1zm0 36h10v1H68v-1zm494-36h10v1h-10v-1zm0 36h10v1h-10v-1zm-198-36h10v1h-10v-1zm0 36h10v1h-10v-1z"/>
            <path fill-rule="nonzero" d="M468 314c52.467 0 95-42.533 95-95s-42.533-95-95-95-95 42.533-95 95 42.533 95 95 95zm0 1c-53.02 0-96-42.98-96-96s42.98-96 96-96 96 42.98 96 96-42.98 96-96 96z"/>
            <circle cx="468" cy="219" r="8"/>
            <path d="M293 88h54v32.786c-7.412 6.37-17.012 10.214-27.5 10.214-10.022 0-19.234-3.51-26.5-9.38V88z"/>
        </g>
        <path fill="#263238" fill-rule="nonzero" stroke="#3D5059" d="M312.912 63.5h13.93c9.113 0 16.5 7.387 16.5 16.5a16.5 16.5 0 0 1-.117 1.966l-.904 7.534h-44.887l-.905-7.534c-1.085-9.048 5.37-17.263 14.417-18.348a16.5 16.5 0 0 1 1.966-.118z"/>
        <path fill="#263238" fill-rule="nonzero" stroke="#3D5059" d="M298.319 88.5h43.125c.053-.433.08-.868.08-1.304 0-5.907-4.79-10.696-10.696-10.696h-21.693c-.52 0-1.04.037-1.554.112-5.801.837-9.868 6.11-9.262 11.888z"/>
        <path fill="#FF1744" fill-opacity=".25" d="M246 89h148l72 122.225V315H174V211.225z"/>
        <path d="M246.572 90L175 211.497V314h290V211.497L393.428 90H246.572zM246 89h148l72 122.225V315H174V211.225L246 89z"/>
    </g>
</svg>
