<svg width="32" height="32" viewBox="0 0 32 32" xmlns="http://www.w3.org/2000/svg">
    <g fill-rule="nonzero" fill="none">
        <circle cx="16" cy="16" r="15" fill="#FFF" stroke="#878D96" stroke-width="2"/>
        <path d="M16 12.129c1.105 0 2-.924 2-2.064C18 8.925 17.105 8 16 8s-2 .924-2 2.065c0 1.14.895 2.064 2 2.064zm1.514 8.781v-5.668c0-.846-.662-1.534-1.486-1.545l-1.505-.02h-.019c-.822 0-1.494.68-1.504 1.527-.01.853.655 1.553 1.486 1.564l.015 4.141H14.5c-.829 0-1.5.692-1.5 1.545 0 .854.671 1.546 1.5 1.546h3c.829 0 1.5-.692 1.5-1.546 0-.848-.664-1.536-1.486-1.544z" fill="#878D96"/>
    </g>
</svg>
