<svg xmlns="http://www.w3.org/2000/svg" width="16" height="16" viewBox="0 0 16 16">
    <path fill="#FFF" fill-rule="nonzero" d="M8 0C3.58 0 0 3.58 0 8s3.58 8 8 8 8-3.58 8-8-3.58-8-8-8zm3.923 10.1a.387.387 0 0 1 0 .548l-1.278 1.275a.387.387 0 0 1-.548 0L8 9.806l-2.1 2.117a.387.387 0 0 1-.548 0l-1.275-1.278a.387.387 0 0 1 0-.548L6.194 8 4.077 5.9a.387.387 0 0 1 0-.548l1.278-1.278a.387.387 0 0 1 .548 0L8 6.194l2.1-2.117a.387.387 0 0 1 .548 0l1.278 1.278a.387.387 0 0 1 0 .548L9.806 8l2.117 2.1z"/>
</svg>
