<svg width="32" height="32" viewBox="0 0 32 32" xmlns="http://www.w3.org/2000/svg">
    <g fill-rule="nonzero" fill="none">
        <circle stroke="#1D5CFF" stroke-width="2" fill="#FFF" cx="16" cy="16" r="15"/>
        <path d="M12 21v-7a1 1 0 0 0-1-1H9a1 1 0 0 0-1 1v7a1 1 0 0 0 1 1h2a1 1 0 0 0 1-1zm12-6.997a1.5 1.5 0 0 0-1.5-1.499h-4.579c.712-1.184 1.08-2.527 1.08-3A1.51 1.51 0 0 0 17.453 8c-1.972 0-.824 2.38-3.382 4.426l-.509.407a1.489 1.489 0 0 0-.556 1.164l-.007.006v4.998c0 .472.222.917.6 1.2l1.067.8a5 5 0 0 0 2.999.999H19.5a1.5 1.5 0 0 0 1.461-1.829A1.494 1.494 0 0 0 22 18.751c0-.285-.084-.55-.223-.777A1.498 1.498 0 0 0 23 16.502c0-.39-.153-.743-.398-1.01A1.495 1.495 0 0 0 24 14.004z" fill="#1D5CFF"/>
    </g>
</svg>
