<svg xmlns="http://www.w3.org/2000/svg" width="16" height="14" viewBox="0 0 16 14">
    <path fill="#FFF" fill-rule="nonzero" d="M14.5 14h-13A1.5 1.5 0 0 1 0 12.5v-11A1.5 1.5 0 0 1 1.5 0h13A1.5 1.5 0 0 1 16 1.5v11a1.5 1.5 0 0 1-1.5 1.5zM4 2.75a1.25 1.25 0 1 0 0 2.5 1.25 1.25 0 0 0 0-2.5zm0 3a1.25 1.25 0 1 0 0 2.5 1.25 1.25 0 0 0 0-2.5zm0 3a1.25 1.25 0 1 0 0 2.5 1.25 1.25 0 0 0 0-2.5zm9-4.25v-1a.375.375 0 0 0-.375-.375h-6.25A.375.375 0 0 0 6 3.5v1c0 .207.168.375.375.375h6.25A.375.375 0 0 0 13 4.5zm0 3v-1a.375.375 0 0 0-.375-.375h-6.25A.375.375 0 0 0 6 6.5v1c0 .207.168.375.375.375h6.25A.375.375 0 0 0 13 7.5zm0 3v-1a.375.375 0 0 0-.375-.375h-6.25A.375.375 0 0 0 6 9.5v1c0 .207.168.375.375.375h6.25A.375.375 0 0 0 13 10.5z"/>
</svg>
