<svg width="32" height="32" viewBox="0 0 32 32" xmlns="http://www.w3.org/2000/svg">
    <g fill-rule="nonzero" fill="none">
        <circle stroke="#878D96" stroke-width="2" fill="#FFF" cx="16" cy="16" r="15"/>
        <path d="M11 10H9a1 1 0 0 0-1 1v7a1 1 0 0 0 1 1h2a1 1 0 0 0 1-1v-7a1 1 0 0 0-1-1zm11.602 6.507c.245-.266.398-.619.398-1.01 0-.733-.527-1.34-1.223-1.47.139-.228.223-.493.223-.778 0-.667-.438-1.225-1.039-1.42A1.5 1.5 0 0 0 19.5 10h-1.834a5 5 0 0 0-3 1l-1.066.8a1.5 1.5 0 0 0-.6 1.199v4.998l.007.006c.002.438.188.87.556 1.164l.51.407C16.63 21.62 15.481 24 17.453 24A1.51 1.51 0 0 0 19 22.497c0-.474-.367-1.817-1.079-3.001H22.5a1.495 1.495 0 0 0 .102-2.988z" fill="#878D96"/>
    </g>
</svg>
