<svg xmlns="http://www.w3.org/2000/svg" width="32" height="32" viewBox="0 0 32 32">
    <defs>
        <linearGradient id="prefix__a" x1="50%" x2="50%" y1="0%" y2="99.768%">
            <stop offset="0%" stop-color="#4985FF"/>
            <stop offset="100%" stop-color="#1D5CFF"/>
        </linearGradient>
    </defs>
    <g fill="none">
        <path fill="url(#prefix__a)" d="M14.282 0h3.436c4.028 0 6.188.557 8.143 1.603 1.956 1.046 3.49 2.58 4.536 4.536C31.443 8.094 32 10.254 32 14.282v3.436c0 4.028-.557 6.188-1.603 8.143-1.046 1.956-2.58 3.49-4.536 4.536C23.906 31.443 21.746 32 17.718 32h-3.436c-4.028 0-6.188-.557-8.143-1.603-1.956-1.046-3.49-2.58-4.536-4.536C.557 23.906 0 21.746 0 17.718v-3.436c0-4.028.557-6.188 1.603-8.143 1.046-1.956 2.58-3.49 4.536-4.536C8.094.557 10.254 0 14.282 0z"/>
        <path fill="#FFF" d="M9.497 10h4.117c.206 0 .374.168.374.374v.25c0 .206-.168.374-.374.374H9.497c-.274 0-.499.225-.499.5v8.982c0 .274.225.499.5.499h4.116c.206 0 .374.168.374.374v.25c0 .205-.168.374-.374.374H9.497C8.671 21.977 8 21.306 8 20.48v-8.983C8 10.671 8.67 10 9.497 10zm8.702.608l-.222.222c-.146.146-.146.383 0 .53l4.117 4.098h-8.73c-.205 0-.374.169-.374.374v.312c0 .206.169.375.375.375h8.73l-4.114 4.098c-.147.146-.147.383 0 .53l.22.221c.148.147.385.147.531 0l5.13-5.115c.147-.146.147-.383 0-.53l-5.133-5.115c-.147-.146-.384-.146-.53 0z"/>
    </g>
</svg>
