<svg xmlns="http://www.w3.org/2000/svg" width="16" height="11" viewBox="0 0 16 11"><path fill="#FFF" d="M15.815 4.838C14.25 2.238 11.328.5 8 .5 4.67.5 1.75 2.239.185 4.838a1.28 1.28 0 0 0 0 1.324C1.75 8.762 4.672 10.5 8 10.5c3.33 0 6.25-1.739 7.815-4.338a1.28 1.28 0 0 0 0-1.324zM8 9.196c-2.088 0-3.778-1.653-3.778-3.696 0-2.042 1.69-3.696 3.778-3.696s3.778 1.653 3.778 3.696c0 2.042-1.69 3.696-3.778 3.696zM10.889 5.5c0 1.56-1.294 2.826-2.889 2.826-1.595 0-2.889-1.265-2.889-2.826 0-.481.123-.934.34-1.33 0 .643.533 1.164 1.19 1.164.657 0 1.19-.521 1.19-1.164 0-.643-.533-1.164-1.19-1.164H6.64A2.927 2.927 0 0 1 8 2.674c1.595 0 2.889 1.265 2.889 2.826z"/></svg>