<svg xmlns="http://www.w3.org/2000/svg" width="32" height="32" viewBox="0 0 32 32">
    <defs>
        <linearGradient id="prefix__a" x1="50%" x2="50%" y1="0%" y2="99.768%">
            <stop offset="0%" stop-color="#4985FF"/>
            <stop offset="100%" stop-color="#1D5CFF"/>
        </linearGradient>
    </defs>
    <g fill="none">
        <path fill="url(#prefix__a)" d="M14.282 0h3.436c4.028 0 6.188.557 8.143 1.603 1.956 1.046 3.49 2.58 4.536 4.536C31.443 8.094 32 10.254 32 14.282v3.436c0 4.028-.557 6.188-1.603 8.143-1.046 1.956-2.58 3.49-4.536 4.536C23.906 31.443 21.746 32 17.718 32h-3.436c-4.028 0-6.188-.557-8.143-1.603-1.956-1.046-3.49-2.58-4.536-4.536C.557 23.906 0 21.746 0 17.718v-3.436c0-4.028.557-6.188 1.603-8.143 1.046-1.956 2.58-3.49 4.536-4.536C8.094.557 10.254 0 14.282 0z"/>
        <path fill="#FFF" d="M16 8c-4.42 0-8 3.58-8 8s3.58 8 8 8 8-3.58 8-8-3.58-8-8-8zm4.129 13.6c-1.158.855-2.584 1.368-4.129 1.368-1.545 0-2.971-.513-4.129-1.368v-.439c0-1.138.926-2.064 2.064-2.064.359 0 .888.368 2.065.368 1.18 0 1.703-.368 2.065-.368 1.138 0 2.064.926 2.064 2.064v.439zm.987-.887c-.22-1.497-1.493-2.648-3.051-2.648-.662 0-.981.367-2.065.367s-1.4-.367-2.065-.367c-1.558 0-2.832 1.151-3.051 2.648C9.739 19.47 9.032 17.819 9.032 16c0-3.842 3.126-6.968 6.968-6.968s6.968 3.126 6.968 6.968c0 1.82-.707 3.471-1.852 4.713zM16 11.613c-1.568 0-2.839 1.27-2.839 2.839 0 1.567 1.271 2.838 2.839 2.838s2.839-1.27 2.839-2.838-1.271-2.84-2.839-2.84zm0 4.645c-.997 0-1.806-.81-1.806-1.806 0-.997.81-1.807 1.806-1.807.997 0 1.806.81 1.806 1.807 0 .996-.81 1.806-1.806 1.806z"/>
    </g>
</svg>
