<svg xmlns="http://www.w3.org/2000/svg" width="16" height="16" viewBox="0 0 16 16">
    <defs>
        <linearGradient id="o13lne8b3a" x1="50%" x2="50%" y1="0%" y2="99.768%">
            <stop offset="0%" stop-color="#4985FF"/>
            <stop offset="100%" stop-color="#1D5CFF"/>
        </linearGradient>
    </defs>
    <g fill="none" fill-rule="evenodd">
        <g fill-rule="nonzero">
            <rect width="16" height="16" fill="url(#o13lne8b3a)" rx="4"/>
            <g fill="#FFF">
                <path d="M7.429 3.143H.57c-.315 0-.571.256-.571.571v.572c0 .315.256.571.571.571H7.43c.315 0 .571-.256.571-.571v-.572c0-.315-.256-.571-.571-.571zM7.429 0H.57C.256 0 0 .256 0 .571v.572c0 .315.256.571.571.571H7.43c.315 0 .571-.256.571-.571V.57C8 .256 7.744 0 7.429 0zM7.429 6H.57C.256 6 0 6.256 0 6.571v.572c0 .315.256.571.571.571H7.43c.315 0 .571-.256.571-.571V6.57C8 6.256 7.744 6 7.429 6z" transform="translate(4 4)"/>
            </g>
        </g>
    </g>
</svg>
