<svg width="16" height="16" viewBox="0 0 16 16" xmlns="http://www.w3.org/2000/svg">
    <defs>
        <linearGradient x1="50%" y1="0%" x2="50%" y2="99.768%" id="u07sumf09a">
            <stop stop-color="#4985FF" offset="0%"/>
            <stop stop-color="#1D5CFF" offset="100%"/>
        </linearGradient>
    </defs>
    <g fill="none" fill-rule="evenodd">
        <rect fill="url(#u07sumf09a)" fill-rule="nonzero" width="16" height="16" rx="4"/>
        <path d="M10.588 9.294 9.294 8l1.294-1.294c.533-.533.452-.802.293-.994l-.072-.078-.443-.443-.078-.072c-.192-.159-.461-.24-.994.293L8 6.706 6.706 5.412c-.533-.533-.802-.452-.994-.293l-.078.072-.443.443-.072.078c-.159.192-.24.461.293.994L6.706 8 5.412 9.294c-.533.533-.452.802-.293.994l.072.078.443.443.078.072c.192.159.461.24.994-.293L8 9.294l1.381 1.38c.228.215.618.503 1.022.099l.37-.37c.375-.375.153-.738-.053-.97l-.132-.14z" fill="#FFF"/>
    </g>
</svg>
