<?xml version="1.0" encoding="UTF-8"?>
<svg width="16px" height="16px" viewBox="0 0 16 16" version="1.1" xmlns="http://www.w3.org/2000/svg" xmlns:xlink="http://www.w3.org/1999/xlink">
    <title>icobutton/cross</title>
    <g id="Komponenty" stroke="none" stroke-width="1" fill="none" fill-rule="evenodd">
        <g id="Desktop-HD" transform="translate(-192.000000, -3536.000000)">
            <g id="icobutton/cross" transform="translate(192.000000, 3536.000000)">
                <rect id="Rectangle" fill="#057D79" fill-rule="nonzero" x="0" y="0" width="16" height="16" rx="4"></rect>
                <path d="M10.5878358,9.29391789 L9.29391789,8 L10.5878358,6.70608211 C11.1206255,6.17329239 11.0396885,5.90431193 10.8805152,5.71195456 L10.8090694,5.63366117 L10.8090694,5.63366117 L10.3663388,5.19093063 L10.3663388,5.19093063 L10.2880454,5.11948476 C10.0956881,4.96031152 9.82670761,4.8793745 9.29391789,5.41216422 L8,6.70608211 L6.70608211,5.41216422 C6.17329239,4.8793745 5.90431193,4.96031152 5.71195456,5.11948476 L5.63366117,5.19093063 L5.63366117,5.19093063 L5.19093063,5.63366117 L5.19093063,5.63366117 L5.11948476,5.71195456 C4.96031152,5.90431193 4.8793745,6.17329239 5.41216422,6.70608211 L6.70608211,8 L5.41216422,9.29391789 C4.8793745,9.82670761 4.96031152,10.0956881 5.11948476,10.2880454 L5.19093063,10.3663388 L5.19093063,10.3663388 L5.63366117,10.8090694 L5.63366117,10.8090694 L5.71195456,10.8805152 C5.90431193,11.0396885 6.17329239,11.1206255 6.70608211,10.5878358 L8,9.29391789 L9.3812296,10.6733424 C9.60906308,10.8885399 9.99864103,11.1770305 10.4029904,10.7726812 L10.7726812,10.4029904 C11.1481484,10.0275231 10.926218,9.66479243 10.7202988,9.43247318 L10.5878358,9.29391789 L10.5878358,9.29391789 Z" id="Path" fill="#FFFFFF"></path>
            </g>
        </g>
    </g>
</svg>