<svg xmlns="http://www.w3.org/2000/svg" width="16" height="16" viewBox="0 0 16 16">
    <g fill="none" fill-rule="evenodd">
        <g>
            <g>
                <g transform="translate(-535 -288) translate(348 276) translate(187 12)">
                    <rect width="16" height="16" fill="#008b00" fill-rule="nonzero" rx="4"/>
                    <path fill="#FFF" d="M10.588 9.294L9.294 8l1.294-1.294c.533-.533.452-.802.293-.994l-.072-.078-.443-.443-.078-.072c-.192-.159-.461-.24-.994.293L8 6.706 6.706 5.412c-.533-.533-.802-.452-.994-.293l-.078.072-.443.443-.072.078c-.159.192-.24.461.293.994L6.706 8 5.412 9.294c-.533.533-.452.802-.293.994l.072.078.443.443.078.072c.192.159.461.24.994-.293L8 9.294l1.381 1.38c.228.215.618.503 1.022.099l.37-.37c.375-.375.153-.738-.053-.97l-.132-.14z"/>
                </g>
            </g>
        </g>
    </g>
</svg>
