<svg width="16" height="16" viewBox="0 0 16 16" xmlns="http://www.w3.org/2000/svg">
    <defs>
        <linearGradient x1="50%" y1="0%" x2="50%" y2="99.768%" id="u9b2aqpe4a">
            <stop stop-color="#4985FF" offset="0%"/>
            <stop stop-color="#1D5CFF" offset="100%"/>
        </linearGradient>
    </defs>
    <g fill-rule="nonzero" fill="none">
        <rect fill="url(#u9b2aqpe4a)" width="16" height="16" rx="4"/>
        <g fill="#FFF">
            <path d="M11.308 4.694c-.913-.913-1.807-.937-2.744 0l-.57.57c-.047.047-.065.122-.047.188a3.826 3.826 0 0 0 2.603 2.603c.02.005.038.01.057.01a.188.188 0 0 0 .136-.057l.565-.57c.466-.46.692-.908.692-1.36.005-.466-.221-.918-.692-1.384zM9.703 8.483a4.142 4.142 0 0 1-.697-.405 2.842 2.842 0 0 1-.343-.273 3.982 3.982 0 0 1-.485-.49c-.014-.009-.038-.042-.07-.084-.048-.057-.128-.15-.198-.259a2.585 2.585 0 0 1-.184-.278 6.083 6.083 0 0 1-.236-.45c-.07-.156-.274-.202-.395-.081L4.398 8.86a.567.567 0 0 0-.132.259l-.254 1.803c-.047.32.043.621.24.824.17.165.405.254.66.254.056 0 .112-.005.169-.014l1.807-.254a.524.524 0 0 0 .26-.132L9.84 8.906c.122-.122.076-.332-.083-.4a12.637 12.637 0 0 1-.054-.023z"/>
        </g>
    </g>
</svg>
