<svg xmlns="http://www.w3.org/2000/svg" width="144" height="144" viewBox="0 0 144 144">
    <defs>
        <linearGradient id="prefix__a" x1="50%" x2="50%" y1="0%" y2="99.768%">
            <stop offset="0%" stop-color="#4985FF"/>
            <stop offset="100%" stop-color="#1D5CFF"/>
        </linearGradient>
    </defs>
    <g fill="none">
        <path fill="url(#prefix__a)" d="M60.22 0h23.56c19.82 0 27.842 2.228 35.664 6.411 7.823 4.184 13.961 10.322 18.145 18.145C141.772 32.378 144 40.399 144 60.22v23.558c0 19.822-2.228 27.843-6.411 35.665-4.184 7.823-10.322 13.961-18.145 18.145-7.822 4.183-15.843 6.411-35.665 6.411H60.221c-19.822 0-27.843-2.228-35.665-6.411-7.823-4.184-13.961-10.322-18.145-18.145C2.228 111.622 0 103.601 0 83.78V60.221c0-19.822 2.228-27.843 6.411-35.665 4.184-7.823 10.322-13.961 18.145-18.145C32.378 2.228 40.399 0 60.22 0z"/>
        <path fill="#FFF" d="M72 52.387c-10.841 0-19.613 8.774-19.613 19.613 0 10.841 8.774 19.613 19.613 19.613 10.841 0 19.613-8.774 19.613-19.613 0-10.841-8.774-19.613-19.613-19.613zm0 33.032C64.6 85.42 58.58 79.4 58.58 72S64.6 58.58 72 58.58 85.42 64.6 85.42 72 79.4 85.42 72 85.42zM72 40c-17.674 0-32 14.326-32 32s14.326 32 32 32 32-14.326 32-32-14.326-32-32-32zm0 57.806C57.77 97.806 46.194 86.23 46.194 72S57.77 46.194 72 46.194 97.806 57.77 97.806 72 86.23 97.806 72 97.806zm0-33.032c-3.985 0-7.226 3.241-7.226 7.226s3.241 7.226 7.226 7.226 7.226-3.241 7.226-7.226-3.241-7.226-7.226-7.226z"/>
    </g>
</svg>
