<svg height="16" viewBox="0 0 16 16" width="16" xmlns="http://www.w3.org/2000/svg" xmlns:xlink="http://www.w3.org/1999/xlink"><linearGradient id="a" x1="50%" x2="50%" y1="0%" y2="99.767737%"><stop offset="0" stop-color="#4985ff"/><stop offset="1" stop-color="#1d5cff"/></linearGradient><g fill="none"><rect fill="url(#a)" height="16" rx="4" width="16"/><path d="m8.52414401 9.38352522v-.14488622c.00852272-.83096512.30681789-1.21874884.9801127-1.623578.79687429-.47301091 1.31676009-1.09943077 1.31676009-2.10085027 0-1.49147585-1.20170338-2.3607932-2.89346313-2.3607932-1.54687353 0-2.80823596.80965832-2.8465882 2.51420215h1.73863471c.02556816-.69460161.54119267-1.0653399 1.09943077-1.0653399.57528354 0 1.03977174.38352236 1.03977174.97585134 0 .55823811-.40482916.92897639-.92897639 1.26136244-.71590841.45170411-1.11647621.90766959-1.12073757 2.39914544v.14488622zm-.77556744 2.72727008c.54545402 0 1.01846493-.4559654 1.02272629-1.0227262-.00426136-.5582382-.47727227-1.0142036-1.02272629-1.0142036-.56249947 0-1.02698766.4559654-1.0227263 1.0142036-.00426136.5667608.46022683 1.0227262 1.0227263 1.0227262z" fill="#fff"/></g></svg>