<svg xmlns="http://www.w3.org/2000/svg" width="64" height="64" viewBox="0 0 64 64">
    <path fill="#FFF" fill-rule="nonzero" d="M1.548 0h1.29c.856 0 1.55.693 1.55 1.548v14.275C9.96 6.329 20.287-.037 32.101 0 49.701.055 64.027 14.453 64 32.051 63.972 49.701 49.656 64 32 64a31.883 31.883 0 0 1-21.442-8.246 1.551 1.551 0 0 1-.063-2.25l.913-.912a1.546 1.546 0 0 1 2.126-.058c4.89 4.4 11.36 7.079 18.466 7.079 15.193 0 27.613-12.3 27.613-27.613 0-15.193-12.3-27.613-27.613-27.613-10.692 0-19.966 6.075-24.553 14.968h14.747c.855 0 1.548.693 1.548 1.548v1.29c0 .856-.693 1.549-1.548 1.549H1.548A1.548 1.548 0 0 1 0 22.194V1.548C0 .693.693 0 1.548 0z"/>
</svg>
