<svg xmlns="http://www.w3.org/2000/svg" width="16" height="16" viewBox="0 0 16 16">
    <defs>
        <linearGradient id="prefix__a" x1="50%" x2="50%" y1="0%" y2="99.768%">
            <stop offset="0%" stop-color="#a2a9b0"/>
            <stop offset="100%" stop-color="#697077"/>
        </linearGradient>
    </defs>
    <g fill="none">
        <rect width="16" height="16" fill="url(#prefix__a)" rx="4"/>
        <path fill="#FFF" d="M11.81 4h-.752c-.052 0-.102.021-.138.059-.036.038-.055.088-.053.14l.064 1.314c-.747-.88-1.843-1.387-2.997-1.386-2.168 0-3.936 1.77-3.934 3.94C4.002 10.239 5.762 12 7.934 12c.974.001 1.914-.36 2.636-1.014.039-.035.062-.085.063-.137.002-.052-.018-.103-.055-.14l-.54-.54c-.07-.07-.184-.074-.26-.009-.872.769-2.13.916-3.155.37-1.026-.547-1.607-1.672-1.457-2.826.149-1.153.997-2.093 2.128-2.36 1.131-.267 2.31.195 2.957 1.16l-1.61-.077c-.052-.002-.103.017-.14.053-.038.036-.06.086-.06.138v.752c0 .106.086.191.19.191h3.179c.105 0 .19-.085.19-.19V4.19c0-.106-.085-.191-.19-.191z"/>
    </g>
</svg>
