<svg xmlns="http://www.w3.org/2000/svg" xmlns:xlink="http://www.w3.org/1999/xlink" width="36" height="36" viewBox="0 0 36 36">
    <defs>
        <linearGradient id="prefix__a" x1="50%" x2="50%" y1="0%" y2="99.768%">
            <stop offset="0%" stop-color="#4985FF"/>
            <stop offset="100%" stop-color="#1D5CFF"/>
        </linearGradient>
        <path id="prefix__b" d="M14.282 0h3.436c4.028 0 6.188.557 8.143 1.603 1.956 1.046 3.49 2.58 4.536 4.536C31.443 8.094 32 10.254 32 14.282v3.436c0 4.028-.557 6.188-1.603 8.143-1.046 1.956-2.58 3.49-4.536 4.536C23.906 31.443 21.746 32 17.718 32h-3.436c-4.028 0-6.188-.557-8.143-1.603-1.956-1.046-3.49-2.58-4.536-4.536C.557 23.906 0 21.746 0 17.718v-3.436c0-4.028.557-6.188 1.603-8.143 1.046-1.956 2.58-3.49 4.536-4.536C8.094.557 10.254 0 14.282 0z"/>
    </defs>
    <g fill="none" transform="translate(2 2)">
        <use fill="url(#prefix__a)" xlink:href="#prefix__b"/>
        <path stroke="#FFF" stroke-width="2" d="M14.282-1h3.436c4.267 0 6.546.615 8.615 1.721 2.132 1.14 3.806 2.814 4.946 4.946C32.385 7.737 33 10.015 33 14.282h0v3.436c0 4.267-.615 6.546-1.721 8.615-1.14 2.132-2.814 3.806-4.946 4.946C24.263 32.385 21.985 33 17.718 33h0-3.436c-4.267 0-6.546-.615-8.615-1.721-2.132-1.14-3.806-2.814-4.946-4.946C-.385 24.263-1 21.985-1 17.718h0v-3.436c0-4.267.615-6.546 1.721-8.615C1.861 3.535 3.535 1.861 5.667.721 7.737-.385 10.015-1 14.282-1h0z"/>
        <path stroke="url(#prefix__a)" stroke-linejoin="square" stroke-width="2" d="M14.282 1h3.436c3.788 0 5.83.5 7.671 1.485 1.78.95 3.175 2.347 4.126 4.126C30.501 8.453 31 10.494 31 14.282h0v3.436c0 3.788-.5 5.83-1.485 7.671-.95 1.78-2.347 3.175-4.126 4.126-1.842.986-3.883 1.485-7.671 1.485h0-3.436c-3.788 0-5.83-.5-7.671-1.485-1.78-.95-3.175-2.347-4.126-4.126C1.499 23.547 1 21.506 1 17.718h0v-3.436c0-3.788.5-5.83 1.485-7.671.95-1.78 2.347-3.175 4.126-4.126C8.453 1.499 10.494 1 14.282 1h0z"/>
        <path fill="#FFF" d="M9.009 10c.552.001.999.45.997 1.002L10 14h3l-.006-2.998c0-.554.447-1.002 1-1.002H15c.552 0 1 .448 1 1v10c0 .552-.448 1-1 1h-1.007-.002c-.552-.001-.999-.45-.998-1.002L13 17h-3l.007 3.998V21l-.007.117c-.058.497-.48.883-.993.883H8c-.552 0-1-.448-1-1V11c0-.552.448-1 1-1zM20 10c.552 0 1 .448 1 1v7c0 .552.448 1 1 1h2c.552 0 1 .448 1 1v1c0 .552-.448 1-1 1h-5c-.552 0-1-.448-1-1V11c0-.552.448-1 1-1z"/>
    </g>
</svg>
