<svg xmlns="http://www.w3.org/2000/svg" width="372" height="384"><g fill="none"><path fill="#151D22" d="M304.27 0c-36.546 0-65.173 17.869-65.173 40.68v39.08c0 22.81 28.627 40.68 65.173 40.68 36.545 0 65.173-17.87 65.173-40.68V40.68C369.442 17.87 340.815 0 304.27 0z"/><path fill="#151D22" d="M364.161 339h-21.566V154.463a7.5 7.5 0 0 0-7.5-7.5h-61.65a7.5 7.5 0 0 0-7.5 7.5V339h-26.551V192.6a7.5 7.5 0 0 0-7.5-7.5h-61.65a7.5 7.5 0 0 0-7.5 7.5V339h-25.428V230.738a7.5 7.5 0 0 0-7.5-7.5H68.168a7.5 7.5 0 0 0-7.5 7.5V339H45.338V192.653c44.266-6.78 81.741-22.492 111.442-46.73 21.787-17.78 34.644-36.5 41.45-48.66l13.587 7.045a7.494 7.494 0 0 0 7.352-.252 7.5 7.5 0 0 0 3.6-6.416l-.064-51.796a7.5 7.5 0 0 0-11.813-6.126L168.52 69.506a7.5 7.5 0 0 0 .86 12.794l15.54 8.059c-14.125 25.2-51.894 72.97-139.581 87.108V8.113a7.5 7.5 0 0 0-7.5-7.5h-30a7.5 7.5 0 0 0-7.5 7.5V361.5c0 12.406 10.093 22.5 22.5 22.5h341.323a7.5 7.5 0 0 0 7.5-7.5v-30c-.001-4.142-3.359-7.5-7.501-7.5z"/><path fill="#FFF" d="M327.596 161.963V339H304.84V214.29a7.5 7.5 0 1 0-15 0V339h-8.894V161.963h46.65zM177.745 200.1h46.65V339h-23.806v-86.457a7.5 7.5 0 0 0-15 0V339h-7.844V200.1z"/><path fill="#FFF" d="M75.668 238.238L122.317 238.238 122.317 339 75.668 339z"/><path fill="#FFF" d="M356.662 369H22.839c-4.136 0-7.5-3.365-7.5-7.5V15.613h15V346.5a7.5 7.5 0 0 0 7.5 7.5h318.823v15z"/><path fill="#FFF" d="M207.724 60.281L207.755 85.304 187.253 74.672z"/><path fill="#151D22" d="M304.695 183.376a7.938 7.938 0 0 0-.428-1.403 7.61 7.61 0 0 0-.69-1.29 7.629 7.629 0 0 0-.937-1.14 7.558 7.558 0 0 0-6.765-2.055 7.631 7.631 0 0 0-2.7 1.117 7.66 7.66 0 0 0-1.14.938 7.15 7.15 0 0 0-.93 1.14 7.61 7.61 0 0 0-.69 1.29c-.188.458-.33.93-.428 1.403-.097.487-.15.982-.15 1.47a7.591 7.591 0 0 0 2.198 5.302c.345.345.727.66 1.14.93a7.574 7.574 0 0 0 4.162 1.268 7.56 7.56 0 0 0 5.303-2.198 7.422 7.422 0 0 0 1.627-2.438 7.391 7.391 0 0 0 .57-2.865c0-.487-.044-.982-.142-1.47zm-104.25 38.256a7.591 7.591 0 0 0-1.118-2.699 7.629 7.629 0 0 0-.937-1.14 7.663 7.663 0 0 0-2.43-1.62 7.935 7.935 0 0 0-1.403-.427 7.395 7.395 0 0 0-2.932 0 7.572 7.572 0 0 0-2.7 1.117c-.413.27-.795.584-1.14.93a7.15 7.15 0 0 0-.93 1.14 7.574 7.574 0 0 0-1.267 4.162c0 .488.052.982.15 1.47.097.48.24.945.427 1.403a7.61 7.61 0 0 0 1.62 2.43c.345.345.727.66 1.14.938a7.572 7.572 0 0 0 2.7 1.117 7.568 7.568 0 0 0 2.933 0c.472-.098.945-.24 1.402-.427.45-.188.885-.421 1.29-.69a7.66 7.66 0 0 0 2.077-2.079c.27-.405.503-.84.69-1.29.188-.457.33-.922.428-1.402.097-.488.143-.983.143-1.47a7.38 7.38 0 0 0-.143-1.463z"/><path fill="#FFF" d="M354.442 79.76c0 12.146-20.604 25.68-50.172 25.68-29.567 0-50.173-13.534-50.173-25.68V66.922c11.864 8.877 29.786 14.439 50.173 14.439 20.386 0 38.309-5.561 50.173-14.439V79.76zm-50.172-13.4c-29.567 0-50.173-13.533-50.173-25.68 0-12.145 20.605-25.68 50.173-25.68 29.567 0 50.173 13.535 50.173 25.68 0 12.147-20.606 25.68-50.173 25.68z"/><path fill="#151D22" d="M330.824 38.282a7.5 7.5 0 0 0-9.505-4.707c-3.452 1.165-9.21 2.555-17.048 2.555-7.839 0-13.597-1.39-17.049-2.555a7.498 7.498 0 0 0-9.505 4.706 7.5 7.5 0 0 0 4.706 9.506c6.476 2.187 14.031 3.343 21.847 3.343 7.816 0 15.371-1.156 21.848-3.343a7.5 7.5 0 0 0 4.706-9.505z"/></g></svg>