<?xml version="1.0" encoding="UTF-8"?>
<svg width="16px" height="16px" viewBox="0 0 16 16" version="1.1" xmlns="http://www.w3.org/2000/svg" xmlns:xlink="http://www.w3.org/1999/xlink">
    <title>icobutton/play</title>
    <defs>
        <linearGradient x1="50%" y1="0%" x2="50%" y2="99.7677365%" id="linearGradient-1">
            <stop stop-color="#4985FF" offset="0%"></stop>
            <stop stop-color="#1D5CFF" offset="100%"></stop>
        </linearGradient>
    </defs>
    <g id="8.-VideokouÄ" stroke="none" stroke-width="1" fill="none" fill-rule="evenodd">
        <g id="2.-Centrum-videa-2.0---b1" transform="translate(-652.000000, -371.000000)">
            <g id="Group" transform="translate(152.000000, 32.000000)">
                <g id="icobutton/play" transform="translate(500.000000, 339.000000)">
                    <rect id="Rectangle" fill="url(#linearGradient-1)" fill-rule="nonzero" x="0" y="0" width="16" height="16" rx="4"></rect>
                    <path d="M6,4 C6.55228475,4 7,4.44771525 7,5 L7,11 C7,11.5522847 6.55228475,12 6,12 C5.44771525,12 5,11.5522847 5,11 L5,5 C5,4.44771525 5.44771525,4 6,4 Z M10,4 C10.5522847,4 11,4.44771525 11,5 L11,11 C11,11.5522847 10.5522847,12 10,12 C9.44771525,12 9,11.5522847 9,11 L9,5 C9,4.44771525 9.44771525,4 10,4 Z" id="Combined-Shape" fill="#FFFFFF"></path>
                </g>
            </g>
        </g>
    </g>
</svg>