<svg xmlns="http://www.w3.org/2000/svg" width="338" height="352" viewBox="0 0 338 352">
    <path fill="#343A40" fill-rule="nonzero" d="M1 336a1 1 0 0 1 1 1v14a1 1 0 1 1-2 0v-14a1 1 0 0 1 1-1zm336 0a1 1 0 0 1 1 1v14a1 1 0 1 1-2 0v-14a1 1 0 0 1 1-1zM1 308a1 1 0 0 1 1 1v14a1 1 0 1 1-2 0v-14a1 1 0 0 1 1-1zm336 0a1 1 0 0 1 1 1v14a1 1 0 1 1-2 0v-14a1 1 0 0 1 1-1zM1 280a1 1 0 0 1 1 1v14a1 1 0 1 1-2 0v-14a1 1 0 0 1 1-1zm336 0a1 1 0 0 1 1 1v14a1 1 0 1 1-2 0v-14a1 1 0 0 1 1-1zM1 252a1 1 0 0 1 1 1v14a1 1 0 1 1-2 0v-14a1 1 0 0 1 1-1zm336 0a1 1 0 0 1 1 1v14a1 1 0 1 1-2 0v-14a1 1 0 0 1 1-1zM1 224a1 1 0 0 1 1 1v14a1 1 0 1 1-2 0v-14a1 1 0 0 1 1-1zm336 0a1 1 0 0 1 1 1v14a1 1 0 1 1-2 0v-14a1 1 0 0 1 1-1zM1 196a1 1 0 0 1 1 1v14a1 1 0 1 1-2 0v-14a1 1 0 0 1 1-1zm336 0a1 1 0 0 1 1 1v14a1 1 0 1 1-2 0v-14a1 1 0 0 1 1-1zM1 168a1 1 0 0 1 1 1v14a1 1 0 1 1-2 0v-14a1 1 0 0 1 1-1zm336 0a1 1 0 0 1 1 1v14a1 1 0 1 1-2 0v-14a1 1 0 0 1 1-1zM1 140a1 1 0 0 1 1 1v14a1 1 0 1 1-2 0v-14a1 1 0 0 1 1-1zm336 0a1 1 0 0 1 1 1v14a1 1 0 1 1-2 0v-14a1 1 0 0 1 1-1zM1 112a1 1 0 0 1 1 1v14a1 1 0 1 1-2 0v-14a1 1 0 0 1 1-1zm336 0a1 1 0 0 1 1 1v14a1 1 0 1 1-2 0v-14a1 1 0 0 1 1-1zM1 84a1 1 0 0 1 1 1v14a1 1 0 1 1-2 0V85a1 1 0 0 1 1-1zm336 0a1 1 0 0 1 1 1v14a1 1 0 1 1-2 0V85a1 1 0 0 1 1-1zM1 56a1 1 0 0 1 1 1v14a1 1 0 1 1-2 0V57a1 1 0 0 1 1-1zm336 0a1 1 0 0 1 1 1v14a1 1 0 1 1-2 0V57a1 1 0 0 1 1-1zM1 28a1 1 0 0 1 1 1v14a1 1 0 1 1-2 0V29a1 1 0 0 1 1-1zm336 0a1 1 0 0 1 1 1v14a1 1 0 1 1-2 0V29a1 1 0 0 1 1-1zM1 0a1 1 0 0 1 1 1v14a1 1 0 1 1-2 0V1a1 1 0 0 1 1-1zm336 0a1 1 0 0 1 1 1v14a1 1 0 1 1-2 0V1a1 1 0 0 1 1-1z"/>
</svg>
