<svg xmlns="http://www.w3.org/2000/svg" width="16" height="16" viewBox="0 0 16 16"><path fill="#1d5cff" d="M12.129 7.806v.388a.388.388 0 0 1-.387.387H8.58v3.16a.388.388 0 0 1-.387.388h-.388a.388.388 0 0 1-.387-.387V8.58H4.26a.388.388 0 0 1-.388-.387v-.388c0-.212.174-.387.387-.387H7.42V4.26c0-.214.175-.388.387-.388h.388c.212 0 .387.174.387.387V7.42h3.16c.214 0 .388.175.388.387zM16 8c0 4.42-3.58 8-8 8s-8-3.58-8-8 3.58-8 8-8 8 3.58 8 8zm-1.032 0A6.967 6.967 0 0 0 8 1.032 6.967 6.967 0 0 0 1.032 8 6.967 6.967 0 0 0 8 14.968 6.967 6.967 0 0 0 14.968 8z"/></svg>