<svg height="32" viewBox="0 0 40 32" width="40" xmlns="http://www.w3.org/2000/svg"><path d="m2.5546875 1.890625 4 2c.140625.0703125.2890625.109375.4453125.109375.4609375 0 .8671875-.3203125.9765625-.7734375.1015625-.4453125-.1171875-.9140625-.53125-1.1171875l-4-2c-.4921875-.25-1.09375-.0546875-1.3359375.4453125-.25.4921875-.0546875 1.09375.4453125 1.3359375zm30.4453125 2.109375c.15625 0 .3046875-.0390625.4453125-.109375l4-2c.5-.2421875.6953125-.84375.4453125-1.3359375-.2421875-.5-.84375-.6953125-1.3359375-.4453125l-4 2c-.4140625.203125-.6328125.671875-.53125 1.1171875.109375.453125.515625.7734375.9765625.7734375zm-28 6h-4c-.5546875 0-1 .4453125-1 1s.4453125 1 1 1h4c.5546875 0 1-.4453125 1-1s-.4453125-1-1-1zm34 0h-4c-.5546875 0-1 .4453125-1 1s.4453125 1 1 1h4c.5546875 0 1-.4453125 1-1s-.4453125-1-1-1zm-15.9815625 18c-.464875 0-.907.259125-1.0656875.6799375-.29.7685625-1.056875 1.3200625-1.953125 1.3200625s-1.6630625-.5515-1.953125-1.3200625c-.1586875-.4208125-.6009375-.6799375-1.0656875-.6799375h-.000125c-.6633125 0-1.1381875.624875-.9328125 1.2323125.541625 1.603375 2.1099375 2.7676875 3.95175 2.7676875 1.8416875 0 3.4100625-1.1643125 3.9518125-2.7676875.2051875-.6074375-.2695625-1.2323125-.933-1.2323125zm6.9818125-16.3828125c0-4.9765625-3.9610625-9.03125-9.00025-9.5234375v-1.09375c0-.5546875-.4453125-1-1-1s-1 .4453125-1 1v1.09375c-5.0391875.4921875-9.00025 4.546875-9.00025 9.5234375 0 5.90625-1.3360625 7.6484375-3.0860625 9.3046875-.875.8359375-1.1484375 2.09375-.703125 3.203125.453125 1.140625 1.546875 1.875 2.7890625 1.875h22.00075c1.2421875 0 2.3359375-.734375 2.7890625-1.875.4453125-1.109375.171875-2.3671875-.703125-3.203125-1.75-1.65625-3.0860625-3.3984375-3.0860625-9.3046875zm1.000125 12.3828125h-22.00075c-.890625 0-1.3359375-1.03125-.7109375-1.625 2.1798125-2.078125 3.7110625-4.3984375 3.7110625-10.7578125 0-4.2109375 3.57825-7.6171875 8.00025-7.6171875s8.00025 3.40625 8.00025 7.6171875c0 6.3359375 1.515625 8.671875 3.7110625 10.7578125.625.6015625.171875 1.625-.7109375 1.625z" fill="#1d5cff"/></svg>