<svg height="24" viewBox="0 0 24 24" width="24" xmlns="http://www.w3.org/2000/svg"><path d="m12.2344 7.7656 3.43435 3.4344h-9.26875c-.4422 0-.8.3578-.8.8s.3578.8.8.8h9.26875l-3.43435 3.4344c-.3125.3125-.3125.81875 0 1.1312s.81875.3125 1.1312 0l4.8-4.8c.1563-.1562.2344-.3609.2344-.5656s-.0781-.4094-.2344-.5656l-4.8-4.8c-.3125-.3125-.81875-.3125-1.1312 0s-.3125.8187 0 1.1312zm-12.2344 4.2344c0 6.62745 5.37255 12 12 12s12-5.37255 12-12-5.37255-12-12-12-12 5.37255-12 12zm22.4 0c0 5.73455-4.66545 10.4-10.4 10.4s-10.4-4.66545-10.4-10.4 4.66545-10.4 10.4-10.4 10.4 4.66545 10.4 10.4z" fill="#1d5cff"/></svg>