<svg height="16" viewBox="0 0 16 16" width="16" xmlns="http://www.w3.org/2000/svg" xmlns:xlink="http://www.w3.org/1999/xlink"><linearGradient id="a" x1="50%" x2="50%" y1="0%" y2="99.767737%"><stop offset="0" stop-color="#4985ff"/><stop offset="1" stop-color="#1d5cff"/></linearGradient><g fill="none" fill-rule="nonzero"><rect fill="url(#a)" height="16" rx="4" width="16"/><path d="m7 3h-6c-.55228125 0-1 .44771875-1 1v1.5c0 .27615625.22384375.5.5.5h.5v1.5c0 .27615625.22384375.5.5.5h5c.27615625 0 .5-.22384375.5-.5v-1.5h.5c.27615625 0 .5-.22384375.5-.5v-1.5c0-.55228125-.44771875-1-1-1zm-1 4h-4v-1.5h4zm.75-2.375c-.20703125 0-.375-.16796875-.375-.375 0-.20728125.16796875-.375.375-.375s.375.16771875.375.375c0 .20703125-.16796875.375-.375.375zm-4.75-3.625h3.58578125l.41421875.41421875v1.08578125h1v-1.29296875c0-.1325625-.05273438-.25976562-.14648438-.35351562l-.70703124-.70703125c-.09375-.09375-.22118751-.14648438-.35351563-.14648438h-4.29296875c-.275875 0-.5.223875-.5.5v2h1z" fill="#fff" transform="translate(4 4)"/></g></svg>