<?xml version="1.0" encoding="UTF-8"?>
<svg width="48px" height="28px" viewBox="0 0 48 28" version="1.1" xmlns="http://www.w3.org/2000/svg" xmlns:xlink="http://www.w3.org/1999/xlink">
    <title>Group 19</title>
    <defs>
        <path d="M12,0 L36,0 C42.627417,-1.21743675e-15 48,5.372583 48,12 L48,28 L48,28 L0,28 L0,12 C-8.11624501e-16,5.372583 5.372583,1.21743675e-15 12,0 Z" id="path-1"></path>
    </defs>
    <g id="3.-Videomapy" stroke="none" stroke-width="1" fill="none" fill-rule="evenodd">
        <g id="3.4.0---Videomapy---mapa-vhazování-default" transform="translate(-1328.000000, -980.000000)">
            <g id="Group-17" transform="translate(448.000000, 976.000000)">
                <g id="Group-19" transform="translate(880.000000, 4.000000)">
                    <mask id="mask-2" fill="white">
                        <use xlink:href="#path-1"></use>
                    </mask>
                    <use id="Mask" fill="#FFFFFF" fill-rule="nonzero" xlink:href="#path-1"></use>
                    <path d="M20,5 L28,5 L28,5.42944665 C28,6.43639542 27.8607616,6.97637967 27.5993009,7.46526856 C27.3378403,7.95415744 26.9541574,8.33784031 26.4652686,8.59930094 C25.9763797,8.86076158 25.4363954,9 24.4294466,9 L23.5705534,9 C22.5636046,9 22.0236203,8.86076158 21.5347314,8.59930094 C21.0458426,8.33784031 20.6621597,7.95415744 20.4006991,7.46526856 C20.1392384,6.97637967 20,6.43639542 20,5.42944665 L20,5 L20,5 Z" id="Rectangle" fill="#121619" fill-rule="nonzero" mask="url(#mask-2)"></path>
                    <rect id="Rectangle" fill="#121619" fill-rule="nonzero" mask="url(#mask-2)" x="0" y="4" width="48" height="1"></rect>
                    <g id="Group-20" mask="url(#mask-2)" fill-rule="nonzero">
                        <g transform="translate(26.000000, 8.000000)">
                            <circle id="Oval" stroke="#121619" stroke-width="1" fill="#121619" cx="8.5" cy="8.5" r="8"></circle>
                            <path d="M14,9 L14,10 L12,10 L12,12 L11,12 L11,9 L14,9 Z M6,9 L6,12 L5,12 L5,10 L3,10 L3,9 L6,9 Z M8.5,7 C9.32842712,7 10,7.67157288 10,8.5 C10,9.32842712 9.32842712,10 8.5,10 C7.67157288,10 7,9.32842712 7,8.5 C7,7.67157288 7.67157288,7 8.5,7 Z M12,5 L12,7 L14,7 L14,8 L11,8 L11,5 L12,5 Z M6,5 L6,8 L3,8 L3,7 L5,7 L5,5 L6,5 Z" id="Shape" stroke="none" fill="#FFFFFF"></path>
                        </g>
                    </g>
                    <g id="Group-21" mask="url(#mask-2)" fill-rule="nonzero">
                        <g transform="translate(5.000000, 8.000000)">
                            <circle id="Oval" stroke="#C1C7CD" stroke-width="1" fill="none" cx="8.5" cy="8.5" r="8"></circle>
                            <path d="M14,9 L14,10 L12,10 L12,12 L11,12 L11,9 L14,9 Z M6,9 L6,12 L5,12 L5,10 L3,10 L3,9 L6,9 Z M8.5,7 C9.32842712,7 10,7.67157288 10,8.5 C10,9.32842712 9.32842712,10 8.5,10 C7.67157288,10 7,9.32842712 7,8.5 C7,7.67157288 7.67157288,7 8.5,7 Z M12,5 L12,7 L14,7 L14,8 L11,8 L11,5 L12,5 Z M6,5 L6,8 L3,8 L3,7 L5,7 L5,5 L6,5 Z" id="Shape" stroke="none" fill="#C1C7CD"></path>
                        </g>
                    </g>
                </g>
            </g>
        </g>
    </g>
</svg>