<?xml version="1.0" encoding="UTF-8"?>
<svg width="48px" height="28px" viewBox="0 0 48 28" version="1.1" xmlns="http://www.w3.org/2000/svg" xmlns:xlink="http://www.w3.org/1999/xlink">
    <title>Group 19</title>
    <defs>
        <path d="M12,0 L36,0 C42.627417,-1.21743675e-15 48,5.372583 48,12 L48,28 L48,28 L0,28 L0,12 C-8.11624501e-16,5.372583 5.372583,1.21743675e-15 12,0 Z" id="path-1"></path>
    </defs>
    <g id="3.-Videomapy" stroke="none" stroke-width="1" fill="none" fill-rule="evenodd">
        <g id="3.4.0---Videomapy---mapa-vhazování-default" transform="translate(-944.000000, -980.000000)">
            <g id="Group-17" transform="translate(448.000000, 976.000000)">
                <g id="Group-19" transform="translate(496.000000, 4.000000)">
                    <mask id="mask-2" fill="white">
                        <use xlink:href="#path-1"></use>
                    </mask>
                    <use id="Mask" fill="#FFFFFF" fill-rule="nonzero" xlink:href="#path-1"></use>
                    <path d="M20,5 L28,5 L28,5.42944665 C28,6.43639542 27.8607616,6.97637967 27.5993009,7.46526856 C27.3378403,7.95415744 26.9541574,8.33784031 26.4652686,8.59930094 C25.9763797,8.86076158 25.4363954,9 24.4294466,9 L23.5705534,9 C22.5636046,9 22.0236203,8.86076158 21.5347314,8.59930094 C21.0458426,8.33784031 20.6621597,7.95415744 20.4006991,7.46526856 C20.1392384,6.97637967 20,6.43639542 20,5.42944665 L20,5 L20,5 Z" id="Rectangle" fill="#121619" fill-rule="nonzero" mask="url(#mask-2)"></path>
                    <rect id="Rectangle" fill="#121619" fill-rule="nonzero" mask="url(#mask-2)" x="0" y="4" width="48" height="1"></rect>
                    <circle id="Oval" stroke="#121619" fill="#121619" fill-rule="nonzero" mask="url(#mask-2)" cx="13.5" cy="16.5" r="8"></circle>
                    <path d="M19,17 L19,18 L17,18 L17,20 L16,20 L16,17 L19,17 Z M11,17 L11,20 L10,20 L10,18 L8,18 L8,17 L11,17 Z M13.5,15 C14.3284271,15 15,15.6715729 15,16.5 C15,17.3284271 14.3284271,18 13.5,18 C12.6715729,18 12,17.3284271 12,16.5 C12,15.6715729 12.6715729,15 13.5,15 Z M17,13 L17,15 L19,15 L19,16 L16,16 L16,13 L17,13 Z M11,13 L11,16 L8,16 L8,15 L10,15 L10,13 L11,13 Z" id="Shape" fill="#FFFFFF" fill-rule="nonzero" mask="url(#mask-2)"></path>
                    <circle id="Oval" stroke="#121619" fill="#121619" fill-rule="nonzero" mask="url(#mask-2)" cx="34.5" cy="16.5" r="8"></circle>
                    <path d="M40,17 L40,18 L38,18 L38,20 L37,20 L37,17 L40,17 Z M32,17 L32,20 L31,20 L31,18 L29,18 L29,17 L32,17 Z M34.5,15 C35.3284271,15 36,15.6715729 36,16.5 C36,17.3284271 35.3284271,18 34.5,18 C33.6715729,18 33,17.3284271 33,16.5 C33,15.6715729 33.6715729,15 34.5,15 Z M38,13 L38,15 L40,15 L40,16 L37,16 L37,13 L38,13 Z M32,13 L32,16 L29,16 L29,15 L31,15 L31,13 L32,13 Z" id="Shape" fill="#FFFFFF" fill-rule="nonzero" mask="url(#mask-2)"></path>
                </g>
            </g>
        </g>
    </g>
</svg>