<svg xmlns="http://www.w3.org/2000/svg" width="2" height="200" viewBox="0 0 2 200">
    <g fill="none" fill-rule="evenodd">
        <g fill="#C1C7CD">
            <g transform="translate(-644 -697) translate(644 697)">
                <rect width="2" height="8" rx="1" transform="translate(0 192)"/>
                <rect width="2" height="8" rx="1" transform="translate(0 180)"/>
                <rect width="2" height="8" rx="1" transform="translate(0 168)"/>
                <rect width="2" height="8" rx="1" transform="translate(0 156)"/>
                <rect width="2" height="8" rx="1" transform="translate(0 144)"/>
                <rect width="2" height="8" rx="1" transform="translate(0 132)"/>
                <rect width="2" height="8" rx="1" transform="translate(0 120)"/>
                <rect width="2" height="8" rx="1" transform="translate(0 108)"/>
                <rect width="2" height="8" rx="1" transform="translate(0 96)"/>
                <rect width="2" height="8" rx="1" transform="translate(0 84)"/>
                <rect width="2" height="8" rx="1" transform="translate(0 72)"/>
                <rect width="2" height="8" rx="1" transform="translate(0 60)"/>
                <rect width="2" height="8" rx="1" transform="translate(0 48)"/>
                <rect width="2" height="8" rx="1" transform="translate(0 36)"/>
                <rect width="2" height="8" rx="1" transform="translate(0 24)"/>
                <rect width="2" height="8" rx="1" transform="translate(0 12)"/>
                <rect width="2" height="8" rx="1"/>
            </g>
        </g>
    </g>
</svg>
