<svg xmlns="http://www.w3.org/2000/svg" width="17" height="16" viewBox="0 0 17 16">
    <path fill="#f2f4f8" fill-rule="nonzero" d="M16.1 5.339l-4.634-.663L9.394.554c-.37-.734-1.446-.743-1.82 0L5.503 4.676l-4.634.663c-.83.118-1.164 1.124-.561 1.7l3.352 3.206-.793 4.529c-.143.819.736 1.432 1.472 1.049l4.145-2.139 4.145 2.139c.736.38 1.615-.23 1.472-1.05l-.793-4.528 3.353-3.206c.602-.576.27-1.582-.562-1.7zm-4.425 4.383l.752 4.308-3.943-2.033-3.942 2.033.751-4.308-3.19-3.05 4.408-.63L8.484 2.12l1.973 3.922 4.409.63-3.191 3.05z"/>
</svg>
